G04 #@! TF.GenerationSoftware,KiCad,Pcbnew,(5.0.2)-1*
G04 #@! TF.CreationDate,2019-01-24T14:04:28+03:00*
G04 #@! TF.ProjectId,xmc_1300,786d635f-3133-4303-902e-6b696361645f,rev?*
G04 #@! TF.SameCoordinates,Original*
G04 #@! TF.FileFunction,Soldermask,Bot*
G04 #@! TF.FilePolarity,Negative*
%FSLAX46Y46*%
G04 Gerber Fmt 4.6, Leading zero omitted, Abs format (unit mm)*
G04 Created by KiCad (PCBNEW (5.0.2)-1) date 24.01.2019 14:04:28*
%MOMM*%
%LPD*%
G01*
G04 APERTURE LIST*
%ADD10C,0.100000*%
G04 APERTURE END LIST*
D10*
G36*
X170814239Y-128891467D02*
X171128282Y-128953934D01*
X171719926Y-129199001D01*
X172034211Y-129409000D01*
X172252395Y-129554786D01*
X172705214Y-130007605D01*
X172705216Y-130007608D01*
X173060999Y-130540074D01*
X173303881Y-131126443D01*
X173306066Y-131131719D01*
X173431000Y-131759803D01*
X173431000Y-132400197D01*
X173368533Y-132714239D01*
X173306066Y-133028282D01*
X173060999Y-133619926D01*
X172813265Y-133990685D01*
X172705214Y-134152395D01*
X172252395Y-134605214D01*
X172252392Y-134605216D01*
X171719926Y-134960999D01*
X171128282Y-135206066D01*
X170814239Y-135268533D01*
X170500197Y-135331000D01*
X169859803Y-135331000D01*
X169545761Y-135268533D01*
X169231718Y-135206066D01*
X168640074Y-134960999D01*
X168107608Y-134605216D01*
X168107605Y-134605214D01*
X167654786Y-134152395D01*
X167546735Y-133990685D01*
X167299001Y-133619926D01*
X167053934Y-133028282D01*
X166991467Y-132714239D01*
X166929000Y-132400197D01*
X166929000Y-131759803D01*
X167053934Y-131131719D01*
X167056119Y-131126443D01*
X167299001Y-130540074D01*
X167654784Y-130007608D01*
X167654786Y-130007605D01*
X168107605Y-129554786D01*
X168325789Y-129409000D01*
X168640074Y-129199001D01*
X169231718Y-128953934D01*
X169545761Y-128891467D01*
X169859803Y-128829000D01*
X170500197Y-128829000D01*
X170814239Y-128891467D01*
X170814239Y-128891467D01*
G37*
G36*
X81914239Y-128891467D02*
X82228282Y-128953934D01*
X82819926Y-129199001D01*
X83134211Y-129409000D01*
X83352395Y-129554786D01*
X83805214Y-130007605D01*
X83805216Y-130007608D01*
X84160999Y-130540074D01*
X84403881Y-131126443D01*
X84406066Y-131131719D01*
X84531000Y-131759803D01*
X84531000Y-132400197D01*
X84468533Y-132714239D01*
X84406066Y-133028282D01*
X84160999Y-133619926D01*
X83913265Y-133990685D01*
X83805214Y-134152395D01*
X83352395Y-134605214D01*
X83352392Y-134605216D01*
X82819926Y-134960999D01*
X82228282Y-135206066D01*
X81914239Y-135268533D01*
X81600197Y-135331000D01*
X80959803Y-135331000D01*
X80645761Y-135268533D01*
X80331718Y-135206066D01*
X79740074Y-134960999D01*
X79207608Y-134605216D01*
X79207605Y-134605214D01*
X78754786Y-134152395D01*
X78646735Y-133990685D01*
X78399001Y-133619926D01*
X78153934Y-133028282D01*
X78091467Y-132714239D01*
X78029000Y-132400197D01*
X78029000Y-131759803D01*
X78153934Y-131131719D01*
X78156119Y-131126443D01*
X78399001Y-130540074D01*
X78754784Y-130007608D01*
X78754786Y-130007605D01*
X79207605Y-129554786D01*
X79425789Y-129409000D01*
X79740074Y-129199001D01*
X80331718Y-128953934D01*
X80645761Y-128891467D01*
X80959803Y-128829000D01*
X81600197Y-128829000D01*
X81914239Y-128891467D01*
X81914239Y-128891467D01*
G37*
G36*
X93830443Y-129415519D02*
X93896627Y-129422037D01*
X94000535Y-129453557D01*
X94066467Y-129473557D01*
X94185572Y-129537221D01*
X94222991Y-129557222D01*
X94258729Y-129586552D01*
X94360186Y-129669814D01*
X94443448Y-129771271D01*
X94472778Y-129807009D01*
X94472779Y-129807011D01*
X94556443Y-129963533D01*
X94556443Y-129963534D01*
X94607963Y-130133373D01*
X94625359Y-130310000D01*
X94607963Y-130486627D01*
X94588439Y-130550989D01*
X94556443Y-130656467D01*
X94489014Y-130782615D01*
X94472778Y-130812991D01*
X94456991Y-130832227D01*
X94360186Y-130950186D01*
X94258729Y-131033448D01*
X94222991Y-131062778D01*
X94222989Y-131062779D01*
X94066467Y-131146443D01*
X94009853Y-131163616D01*
X93896627Y-131197963D01*
X93830442Y-131204482D01*
X93764260Y-131211000D01*
X93675740Y-131211000D01*
X93609558Y-131204482D01*
X93543373Y-131197963D01*
X93430147Y-131163616D01*
X93373533Y-131146443D01*
X93217011Y-131062779D01*
X93217009Y-131062778D01*
X93181271Y-131033448D01*
X93079814Y-130950186D01*
X92983009Y-130832227D01*
X92967222Y-130812991D01*
X92950986Y-130782615D01*
X92883557Y-130656467D01*
X92851561Y-130550989D01*
X92832037Y-130486627D01*
X92814641Y-130310000D01*
X92832037Y-130133373D01*
X92883557Y-129963534D01*
X92883557Y-129963533D01*
X92967221Y-129807011D01*
X92967222Y-129807009D01*
X92996552Y-129771271D01*
X93079814Y-129669814D01*
X93181271Y-129586552D01*
X93217009Y-129557222D01*
X93254428Y-129537221D01*
X93373533Y-129473557D01*
X93439465Y-129453557D01*
X93543373Y-129422037D01*
X93609557Y-129415519D01*
X93675740Y-129409000D01*
X93764260Y-129409000D01*
X93830443Y-129415519D01*
X93830443Y-129415519D01*
G37*
G36*
X96370443Y-129415519D02*
X96436627Y-129422037D01*
X96540535Y-129453557D01*
X96606467Y-129473557D01*
X96725572Y-129537221D01*
X96762991Y-129557222D01*
X96798729Y-129586552D01*
X96900186Y-129669814D01*
X96983448Y-129771271D01*
X97012778Y-129807009D01*
X97012779Y-129807011D01*
X97096443Y-129963533D01*
X97096443Y-129963534D01*
X97147963Y-130133373D01*
X97165359Y-130310000D01*
X97147963Y-130486627D01*
X97128439Y-130550989D01*
X97096443Y-130656467D01*
X97029014Y-130782615D01*
X97012778Y-130812991D01*
X96996991Y-130832227D01*
X96900186Y-130950186D01*
X96798729Y-131033448D01*
X96762991Y-131062778D01*
X96762989Y-131062779D01*
X96606467Y-131146443D01*
X96549853Y-131163616D01*
X96436627Y-131197963D01*
X96370442Y-131204482D01*
X96304260Y-131211000D01*
X96215740Y-131211000D01*
X96149558Y-131204482D01*
X96083373Y-131197963D01*
X95970147Y-131163616D01*
X95913533Y-131146443D01*
X95757011Y-131062779D01*
X95757009Y-131062778D01*
X95721271Y-131033448D01*
X95619814Y-130950186D01*
X95523009Y-130832227D01*
X95507222Y-130812991D01*
X95490986Y-130782615D01*
X95423557Y-130656467D01*
X95391561Y-130550989D01*
X95372037Y-130486627D01*
X95354641Y-130310000D01*
X95372037Y-130133373D01*
X95423557Y-129963534D01*
X95423557Y-129963533D01*
X95507221Y-129807011D01*
X95507222Y-129807009D01*
X95536552Y-129771271D01*
X95619814Y-129669814D01*
X95721271Y-129586552D01*
X95757009Y-129557222D01*
X95794428Y-129537221D01*
X95913533Y-129473557D01*
X95979465Y-129453557D01*
X96083373Y-129422037D01*
X96149557Y-129415519D01*
X96215740Y-129409000D01*
X96304260Y-129409000D01*
X96370443Y-129415519D01*
X96370443Y-129415519D01*
G37*
G36*
X111640443Y-129395519D02*
X111706627Y-129402037D01*
X111819853Y-129436384D01*
X111876467Y-129453557D01*
X112015087Y-129527652D01*
X112032991Y-129537222D01*
X112057361Y-129557222D01*
X112170186Y-129649814D01*
X112253448Y-129751271D01*
X112282778Y-129787009D01*
X112282779Y-129787011D01*
X112366443Y-129943533D01*
X112366443Y-129943534D01*
X112417963Y-130113373D01*
X112435359Y-130290000D01*
X112417963Y-130466627D01*
X112383843Y-130579105D01*
X112366443Y-130636467D01*
X112338798Y-130688186D01*
X112282778Y-130792991D01*
X112255189Y-130826608D01*
X112170186Y-130930186D01*
X112068729Y-131013448D01*
X112032991Y-131042778D01*
X112032989Y-131042779D01*
X111876467Y-131126443D01*
X111819853Y-131143616D01*
X111706627Y-131177963D01*
X111640442Y-131184482D01*
X111574260Y-131191000D01*
X111485740Y-131191000D01*
X111419558Y-131184482D01*
X111353373Y-131177963D01*
X111240147Y-131143616D01*
X111183533Y-131126443D01*
X111027011Y-131042779D01*
X111027009Y-131042778D01*
X110991271Y-131013448D01*
X110889814Y-130930186D01*
X110804811Y-130826608D01*
X110777222Y-130792991D01*
X110721202Y-130688186D01*
X110693557Y-130636467D01*
X110676157Y-130579105D01*
X110642037Y-130466627D01*
X110624641Y-130290000D01*
X110642037Y-130113373D01*
X110693557Y-129943534D01*
X110693557Y-129943533D01*
X110777221Y-129787011D01*
X110777222Y-129787009D01*
X110806552Y-129751271D01*
X110889814Y-129649814D01*
X111002639Y-129557222D01*
X111027009Y-129537222D01*
X111044913Y-129527652D01*
X111183533Y-129453557D01*
X111240147Y-129436384D01*
X111353373Y-129402037D01*
X111419557Y-129395519D01*
X111485740Y-129389000D01*
X111574260Y-129389000D01*
X111640443Y-129395519D01*
X111640443Y-129395519D01*
G37*
G36*
X114180443Y-129395519D02*
X114246627Y-129402037D01*
X114359853Y-129436384D01*
X114416467Y-129453557D01*
X114555087Y-129527652D01*
X114572991Y-129537222D01*
X114597361Y-129557222D01*
X114710186Y-129649814D01*
X114793448Y-129751271D01*
X114822778Y-129787009D01*
X114822779Y-129787011D01*
X114906443Y-129943533D01*
X114906443Y-129943534D01*
X114957963Y-130113373D01*
X114975359Y-130290000D01*
X114957963Y-130466627D01*
X114923843Y-130579105D01*
X114906443Y-130636467D01*
X114878798Y-130688186D01*
X114822778Y-130792991D01*
X114795189Y-130826608D01*
X114710186Y-130930186D01*
X114608729Y-131013448D01*
X114572991Y-131042778D01*
X114572989Y-131042779D01*
X114416467Y-131126443D01*
X114359853Y-131143616D01*
X114246627Y-131177963D01*
X114180442Y-131184482D01*
X114114260Y-131191000D01*
X114025740Y-131191000D01*
X113959558Y-131184482D01*
X113893373Y-131177963D01*
X113780147Y-131143616D01*
X113723533Y-131126443D01*
X113567011Y-131042779D01*
X113567009Y-131042778D01*
X113531271Y-131013448D01*
X113429814Y-130930186D01*
X113344811Y-130826608D01*
X113317222Y-130792991D01*
X113261202Y-130688186D01*
X113233557Y-130636467D01*
X113216157Y-130579105D01*
X113182037Y-130466627D01*
X113164641Y-130290000D01*
X113182037Y-130113373D01*
X113233557Y-129943534D01*
X113233557Y-129943533D01*
X113317221Y-129787011D01*
X113317222Y-129787009D01*
X113346552Y-129751271D01*
X113429814Y-129649814D01*
X113542639Y-129557222D01*
X113567009Y-129537222D01*
X113584913Y-129527652D01*
X113723533Y-129453557D01*
X113780147Y-129436384D01*
X113893373Y-129402037D01*
X113959557Y-129395519D01*
X114025740Y-129389000D01*
X114114260Y-129389000D01*
X114180443Y-129395519D01*
X114180443Y-129395519D01*
G37*
G36*
X129904443Y-129153519D02*
X129970627Y-129160037D01*
X130083853Y-129194384D01*
X130140467Y-129211557D01*
X130205525Y-129246332D01*
X130296991Y-129295222D01*
X130332729Y-129324552D01*
X130434186Y-129407814D01*
X130517448Y-129509271D01*
X130546778Y-129545009D01*
X130553306Y-129557222D01*
X130630443Y-129701533D01*
X130647616Y-129758147D01*
X130681963Y-129871373D01*
X130699359Y-130048000D01*
X130681963Y-130224627D01*
X130662132Y-130290000D01*
X130630443Y-130394467D01*
X130612859Y-130427364D01*
X130546778Y-130550991D01*
X130523705Y-130579105D01*
X130434186Y-130688186D01*
X130342213Y-130763665D01*
X130296991Y-130800778D01*
X130296989Y-130800779D01*
X130140467Y-130884443D01*
X130083853Y-130901616D01*
X129970627Y-130935963D01*
X129904443Y-130942481D01*
X129838260Y-130949000D01*
X129749740Y-130949000D01*
X129683557Y-130942481D01*
X129617373Y-130935963D01*
X129504147Y-130901616D01*
X129447533Y-130884443D01*
X129291011Y-130800779D01*
X129291009Y-130800778D01*
X129245787Y-130763665D01*
X129153814Y-130688186D01*
X129064295Y-130579105D01*
X129041222Y-130550991D01*
X128975141Y-130427364D01*
X128957557Y-130394467D01*
X128925868Y-130290000D01*
X128906037Y-130224627D01*
X128888641Y-130048000D01*
X128906037Y-129871373D01*
X128940384Y-129758147D01*
X128957557Y-129701533D01*
X129034694Y-129557222D01*
X129041222Y-129545009D01*
X129070552Y-129509271D01*
X129153814Y-129407814D01*
X129255271Y-129324552D01*
X129291009Y-129295222D01*
X129382475Y-129246332D01*
X129447533Y-129211557D01*
X129504147Y-129194384D01*
X129617373Y-129160037D01*
X129683557Y-129153519D01*
X129749740Y-129147000D01*
X129838260Y-129147000D01*
X129904443Y-129153519D01*
X129904443Y-129153519D01*
G37*
G36*
X132444443Y-129153519D02*
X132510627Y-129160037D01*
X132623853Y-129194384D01*
X132680467Y-129211557D01*
X132745525Y-129246332D01*
X132836991Y-129295222D01*
X132872729Y-129324552D01*
X132974186Y-129407814D01*
X133057448Y-129509271D01*
X133086778Y-129545009D01*
X133093306Y-129557222D01*
X133170443Y-129701533D01*
X133187616Y-129758147D01*
X133221963Y-129871373D01*
X133239359Y-130048000D01*
X133221963Y-130224627D01*
X133202132Y-130290000D01*
X133170443Y-130394467D01*
X133152859Y-130427364D01*
X133086778Y-130550991D01*
X133063705Y-130579105D01*
X132974186Y-130688186D01*
X132882213Y-130763665D01*
X132836991Y-130800778D01*
X132836989Y-130800779D01*
X132680467Y-130884443D01*
X132623853Y-130901616D01*
X132510627Y-130935963D01*
X132444443Y-130942481D01*
X132378260Y-130949000D01*
X132289740Y-130949000D01*
X132223557Y-130942481D01*
X132157373Y-130935963D01*
X132044147Y-130901616D01*
X131987533Y-130884443D01*
X131831011Y-130800779D01*
X131831009Y-130800778D01*
X131785787Y-130763665D01*
X131693814Y-130688186D01*
X131604295Y-130579105D01*
X131581222Y-130550991D01*
X131515141Y-130427364D01*
X131497557Y-130394467D01*
X131465868Y-130290000D01*
X131446037Y-130224627D01*
X131428641Y-130048000D01*
X131446037Y-129871373D01*
X131480384Y-129758147D01*
X131497557Y-129701533D01*
X131574694Y-129557222D01*
X131581222Y-129545009D01*
X131610552Y-129509271D01*
X131693814Y-129407814D01*
X131795271Y-129324552D01*
X131831009Y-129295222D01*
X131922475Y-129246332D01*
X131987533Y-129211557D01*
X132044147Y-129194384D01*
X132157373Y-129160037D01*
X132223557Y-129153519D01*
X132289740Y-129147000D01*
X132378260Y-129147000D01*
X132444443Y-129153519D01*
X132444443Y-129153519D01*
G37*
G36*
X139641562Y-128999181D02*
X139676477Y-129009773D01*
X139708665Y-129026978D01*
X139736873Y-129050127D01*
X139760022Y-129078335D01*
X139777227Y-129110523D01*
X139787819Y-129145438D01*
X139792000Y-129187895D01*
X139792000Y-130654105D01*
X139787819Y-130696562D01*
X139777227Y-130731477D01*
X139760022Y-130763665D01*
X139736873Y-130791873D01*
X139708665Y-130815022D01*
X139676477Y-130832227D01*
X139641562Y-130842819D01*
X139599105Y-130847000D01*
X138457895Y-130847000D01*
X138415438Y-130842819D01*
X138380523Y-130832227D01*
X138348335Y-130815022D01*
X138320127Y-130791873D01*
X138296978Y-130763665D01*
X138279773Y-130731477D01*
X138269181Y-130696562D01*
X138265000Y-130654105D01*
X138265000Y-129187895D01*
X138269181Y-129145438D01*
X138279773Y-129110523D01*
X138296978Y-129078335D01*
X138320127Y-129050127D01*
X138348335Y-129026978D01*
X138380523Y-129009773D01*
X138415438Y-128999181D01*
X138457895Y-128995000D01*
X139599105Y-128995000D01*
X139641562Y-128999181D01*
X139641562Y-128999181D01*
G37*
G36*
X136666562Y-128999181D02*
X136701477Y-129009773D01*
X136733665Y-129026978D01*
X136761873Y-129050127D01*
X136785022Y-129078335D01*
X136802227Y-129110523D01*
X136812819Y-129145438D01*
X136817000Y-129187895D01*
X136817000Y-130654105D01*
X136812819Y-130696562D01*
X136802227Y-130731477D01*
X136785022Y-130763665D01*
X136761873Y-130791873D01*
X136733665Y-130815022D01*
X136701477Y-130832227D01*
X136666562Y-130842819D01*
X136624105Y-130847000D01*
X135482895Y-130847000D01*
X135440438Y-130842819D01*
X135405523Y-130832227D01*
X135373335Y-130815022D01*
X135345127Y-130791873D01*
X135321978Y-130763665D01*
X135304773Y-130731477D01*
X135294181Y-130696562D01*
X135290000Y-130654105D01*
X135290000Y-129187895D01*
X135294181Y-129145438D01*
X135304773Y-129110523D01*
X135321978Y-129078335D01*
X135345127Y-129050127D01*
X135373335Y-129026978D01*
X135405523Y-129009773D01*
X135440438Y-128999181D01*
X135482895Y-128995000D01*
X136624105Y-128995000D01*
X136666562Y-128999181D01*
X136666562Y-128999181D01*
G37*
G36*
X93830443Y-126875519D02*
X93896627Y-126882037D01*
X94000535Y-126913557D01*
X94066467Y-126933557D01*
X94185572Y-126997221D01*
X94222991Y-127017222D01*
X94258729Y-127046552D01*
X94360186Y-127129814D01*
X94443448Y-127231271D01*
X94472778Y-127267009D01*
X94472779Y-127267011D01*
X94556443Y-127423533D01*
X94556443Y-127423534D01*
X94607963Y-127593373D01*
X94625359Y-127770000D01*
X94607963Y-127946627D01*
X94588439Y-128010989D01*
X94556443Y-128116467D01*
X94483469Y-128252989D01*
X94472778Y-128272991D01*
X94443448Y-128308729D01*
X94360186Y-128410186D01*
X94258729Y-128493448D01*
X94222991Y-128522778D01*
X94222989Y-128522779D01*
X94066467Y-128606443D01*
X94009853Y-128623616D01*
X93896627Y-128657963D01*
X93830442Y-128664482D01*
X93764260Y-128671000D01*
X93675740Y-128671000D01*
X93609558Y-128664482D01*
X93543373Y-128657963D01*
X93430147Y-128623616D01*
X93373533Y-128606443D01*
X93217011Y-128522779D01*
X93217009Y-128522778D01*
X93181271Y-128493448D01*
X93079814Y-128410186D01*
X92996552Y-128308729D01*
X92967222Y-128272991D01*
X92956531Y-128252989D01*
X92883557Y-128116467D01*
X92851561Y-128010989D01*
X92832037Y-127946627D01*
X92814641Y-127770000D01*
X92832037Y-127593373D01*
X92883557Y-127423534D01*
X92883557Y-127423533D01*
X92967221Y-127267011D01*
X92967222Y-127267009D01*
X92996552Y-127231271D01*
X93079814Y-127129814D01*
X93181271Y-127046552D01*
X93217009Y-127017222D01*
X93254428Y-126997221D01*
X93373533Y-126933557D01*
X93439465Y-126913557D01*
X93543373Y-126882037D01*
X93609557Y-126875519D01*
X93675740Y-126869000D01*
X93764260Y-126869000D01*
X93830443Y-126875519D01*
X93830443Y-126875519D01*
G37*
G36*
X96370443Y-126875519D02*
X96436627Y-126882037D01*
X96540535Y-126913557D01*
X96606467Y-126933557D01*
X96725572Y-126997221D01*
X96762991Y-127017222D01*
X96798729Y-127046552D01*
X96900186Y-127129814D01*
X96983448Y-127231271D01*
X97012778Y-127267009D01*
X97012779Y-127267011D01*
X97096443Y-127423533D01*
X97096443Y-127423534D01*
X97147963Y-127593373D01*
X97165359Y-127770000D01*
X97147963Y-127946627D01*
X97128439Y-128010989D01*
X97096443Y-128116467D01*
X97023469Y-128252989D01*
X97012778Y-128272991D01*
X96983448Y-128308729D01*
X96900186Y-128410186D01*
X96798729Y-128493448D01*
X96762991Y-128522778D01*
X96762989Y-128522779D01*
X96606467Y-128606443D01*
X96549853Y-128623616D01*
X96436627Y-128657963D01*
X96370442Y-128664482D01*
X96304260Y-128671000D01*
X96215740Y-128671000D01*
X96149558Y-128664482D01*
X96083373Y-128657963D01*
X95970147Y-128623616D01*
X95913533Y-128606443D01*
X95757011Y-128522779D01*
X95757009Y-128522778D01*
X95721271Y-128493448D01*
X95619814Y-128410186D01*
X95536552Y-128308729D01*
X95507222Y-128272991D01*
X95496531Y-128252989D01*
X95423557Y-128116467D01*
X95391561Y-128010989D01*
X95372037Y-127946627D01*
X95354641Y-127770000D01*
X95372037Y-127593373D01*
X95423557Y-127423534D01*
X95423557Y-127423533D01*
X95507221Y-127267011D01*
X95507222Y-127267009D01*
X95536552Y-127231271D01*
X95619814Y-127129814D01*
X95721271Y-127046552D01*
X95757009Y-127017222D01*
X95794428Y-126997221D01*
X95913533Y-126933557D01*
X95979465Y-126913557D01*
X96083373Y-126882037D01*
X96149557Y-126875519D01*
X96215740Y-126869000D01*
X96304260Y-126869000D01*
X96370443Y-126875519D01*
X96370443Y-126875519D01*
G37*
G36*
X111640442Y-126855518D02*
X111706627Y-126862037D01*
X111819853Y-126896384D01*
X111876467Y-126913557D01*
X112015087Y-126987652D01*
X112032991Y-126997222D01*
X112057361Y-127017222D01*
X112170186Y-127109814D01*
X112253448Y-127211271D01*
X112282778Y-127247009D01*
X112282779Y-127247011D01*
X112366443Y-127403533D01*
X112366443Y-127403534D01*
X112417963Y-127573373D01*
X112435359Y-127750000D01*
X112417963Y-127926627D01*
X112383616Y-128039853D01*
X112366443Y-128096467D01*
X112338798Y-128148186D01*
X112282778Y-128252991D01*
X112266366Y-128272989D01*
X112170186Y-128390186D01*
X112068729Y-128473448D01*
X112032991Y-128502778D01*
X112032989Y-128502779D01*
X111876467Y-128586443D01*
X111819853Y-128603616D01*
X111706627Y-128637963D01*
X111640443Y-128644481D01*
X111574260Y-128651000D01*
X111485740Y-128651000D01*
X111419557Y-128644481D01*
X111353373Y-128637963D01*
X111240147Y-128603616D01*
X111183533Y-128586443D01*
X111027011Y-128502779D01*
X111027009Y-128502778D01*
X110991271Y-128473448D01*
X110889814Y-128390186D01*
X110793634Y-128272989D01*
X110777222Y-128252991D01*
X110721202Y-128148186D01*
X110693557Y-128096467D01*
X110676384Y-128039853D01*
X110642037Y-127926627D01*
X110624641Y-127750000D01*
X110642037Y-127573373D01*
X110693557Y-127403534D01*
X110693557Y-127403533D01*
X110777221Y-127247011D01*
X110777222Y-127247009D01*
X110806552Y-127211271D01*
X110889814Y-127109814D01*
X111002639Y-127017222D01*
X111027009Y-126997222D01*
X111044913Y-126987652D01*
X111183533Y-126913557D01*
X111240147Y-126896384D01*
X111353373Y-126862037D01*
X111419558Y-126855518D01*
X111485740Y-126849000D01*
X111574260Y-126849000D01*
X111640442Y-126855518D01*
X111640442Y-126855518D01*
G37*
G36*
X114180442Y-126855518D02*
X114246627Y-126862037D01*
X114359853Y-126896384D01*
X114416467Y-126913557D01*
X114555087Y-126987652D01*
X114572991Y-126997222D01*
X114597361Y-127017222D01*
X114710186Y-127109814D01*
X114793448Y-127211271D01*
X114822778Y-127247009D01*
X114822779Y-127247011D01*
X114906443Y-127403533D01*
X114906443Y-127403534D01*
X114957963Y-127573373D01*
X114975359Y-127750000D01*
X114957963Y-127926627D01*
X114923616Y-128039853D01*
X114906443Y-128096467D01*
X114878798Y-128148186D01*
X114822778Y-128252991D01*
X114806366Y-128272989D01*
X114710186Y-128390186D01*
X114608729Y-128473448D01*
X114572991Y-128502778D01*
X114572989Y-128502779D01*
X114416467Y-128586443D01*
X114359853Y-128603616D01*
X114246627Y-128637963D01*
X114180443Y-128644481D01*
X114114260Y-128651000D01*
X114025740Y-128651000D01*
X113959557Y-128644481D01*
X113893373Y-128637963D01*
X113780147Y-128603616D01*
X113723533Y-128586443D01*
X113567011Y-128502779D01*
X113567009Y-128502778D01*
X113531271Y-128473448D01*
X113429814Y-128390186D01*
X113333634Y-128272989D01*
X113317222Y-128252991D01*
X113261202Y-128148186D01*
X113233557Y-128096467D01*
X113216384Y-128039853D01*
X113182037Y-127926627D01*
X113164641Y-127750000D01*
X113182037Y-127573373D01*
X113233557Y-127403534D01*
X113233557Y-127403533D01*
X113317221Y-127247011D01*
X113317222Y-127247009D01*
X113346552Y-127211271D01*
X113429814Y-127109814D01*
X113542639Y-127017222D01*
X113567009Y-126997222D01*
X113584913Y-126987652D01*
X113723533Y-126913557D01*
X113780147Y-126896384D01*
X113893373Y-126862037D01*
X113959558Y-126855518D01*
X114025740Y-126849000D01*
X114114260Y-126849000D01*
X114180442Y-126855518D01*
X114180442Y-126855518D01*
G37*
G36*
X132444442Y-126613518D02*
X132510627Y-126620037D01*
X132623853Y-126654384D01*
X132680467Y-126671557D01*
X132819087Y-126745652D01*
X132836991Y-126755222D01*
X132872729Y-126784552D01*
X132974186Y-126867814D01*
X133057448Y-126969271D01*
X133086778Y-127005009D01*
X133093306Y-127017222D01*
X133170443Y-127161533D01*
X133170443Y-127161534D01*
X133221963Y-127331373D01*
X133239359Y-127508000D01*
X133221963Y-127684627D01*
X133211070Y-127720535D01*
X133170443Y-127854467D01*
X133131873Y-127926625D01*
X133086778Y-128010991D01*
X133057448Y-128046729D01*
X132974186Y-128148186D01*
X132872729Y-128231448D01*
X132836991Y-128260778D01*
X132836989Y-128260779D01*
X132680467Y-128344443D01*
X132623853Y-128361616D01*
X132510627Y-128395963D01*
X132444443Y-128402481D01*
X132378260Y-128409000D01*
X132289740Y-128409000D01*
X132223557Y-128402481D01*
X132157373Y-128395963D01*
X132044147Y-128361616D01*
X131987533Y-128344443D01*
X131831011Y-128260779D01*
X131831009Y-128260778D01*
X131795271Y-128231448D01*
X131693814Y-128148186D01*
X131610552Y-128046729D01*
X131581222Y-128010991D01*
X131536127Y-127926625D01*
X131497557Y-127854467D01*
X131456930Y-127720535D01*
X131446037Y-127684627D01*
X131428641Y-127508000D01*
X131446037Y-127331373D01*
X131497557Y-127161534D01*
X131497557Y-127161533D01*
X131574694Y-127017222D01*
X131581222Y-127005009D01*
X131610552Y-126969271D01*
X131693814Y-126867814D01*
X131795271Y-126784552D01*
X131831009Y-126755222D01*
X131848913Y-126745652D01*
X131987533Y-126671557D01*
X132044147Y-126654384D01*
X132157373Y-126620037D01*
X132223558Y-126613518D01*
X132289740Y-126607000D01*
X132378260Y-126607000D01*
X132444442Y-126613518D01*
X132444442Y-126613518D01*
G37*
G36*
X129904442Y-126613518D02*
X129970627Y-126620037D01*
X130083853Y-126654384D01*
X130140467Y-126671557D01*
X130279087Y-126745652D01*
X130296991Y-126755222D01*
X130332729Y-126784552D01*
X130434186Y-126867814D01*
X130517448Y-126969271D01*
X130546778Y-127005009D01*
X130553306Y-127017222D01*
X130630443Y-127161533D01*
X130630443Y-127161534D01*
X130681963Y-127331373D01*
X130699359Y-127508000D01*
X130681963Y-127684627D01*
X130671070Y-127720535D01*
X130630443Y-127854467D01*
X130591873Y-127926625D01*
X130546778Y-128010991D01*
X130517448Y-128046729D01*
X130434186Y-128148186D01*
X130332729Y-128231448D01*
X130296991Y-128260778D01*
X130296989Y-128260779D01*
X130140467Y-128344443D01*
X130083853Y-128361616D01*
X129970627Y-128395963D01*
X129904443Y-128402481D01*
X129838260Y-128409000D01*
X129749740Y-128409000D01*
X129683557Y-128402481D01*
X129617373Y-128395963D01*
X129504147Y-128361616D01*
X129447533Y-128344443D01*
X129291011Y-128260779D01*
X129291009Y-128260778D01*
X129255271Y-128231448D01*
X129153814Y-128148186D01*
X129070552Y-128046729D01*
X129041222Y-128010991D01*
X128996127Y-127926625D01*
X128957557Y-127854467D01*
X128916930Y-127720535D01*
X128906037Y-127684627D01*
X128888641Y-127508000D01*
X128906037Y-127331373D01*
X128957557Y-127161534D01*
X128957557Y-127161533D01*
X129034694Y-127017222D01*
X129041222Y-127005009D01*
X129070552Y-126969271D01*
X129153814Y-126867814D01*
X129255271Y-126784552D01*
X129291009Y-126755222D01*
X129308913Y-126745652D01*
X129447533Y-126671557D01*
X129504147Y-126654384D01*
X129617373Y-126620037D01*
X129683558Y-126613518D01*
X129749740Y-126607000D01*
X129838260Y-126607000D01*
X129904442Y-126613518D01*
X129904442Y-126613518D01*
G37*
G36*
X139641562Y-125951181D02*
X139676477Y-125961773D01*
X139708665Y-125978978D01*
X139736873Y-126002127D01*
X139760022Y-126030335D01*
X139777227Y-126062523D01*
X139787819Y-126097438D01*
X139792000Y-126139895D01*
X139792000Y-127606105D01*
X139787819Y-127648562D01*
X139777227Y-127683477D01*
X139760022Y-127715665D01*
X139736873Y-127743873D01*
X139708665Y-127767022D01*
X139676477Y-127784227D01*
X139641562Y-127794819D01*
X139599105Y-127799000D01*
X138457895Y-127799000D01*
X138415438Y-127794819D01*
X138380523Y-127784227D01*
X138348335Y-127767022D01*
X138320127Y-127743873D01*
X138296978Y-127715665D01*
X138279773Y-127683477D01*
X138269181Y-127648562D01*
X138265000Y-127606105D01*
X138265000Y-126139895D01*
X138269181Y-126097438D01*
X138279773Y-126062523D01*
X138296978Y-126030335D01*
X138320127Y-126002127D01*
X138348335Y-125978978D01*
X138380523Y-125961773D01*
X138415438Y-125951181D01*
X138457895Y-125947000D01*
X139599105Y-125947000D01*
X139641562Y-125951181D01*
X139641562Y-125951181D01*
G37*
G36*
X136666562Y-125951181D02*
X136701477Y-125961773D01*
X136733665Y-125978978D01*
X136761873Y-126002127D01*
X136785022Y-126030335D01*
X136802227Y-126062523D01*
X136812819Y-126097438D01*
X136817000Y-126139895D01*
X136817000Y-127606105D01*
X136812819Y-127648562D01*
X136802227Y-127683477D01*
X136785022Y-127715665D01*
X136761873Y-127743873D01*
X136733665Y-127767022D01*
X136701477Y-127784227D01*
X136666562Y-127794819D01*
X136624105Y-127799000D01*
X135482895Y-127799000D01*
X135440438Y-127794819D01*
X135405523Y-127784227D01*
X135373335Y-127767022D01*
X135345127Y-127743873D01*
X135321978Y-127715665D01*
X135304773Y-127683477D01*
X135294181Y-127648562D01*
X135290000Y-127606105D01*
X135290000Y-126139895D01*
X135294181Y-126097438D01*
X135304773Y-126062523D01*
X135321978Y-126030335D01*
X135345127Y-126002127D01*
X135373335Y-125978978D01*
X135405523Y-125961773D01*
X135440438Y-125951181D01*
X135482895Y-125947000D01*
X136624105Y-125947000D01*
X136666562Y-125951181D01*
X136666562Y-125951181D01*
G37*
G36*
X96370442Y-124335518D02*
X96436627Y-124342037D01*
X96540535Y-124373557D01*
X96606467Y-124393557D01*
X96725572Y-124457221D01*
X96762991Y-124477222D01*
X96798729Y-124506552D01*
X96900186Y-124589814D01*
X96983448Y-124691271D01*
X97012778Y-124727009D01*
X97012779Y-124727011D01*
X97096443Y-124883533D01*
X97096443Y-124883534D01*
X97147963Y-125053373D01*
X97165359Y-125230000D01*
X97147963Y-125406627D01*
X97128439Y-125470989D01*
X97096443Y-125576467D01*
X97023469Y-125712989D01*
X97012778Y-125732991D01*
X96983448Y-125768729D01*
X96900186Y-125870186D01*
X96798729Y-125953448D01*
X96762991Y-125982778D01*
X96762989Y-125982779D01*
X96606467Y-126066443D01*
X96549853Y-126083616D01*
X96436627Y-126117963D01*
X96370443Y-126124481D01*
X96304260Y-126131000D01*
X96215740Y-126131000D01*
X96149557Y-126124481D01*
X96083373Y-126117963D01*
X95970147Y-126083616D01*
X95913533Y-126066443D01*
X95757011Y-125982779D01*
X95757009Y-125982778D01*
X95721271Y-125953448D01*
X95619814Y-125870186D01*
X95536552Y-125768729D01*
X95507222Y-125732991D01*
X95496531Y-125712989D01*
X95423557Y-125576467D01*
X95391561Y-125470989D01*
X95372037Y-125406627D01*
X95354641Y-125230000D01*
X95372037Y-125053373D01*
X95423557Y-124883534D01*
X95423557Y-124883533D01*
X95507221Y-124727011D01*
X95507222Y-124727009D01*
X95536552Y-124691271D01*
X95619814Y-124589814D01*
X95721271Y-124506552D01*
X95757009Y-124477222D01*
X95794428Y-124457221D01*
X95913533Y-124393557D01*
X95979465Y-124373557D01*
X96083373Y-124342037D01*
X96149558Y-124335518D01*
X96215740Y-124329000D01*
X96304260Y-124329000D01*
X96370442Y-124335518D01*
X96370442Y-124335518D01*
G37*
G36*
X93830442Y-124335518D02*
X93896627Y-124342037D01*
X94000535Y-124373557D01*
X94066467Y-124393557D01*
X94185572Y-124457221D01*
X94222991Y-124477222D01*
X94258729Y-124506552D01*
X94360186Y-124589814D01*
X94443448Y-124691271D01*
X94472778Y-124727009D01*
X94472779Y-124727011D01*
X94556443Y-124883533D01*
X94556443Y-124883534D01*
X94607963Y-125053373D01*
X94625359Y-125230000D01*
X94607963Y-125406627D01*
X94588439Y-125470989D01*
X94556443Y-125576467D01*
X94483469Y-125712989D01*
X94472778Y-125732991D01*
X94443448Y-125768729D01*
X94360186Y-125870186D01*
X94258729Y-125953448D01*
X94222991Y-125982778D01*
X94222989Y-125982779D01*
X94066467Y-126066443D01*
X94009853Y-126083616D01*
X93896627Y-126117963D01*
X93830443Y-126124481D01*
X93764260Y-126131000D01*
X93675740Y-126131000D01*
X93609557Y-126124481D01*
X93543373Y-126117963D01*
X93430147Y-126083616D01*
X93373533Y-126066443D01*
X93217011Y-125982779D01*
X93217009Y-125982778D01*
X93181271Y-125953448D01*
X93079814Y-125870186D01*
X92996552Y-125768729D01*
X92967222Y-125732991D01*
X92956531Y-125712989D01*
X92883557Y-125576467D01*
X92851561Y-125470989D01*
X92832037Y-125406627D01*
X92814641Y-125230000D01*
X92832037Y-125053373D01*
X92883557Y-124883534D01*
X92883557Y-124883533D01*
X92967221Y-124727011D01*
X92967222Y-124727009D01*
X92996552Y-124691271D01*
X93079814Y-124589814D01*
X93181271Y-124506552D01*
X93217009Y-124477222D01*
X93254428Y-124457221D01*
X93373533Y-124393557D01*
X93439465Y-124373557D01*
X93543373Y-124342037D01*
X93609558Y-124335518D01*
X93675740Y-124329000D01*
X93764260Y-124329000D01*
X93830442Y-124335518D01*
X93830442Y-124335518D01*
G37*
G36*
X114180442Y-124315518D02*
X114246627Y-124322037D01*
X114359853Y-124356384D01*
X114416467Y-124373557D01*
X114555087Y-124447652D01*
X114572991Y-124457222D01*
X114597361Y-124477222D01*
X114710186Y-124569814D01*
X114793448Y-124671271D01*
X114822778Y-124707009D01*
X114822779Y-124707011D01*
X114906443Y-124863533D01*
X114906443Y-124863534D01*
X114957963Y-125033373D01*
X114975359Y-125210000D01*
X114957963Y-125386627D01*
X114923616Y-125499853D01*
X114906443Y-125556467D01*
X114878798Y-125608186D01*
X114822778Y-125712991D01*
X114806366Y-125732989D01*
X114710186Y-125850186D01*
X114608729Y-125933448D01*
X114572991Y-125962778D01*
X114572989Y-125962779D01*
X114416467Y-126046443D01*
X114363457Y-126062523D01*
X114246627Y-126097963D01*
X114180443Y-126104481D01*
X114114260Y-126111000D01*
X114025740Y-126111000D01*
X113959557Y-126104481D01*
X113893373Y-126097963D01*
X113776543Y-126062523D01*
X113723533Y-126046443D01*
X113567011Y-125962779D01*
X113567009Y-125962778D01*
X113531271Y-125933448D01*
X113429814Y-125850186D01*
X113333634Y-125732989D01*
X113317222Y-125712991D01*
X113261202Y-125608186D01*
X113233557Y-125556467D01*
X113216384Y-125499853D01*
X113182037Y-125386627D01*
X113164641Y-125210000D01*
X113182037Y-125033373D01*
X113233557Y-124863534D01*
X113233557Y-124863533D01*
X113317221Y-124707011D01*
X113317222Y-124707009D01*
X113346552Y-124671271D01*
X113429814Y-124569814D01*
X113542639Y-124477222D01*
X113567009Y-124457222D01*
X113584913Y-124447652D01*
X113723533Y-124373557D01*
X113780147Y-124356384D01*
X113893373Y-124322037D01*
X113959558Y-124315518D01*
X114025740Y-124309000D01*
X114114260Y-124309000D01*
X114180442Y-124315518D01*
X114180442Y-124315518D01*
G37*
G36*
X111640442Y-124315518D02*
X111706627Y-124322037D01*
X111819853Y-124356384D01*
X111876467Y-124373557D01*
X112015087Y-124447652D01*
X112032991Y-124457222D01*
X112057361Y-124477222D01*
X112170186Y-124569814D01*
X112253448Y-124671271D01*
X112282778Y-124707009D01*
X112282779Y-124707011D01*
X112366443Y-124863533D01*
X112366443Y-124863534D01*
X112417963Y-125033373D01*
X112435359Y-125210000D01*
X112417963Y-125386627D01*
X112383616Y-125499853D01*
X112366443Y-125556467D01*
X112338798Y-125608186D01*
X112282778Y-125712991D01*
X112266366Y-125732989D01*
X112170186Y-125850186D01*
X112068729Y-125933448D01*
X112032991Y-125962778D01*
X112032989Y-125962779D01*
X111876467Y-126046443D01*
X111823457Y-126062523D01*
X111706627Y-126097963D01*
X111640443Y-126104481D01*
X111574260Y-126111000D01*
X111485740Y-126111000D01*
X111419557Y-126104481D01*
X111353373Y-126097963D01*
X111236543Y-126062523D01*
X111183533Y-126046443D01*
X111027011Y-125962779D01*
X111027009Y-125962778D01*
X110991271Y-125933448D01*
X110889814Y-125850186D01*
X110793634Y-125732989D01*
X110777222Y-125712991D01*
X110721202Y-125608186D01*
X110693557Y-125556467D01*
X110676384Y-125499853D01*
X110642037Y-125386627D01*
X110624641Y-125210000D01*
X110642037Y-125033373D01*
X110693557Y-124863534D01*
X110693557Y-124863533D01*
X110777221Y-124707011D01*
X110777222Y-124707009D01*
X110806552Y-124671271D01*
X110889814Y-124569814D01*
X111002639Y-124477222D01*
X111027009Y-124457222D01*
X111044913Y-124447652D01*
X111183533Y-124373557D01*
X111240147Y-124356384D01*
X111353373Y-124322037D01*
X111419558Y-124315518D01*
X111485740Y-124309000D01*
X111574260Y-124309000D01*
X111640442Y-124315518D01*
X111640442Y-124315518D01*
G37*
G36*
X129904443Y-124073519D02*
X129970627Y-124080037D01*
X130083853Y-124114384D01*
X130140467Y-124131557D01*
X130279087Y-124205652D01*
X130296991Y-124215222D01*
X130332729Y-124244552D01*
X130434186Y-124327814D01*
X130517448Y-124429271D01*
X130546778Y-124465009D01*
X130553306Y-124477222D01*
X130630443Y-124621533D01*
X130630443Y-124621534D01*
X130681963Y-124791373D01*
X130699359Y-124968000D01*
X130681963Y-125144627D01*
X130662132Y-125210000D01*
X130630443Y-125314467D01*
X130591873Y-125386625D01*
X130546778Y-125470991D01*
X130517448Y-125506729D01*
X130434186Y-125608186D01*
X130332729Y-125691448D01*
X130296991Y-125720778D01*
X130296989Y-125720779D01*
X130140467Y-125804443D01*
X130083853Y-125821616D01*
X129970627Y-125855963D01*
X129904443Y-125862481D01*
X129838260Y-125869000D01*
X129749740Y-125869000D01*
X129683557Y-125862481D01*
X129617373Y-125855963D01*
X129504147Y-125821616D01*
X129447533Y-125804443D01*
X129291011Y-125720779D01*
X129291009Y-125720778D01*
X129255271Y-125691448D01*
X129153814Y-125608186D01*
X129070552Y-125506729D01*
X129041222Y-125470991D01*
X128996127Y-125386625D01*
X128957557Y-125314467D01*
X128925868Y-125210000D01*
X128906037Y-125144627D01*
X128888641Y-124968000D01*
X128906037Y-124791373D01*
X128957557Y-124621534D01*
X128957557Y-124621533D01*
X129034694Y-124477222D01*
X129041222Y-124465009D01*
X129070552Y-124429271D01*
X129153814Y-124327814D01*
X129255271Y-124244552D01*
X129291009Y-124215222D01*
X129308913Y-124205652D01*
X129447533Y-124131557D01*
X129504147Y-124114384D01*
X129617373Y-124080037D01*
X129683557Y-124073519D01*
X129749740Y-124067000D01*
X129838260Y-124067000D01*
X129904443Y-124073519D01*
X129904443Y-124073519D01*
G37*
G36*
X132444443Y-124073519D02*
X132510627Y-124080037D01*
X132623853Y-124114384D01*
X132680467Y-124131557D01*
X132819087Y-124205652D01*
X132836991Y-124215222D01*
X132872729Y-124244552D01*
X132974186Y-124327814D01*
X133057448Y-124429271D01*
X133086778Y-124465009D01*
X133093306Y-124477222D01*
X133170443Y-124621533D01*
X133170443Y-124621534D01*
X133221963Y-124791373D01*
X133239359Y-124968000D01*
X133221963Y-125144627D01*
X133202132Y-125210000D01*
X133170443Y-125314467D01*
X133131873Y-125386625D01*
X133086778Y-125470991D01*
X133057448Y-125506729D01*
X132974186Y-125608186D01*
X132872729Y-125691448D01*
X132836991Y-125720778D01*
X132836989Y-125720779D01*
X132680467Y-125804443D01*
X132623853Y-125821616D01*
X132510627Y-125855963D01*
X132444443Y-125862481D01*
X132378260Y-125869000D01*
X132289740Y-125869000D01*
X132223557Y-125862481D01*
X132157373Y-125855963D01*
X132044147Y-125821616D01*
X131987533Y-125804443D01*
X131831011Y-125720779D01*
X131831009Y-125720778D01*
X131795271Y-125691448D01*
X131693814Y-125608186D01*
X131610552Y-125506729D01*
X131581222Y-125470991D01*
X131536127Y-125386625D01*
X131497557Y-125314467D01*
X131465868Y-125210000D01*
X131446037Y-125144627D01*
X131428641Y-124968000D01*
X131446037Y-124791373D01*
X131497557Y-124621534D01*
X131497557Y-124621533D01*
X131574694Y-124477222D01*
X131581222Y-124465009D01*
X131610552Y-124429271D01*
X131693814Y-124327814D01*
X131795271Y-124244552D01*
X131831009Y-124215222D01*
X131848913Y-124205652D01*
X131987533Y-124131557D01*
X132044147Y-124114384D01*
X132157373Y-124080037D01*
X132223557Y-124073519D01*
X132289740Y-124067000D01*
X132378260Y-124067000D01*
X132444443Y-124073519D01*
X132444443Y-124073519D01*
G37*
G36*
X93830443Y-121795519D02*
X93896627Y-121802037D01*
X94000535Y-121833557D01*
X94066467Y-121853557D01*
X94185572Y-121917221D01*
X94222991Y-121937222D01*
X94258729Y-121966552D01*
X94360186Y-122049814D01*
X94443448Y-122151271D01*
X94472778Y-122187009D01*
X94472779Y-122187011D01*
X94556443Y-122343533D01*
X94556443Y-122343534D01*
X94607963Y-122513373D01*
X94625359Y-122690000D01*
X94607963Y-122866627D01*
X94588439Y-122930989D01*
X94556443Y-123036467D01*
X94483469Y-123172989D01*
X94472778Y-123192991D01*
X94443448Y-123228729D01*
X94360186Y-123330186D01*
X94258729Y-123413448D01*
X94222991Y-123442778D01*
X94222989Y-123442779D01*
X94066467Y-123526443D01*
X94009853Y-123543616D01*
X93896627Y-123577963D01*
X93830443Y-123584481D01*
X93764260Y-123591000D01*
X93675740Y-123591000D01*
X93609557Y-123584481D01*
X93543373Y-123577963D01*
X93430147Y-123543616D01*
X93373533Y-123526443D01*
X93217011Y-123442779D01*
X93217009Y-123442778D01*
X93181271Y-123413448D01*
X93079814Y-123330186D01*
X92996552Y-123228729D01*
X92967222Y-123192991D01*
X92956531Y-123172989D01*
X92883557Y-123036467D01*
X92851561Y-122930989D01*
X92832037Y-122866627D01*
X92814641Y-122690000D01*
X92832037Y-122513373D01*
X92883557Y-122343534D01*
X92883557Y-122343533D01*
X92967221Y-122187011D01*
X92967222Y-122187009D01*
X92996552Y-122151271D01*
X93079814Y-122049814D01*
X93181271Y-121966552D01*
X93217009Y-121937222D01*
X93254428Y-121917221D01*
X93373533Y-121853557D01*
X93439465Y-121833557D01*
X93543373Y-121802037D01*
X93609557Y-121795519D01*
X93675740Y-121789000D01*
X93764260Y-121789000D01*
X93830443Y-121795519D01*
X93830443Y-121795519D01*
G37*
G36*
X96370443Y-121795519D02*
X96436627Y-121802037D01*
X96540535Y-121833557D01*
X96606467Y-121853557D01*
X96725572Y-121917221D01*
X96762991Y-121937222D01*
X96798729Y-121966552D01*
X96900186Y-122049814D01*
X96983448Y-122151271D01*
X97012778Y-122187009D01*
X97012779Y-122187011D01*
X97096443Y-122343533D01*
X97096443Y-122343534D01*
X97147963Y-122513373D01*
X97165359Y-122690000D01*
X97147963Y-122866627D01*
X97128439Y-122930989D01*
X97096443Y-123036467D01*
X97023469Y-123172989D01*
X97012778Y-123192991D01*
X96983448Y-123228729D01*
X96900186Y-123330186D01*
X96798729Y-123413448D01*
X96762991Y-123442778D01*
X96762989Y-123442779D01*
X96606467Y-123526443D01*
X96549853Y-123543616D01*
X96436627Y-123577963D01*
X96370443Y-123584481D01*
X96304260Y-123591000D01*
X96215740Y-123591000D01*
X96149557Y-123584481D01*
X96083373Y-123577963D01*
X95970147Y-123543616D01*
X95913533Y-123526443D01*
X95757011Y-123442779D01*
X95757009Y-123442778D01*
X95721271Y-123413448D01*
X95619814Y-123330186D01*
X95536552Y-123228729D01*
X95507222Y-123192991D01*
X95496531Y-123172989D01*
X95423557Y-123036467D01*
X95391561Y-122930989D01*
X95372037Y-122866627D01*
X95354641Y-122690000D01*
X95372037Y-122513373D01*
X95423557Y-122343534D01*
X95423557Y-122343533D01*
X95507221Y-122187011D01*
X95507222Y-122187009D01*
X95536552Y-122151271D01*
X95619814Y-122049814D01*
X95721271Y-121966552D01*
X95757009Y-121937222D01*
X95794428Y-121917221D01*
X95913533Y-121853557D01*
X95979465Y-121833557D01*
X96083373Y-121802037D01*
X96149557Y-121795519D01*
X96215740Y-121789000D01*
X96304260Y-121789000D01*
X96370443Y-121795519D01*
X96370443Y-121795519D01*
G37*
G36*
X111640442Y-121775518D02*
X111706627Y-121782037D01*
X111819853Y-121816384D01*
X111876467Y-121833557D01*
X112015087Y-121907652D01*
X112032991Y-121917222D01*
X112057361Y-121937222D01*
X112170186Y-122029814D01*
X112242921Y-122118443D01*
X112282778Y-122167009D01*
X112282779Y-122167011D01*
X112366443Y-122323533D01*
X112366443Y-122323534D01*
X112417963Y-122493373D01*
X112435359Y-122670000D01*
X112417963Y-122846627D01*
X112383616Y-122959853D01*
X112366443Y-123016467D01*
X112338798Y-123068186D01*
X112282778Y-123172991D01*
X112266366Y-123192989D01*
X112170186Y-123310186D01*
X112068729Y-123393448D01*
X112032991Y-123422778D01*
X112032989Y-123422779D01*
X111876467Y-123506443D01*
X111819853Y-123523616D01*
X111706627Y-123557963D01*
X111640442Y-123564482D01*
X111574260Y-123571000D01*
X111485740Y-123571000D01*
X111419558Y-123564482D01*
X111353373Y-123557963D01*
X111240147Y-123523616D01*
X111183533Y-123506443D01*
X111027011Y-123422779D01*
X111027009Y-123422778D01*
X110991271Y-123393448D01*
X110889814Y-123310186D01*
X110793634Y-123192989D01*
X110777222Y-123172991D01*
X110721202Y-123068186D01*
X110693557Y-123016467D01*
X110676384Y-122959853D01*
X110642037Y-122846627D01*
X110624641Y-122670000D01*
X110642037Y-122493373D01*
X110693557Y-122323534D01*
X110693557Y-122323533D01*
X110777221Y-122167011D01*
X110777222Y-122167009D01*
X110817079Y-122118443D01*
X110889814Y-122029814D01*
X111002639Y-121937222D01*
X111027009Y-121917222D01*
X111044913Y-121907652D01*
X111183533Y-121833557D01*
X111240147Y-121816384D01*
X111353373Y-121782037D01*
X111419558Y-121775518D01*
X111485740Y-121769000D01*
X111574260Y-121769000D01*
X111640442Y-121775518D01*
X111640442Y-121775518D01*
G37*
G36*
X114180442Y-121775518D02*
X114246627Y-121782037D01*
X114359853Y-121816384D01*
X114416467Y-121833557D01*
X114555087Y-121907652D01*
X114572991Y-121917222D01*
X114597361Y-121937222D01*
X114710186Y-122029814D01*
X114782921Y-122118443D01*
X114822778Y-122167009D01*
X114822779Y-122167011D01*
X114906443Y-122323533D01*
X114906443Y-122323534D01*
X114957963Y-122493373D01*
X114975359Y-122670000D01*
X114957963Y-122846627D01*
X114923616Y-122959853D01*
X114906443Y-123016467D01*
X114878798Y-123068186D01*
X114822778Y-123172991D01*
X114806366Y-123192989D01*
X114710186Y-123310186D01*
X114608729Y-123393448D01*
X114572991Y-123422778D01*
X114572989Y-123422779D01*
X114416467Y-123506443D01*
X114359853Y-123523616D01*
X114246627Y-123557963D01*
X114180442Y-123564482D01*
X114114260Y-123571000D01*
X114025740Y-123571000D01*
X113959558Y-123564482D01*
X113893373Y-123557963D01*
X113780147Y-123523616D01*
X113723533Y-123506443D01*
X113567011Y-123422779D01*
X113567009Y-123422778D01*
X113531271Y-123393448D01*
X113429814Y-123310186D01*
X113333634Y-123192989D01*
X113317222Y-123172991D01*
X113261202Y-123068186D01*
X113233557Y-123016467D01*
X113216384Y-122959853D01*
X113182037Y-122846627D01*
X113164641Y-122670000D01*
X113182037Y-122493373D01*
X113233557Y-122323534D01*
X113233557Y-122323533D01*
X113317221Y-122167011D01*
X113317222Y-122167009D01*
X113357079Y-122118443D01*
X113429814Y-122029814D01*
X113542639Y-121937222D01*
X113567009Y-121917222D01*
X113584913Y-121907652D01*
X113723533Y-121833557D01*
X113780147Y-121816384D01*
X113893373Y-121782037D01*
X113959558Y-121775518D01*
X114025740Y-121769000D01*
X114114260Y-121769000D01*
X114180442Y-121775518D01*
X114180442Y-121775518D01*
G37*
G36*
X133235000Y-123329000D02*
X131433000Y-123329000D01*
X131433000Y-121527000D01*
X133235000Y-121527000D01*
X133235000Y-123329000D01*
X133235000Y-123329000D01*
G37*
G36*
X129904443Y-121533519D02*
X129970627Y-121540037D01*
X130083853Y-121574384D01*
X130140467Y-121591557D01*
X130245825Y-121647873D01*
X130296991Y-121675222D01*
X130325744Y-121698819D01*
X130434186Y-121787814D01*
X130517448Y-121889271D01*
X130546778Y-121925009D01*
X130553306Y-121937222D01*
X130630443Y-122081533D01*
X130630443Y-122081534D01*
X130681963Y-122251373D01*
X130699359Y-122428000D01*
X130681963Y-122604627D01*
X130662132Y-122670000D01*
X130630443Y-122774467D01*
X130591873Y-122846625D01*
X130546778Y-122930991D01*
X130517448Y-122966729D01*
X130434186Y-123068186D01*
X130332729Y-123151448D01*
X130296991Y-123180778D01*
X130296989Y-123180779D01*
X130140467Y-123264443D01*
X130083853Y-123281616D01*
X129970627Y-123315963D01*
X129904442Y-123322482D01*
X129838260Y-123329000D01*
X129749740Y-123329000D01*
X129683558Y-123322482D01*
X129617373Y-123315963D01*
X129504147Y-123281616D01*
X129447533Y-123264443D01*
X129291011Y-123180779D01*
X129291009Y-123180778D01*
X129255271Y-123151448D01*
X129153814Y-123068186D01*
X129070552Y-122966729D01*
X129041222Y-122930991D01*
X128996127Y-122846625D01*
X128957557Y-122774467D01*
X128925868Y-122670000D01*
X128906037Y-122604627D01*
X128888641Y-122428000D01*
X128906037Y-122251373D01*
X128957557Y-122081534D01*
X128957557Y-122081533D01*
X129034694Y-121937222D01*
X129041222Y-121925009D01*
X129070552Y-121889271D01*
X129153814Y-121787814D01*
X129262256Y-121698819D01*
X129291009Y-121675222D01*
X129342175Y-121647873D01*
X129447533Y-121591557D01*
X129504147Y-121574384D01*
X129617373Y-121540037D01*
X129683557Y-121533519D01*
X129749740Y-121527000D01*
X129838260Y-121527000D01*
X129904443Y-121533519D01*
X129904443Y-121533519D01*
G37*
G36*
X149898442Y-120387518D02*
X149964627Y-120394037D01*
X150077853Y-120428384D01*
X150134467Y-120445557D01*
X150229711Y-120496467D01*
X150290991Y-120529222D01*
X150326729Y-120558552D01*
X150428186Y-120641814D01*
X150511448Y-120743271D01*
X150540778Y-120779009D01*
X150540779Y-120779011D01*
X150624443Y-120935533D01*
X150624443Y-120935534D01*
X150675963Y-121105373D01*
X150693359Y-121282000D01*
X150675963Y-121458627D01*
X150647468Y-121552562D01*
X150624443Y-121628467D01*
X150550348Y-121767087D01*
X150540778Y-121784991D01*
X150511448Y-121820729D01*
X150428186Y-121922186D01*
X150326729Y-122005448D01*
X150290991Y-122034778D01*
X150290989Y-122034779D01*
X150134467Y-122118443D01*
X150077853Y-122135616D01*
X149964627Y-122169963D01*
X149898442Y-122176482D01*
X149832260Y-122183000D01*
X149743740Y-122183000D01*
X149677558Y-122176482D01*
X149611373Y-122169963D01*
X149498147Y-122135616D01*
X149441533Y-122118443D01*
X149285011Y-122034779D01*
X149285009Y-122034778D01*
X149249271Y-122005448D01*
X149147814Y-121922186D01*
X149064552Y-121820729D01*
X149035222Y-121784991D01*
X149025652Y-121767087D01*
X148951557Y-121628467D01*
X148928532Y-121552562D01*
X148900037Y-121458627D01*
X148882641Y-121282000D01*
X148900037Y-121105373D01*
X148951557Y-120935534D01*
X148951557Y-120935533D01*
X149035221Y-120779011D01*
X149035222Y-120779009D01*
X149064552Y-120743271D01*
X149147814Y-120641814D01*
X149249271Y-120558552D01*
X149285009Y-120529222D01*
X149346289Y-120496467D01*
X149441533Y-120445557D01*
X149498147Y-120428384D01*
X149611373Y-120394037D01*
X149677558Y-120387518D01*
X149743740Y-120381000D01*
X149832260Y-120381000D01*
X149898442Y-120387518D01*
X149898442Y-120387518D01*
G37*
G36*
X160312442Y-120387518D02*
X160378627Y-120394037D01*
X160491853Y-120428384D01*
X160548467Y-120445557D01*
X160643711Y-120496467D01*
X160704991Y-120529222D01*
X160740729Y-120558552D01*
X160842186Y-120641814D01*
X160925448Y-120743271D01*
X160954778Y-120779009D01*
X160954779Y-120779011D01*
X161038443Y-120935533D01*
X161038443Y-120935534D01*
X161089963Y-121105373D01*
X161107359Y-121282000D01*
X161089963Y-121458627D01*
X161061468Y-121552562D01*
X161038443Y-121628467D01*
X160964348Y-121767087D01*
X160954778Y-121784991D01*
X160925448Y-121820729D01*
X160842186Y-121922186D01*
X160740729Y-122005448D01*
X160704991Y-122034778D01*
X160704989Y-122034779D01*
X160548467Y-122118443D01*
X160491853Y-122135616D01*
X160378627Y-122169963D01*
X160312442Y-122176482D01*
X160246260Y-122183000D01*
X160157740Y-122183000D01*
X160091558Y-122176482D01*
X160025373Y-122169963D01*
X159912147Y-122135616D01*
X159855533Y-122118443D01*
X159699011Y-122034779D01*
X159699009Y-122034778D01*
X159663271Y-122005448D01*
X159561814Y-121922186D01*
X159478552Y-121820729D01*
X159449222Y-121784991D01*
X159439652Y-121767087D01*
X159365557Y-121628467D01*
X159342532Y-121552562D01*
X159314037Y-121458627D01*
X159296641Y-121282000D01*
X159314037Y-121105373D01*
X159365557Y-120935534D01*
X159365557Y-120935533D01*
X159449221Y-120779011D01*
X159449222Y-120779009D01*
X159478552Y-120743271D01*
X159561814Y-120641814D01*
X159663271Y-120558552D01*
X159699009Y-120529222D01*
X159760289Y-120496467D01*
X159855533Y-120445557D01*
X159912147Y-120428384D01*
X160025373Y-120394037D01*
X160091558Y-120387518D01*
X160157740Y-120381000D01*
X160246260Y-120381000D01*
X160312442Y-120387518D01*
X160312442Y-120387518D01*
G37*
G36*
X162852442Y-120387518D02*
X162918627Y-120394037D01*
X163031853Y-120428384D01*
X163088467Y-120445557D01*
X163183711Y-120496467D01*
X163244991Y-120529222D01*
X163280729Y-120558552D01*
X163382186Y-120641814D01*
X163465448Y-120743271D01*
X163494778Y-120779009D01*
X163494779Y-120779011D01*
X163578443Y-120935533D01*
X163578443Y-120935534D01*
X163629963Y-121105373D01*
X163647359Y-121282000D01*
X163629963Y-121458627D01*
X163601468Y-121552562D01*
X163578443Y-121628467D01*
X163504348Y-121767087D01*
X163494778Y-121784991D01*
X163465448Y-121820729D01*
X163382186Y-121922186D01*
X163280729Y-122005448D01*
X163244991Y-122034778D01*
X163244989Y-122034779D01*
X163088467Y-122118443D01*
X163031853Y-122135616D01*
X162918627Y-122169963D01*
X162852442Y-122176482D01*
X162786260Y-122183000D01*
X162697740Y-122183000D01*
X162631558Y-122176482D01*
X162565373Y-122169963D01*
X162452147Y-122135616D01*
X162395533Y-122118443D01*
X162239011Y-122034779D01*
X162239009Y-122034778D01*
X162203271Y-122005448D01*
X162101814Y-121922186D01*
X162018552Y-121820729D01*
X161989222Y-121784991D01*
X161979652Y-121767087D01*
X161905557Y-121628467D01*
X161882532Y-121552562D01*
X161854037Y-121458627D01*
X161836641Y-121282000D01*
X161854037Y-121105373D01*
X161905557Y-120935534D01*
X161905557Y-120935533D01*
X161989221Y-120779011D01*
X161989222Y-120779009D01*
X162018552Y-120743271D01*
X162101814Y-120641814D01*
X162203271Y-120558552D01*
X162239009Y-120529222D01*
X162300289Y-120496467D01*
X162395533Y-120445557D01*
X162452147Y-120428384D01*
X162565373Y-120394037D01*
X162631558Y-120387518D01*
X162697740Y-120381000D01*
X162786260Y-120381000D01*
X162852442Y-120387518D01*
X162852442Y-120387518D01*
G37*
G36*
X147358442Y-120387518D02*
X147424627Y-120394037D01*
X147537853Y-120428384D01*
X147594467Y-120445557D01*
X147689711Y-120496467D01*
X147750991Y-120529222D01*
X147786729Y-120558552D01*
X147888186Y-120641814D01*
X147971448Y-120743271D01*
X148000778Y-120779009D01*
X148000779Y-120779011D01*
X148084443Y-120935533D01*
X148084443Y-120935534D01*
X148135963Y-121105373D01*
X148153359Y-121282000D01*
X148135963Y-121458627D01*
X148107468Y-121552562D01*
X148084443Y-121628467D01*
X148010348Y-121767087D01*
X148000778Y-121784991D01*
X147971448Y-121820729D01*
X147888186Y-121922186D01*
X147786729Y-122005448D01*
X147750991Y-122034778D01*
X147750989Y-122034779D01*
X147594467Y-122118443D01*
X147537853Y-122135616D01*
X147424627Y-122169963D01*
X147358442Y-122176482D01*
X147292260Y-122183000D01*
X147203740Y-122183000D01*
X147137558Y-122176482D01*
X147071373Y-122169963D01*
X146958147Y-122135616D01*
X146901533Y-122118443D01*
X146745011Y-122034779D01*
X146745009Y-122034778D01*
X146709271Y-122005448D01*
X146607814Y-121922186D01*
X146524552Y-121820729D01*
X146495222Y-121784991D01*
X146485652Y-121767087D01*
X146411557Y-121628467D01*
X146388532Y-121552562D01*
X146360037Y-121458627D01*
X146342641Y-121282000D01*
X146360037Y-121105373D01*
X146411557Y-120935534D01*
X146411557Y-120935533D01*
X146495221Y-120779011D01*
X146495222Y-120779009D01*
X146524552Y-120743271D01*
X146607814Y-120641814D01*
X146709271Y-120558552D01*
X146745009Y-120529222D01*
X146806289Y-120496467D01*
X146901533Y-120445557D01*
X146958147Y-120428384D01*
X147071373Y-120394037D01*
X147137558Y-120387518D01*
X147203740Y-120381000D01*
X147292260Y-120381000D01*
X147358442Y-120387518D01*
X147358442Y-120387518D01*
G37*
G36*
X136666562Y-119855181D02*
X136701477Y-119865773D01*
X136733665Y-119882978D01*
X136761873Y-119906127D01*
X136785022Y-119934335D01*
X136802227Y-119966523D01*
X136812819Y-120001438D01*
X136817000Y-120043895D01*
X136817000Y-121510105D01*
X136812819Y-121552562D01*
X136802227Y-121587477D01*
X136785022Y-121619665D01*
X136761873Y-121647873D01*
X136733665Y-121671022D01*
X136701477Y-121688227D01*
X136666562Y-121698819D01*
X136624105Y-121703000D01*
X135482895Y-121703000D01*
X135440438Y-121698819D01*
X135405523Y-121688227D01*
X135373335Y-121671022D01*
X135345127Y-121647873D01*
X135321978Y-121619665D01*
X135304773Y-121587477D01*
X135294181Y-121552562D01*
X135290000Y-121510105D01*
X135290000Y-120043895D01*
X135294181Y-120001438D01*
X135304773Y-119966523D01*
X135321978Y-119934335D01*
X135345127Y-119906127D01*
X135373335Y-119882978D01*
X135405523Y-119865773D01*
X135440438Y-119855181D01*
X135482895Y-119851000D01*
X136624105Y-119851000D01*
X136666562Y-119855181D01*
X136666562Y-119855181D01*
G37*
G36*
X139641562Y-119855181D02*
X139676477Y-119865773D01*
X139708665Y-119882978D01*
X139736873Y-119906127D01*
X139760022Y-119934335D01*
X139777227Y-119966523D01*
X139787819Y-120001438D01*
X139792000Y-120043895D01*
X139792000Y-121510105D01*
X139787819Y-121552562D01*
X139777227Y-121587477D01*
X139760022Y-121619665D01*
X139736873Y-121647873D01*
X139708665Y-121671022D01*
X139676477Y-121688227D01*
X139641562Y-121698819D01*
X139599105Y-121703000D01*
X138457895Y-121703000D01*
X138415438Y-121698819D01*
X138380523Y-121688227D01*
X138348335Y-121671022D01*
X138320127Y-121647873D01*
X138296978Y-121619665D01*
X138279773Y-121587477D01*
X138269181Y-121552562D01*
X138265000Y-121510105D01*
X138265000Y-120043895D01*
X138269181Y-120001438D01*
X138279773Y-119966523D01*
X138296978Y-119934335D01*
X138320127Y-119906127D01*
X138348335Y-119882978D01*
X138380523Y-119865773D01*
X138415438Y-119855181D01*
X138457895Y-119851000D01*
X139599105Y-119851000D01*
X139641562Y-119855181D01*
X139641562Y-119855181D01*
G37*
G36*
X97161000Y-121051000D02*
X95359000Y-121051000D01*
X95359000Y-119249000D01*
X97161000Y-119249000D01*
X97161000Y-121051000D01*
X97161000Y-121051000D01*
G37*
G36*
X93830442Y-119255518D02*
X93896627Y-119262037D01*
X94000535Y-119293557D01*
X94066467Y-119313557D01*
X94185572Y-119377221D01*
X94222991Y-119397222D01*
X94258729Y-119426552D01*
X94360186Y-119509814D01*
X94433500Y-119599149D01*
X94472778Y-119647009D01*
X94472779Y-119647011D01*
X94556443Y-119803533D01*
X94570842Y-119851000D01*
X94607963Y-119973373D01*
X94625359Y-120150000D01*
X94607963Y-120326627D01*
X94591469Y-120381000D01*
X94556443Y-120496467D01*
X94483469Y-120632989D01*
X94472778Y-120652991D01*
X94443448Y-120688729D01*
X94360186Y-120790186D01*
X94258729Y-120873448D01*
X94222991Y-120902778D01*
X94222989Y-120902779D01*
X94066467Y-120986443D01*
X94009853Y-121003616D01*
X93896627Y-121037963D01*
X93830442Y-121044482D01*
X93764260Y-121051000D01*
X93675740Y-121051000D01*
X93609558Y-121044482D01*
X93543373Y-121037963D01*
X93430147Y-121003616D01*
X93373533Y-120986443D01*
X93217011Y-120902779D01*
X93217009Y-120902778D01*
X93181271Y-120873448D01*
X93079814Y-120790186D01*
X92996552Y-120688729D01*
X92967222Y-120652991D01*
X92956531Y-120632989D01*
X92883557Y-120496467D01*
X92848531Y-120381000D01*
X92832037Y-120326627D01*
X92814641Y-120150000D01*
X92832037Y-119973373D01*
X92869158Y-119851000D01*
X92883557Y-119803533D01*
X92967221Y-119647011D01*
X92967222Y-119647009D01*
X93006500Y-119599149D01*
X93079814Y-119509814D01*
X93181271Y-119426552D01*
X93217009Y-119397222D01*
X93254428Y-119377221D01*
X93373533Y-119313557D01*
X93439465Y-119293557D01*
X93543373Y-119262037D01*
X93609558Y-119255518D01*
X93675740Y-119249000D01*
X93764260Y-119249000D01*
X93830442Y-119255518D01*
X93830442Y-119255518D01*
G37*
G36*
X111640443Y-119235519D02*
X111706627Y-119242037D01*
X111819853Y-119276384D01*
X111876467Y-119293557D01*
X112015087Y-119367652D01*
X112032991Y-119377222D01*
X112057361Y-119397222D01*
X112170186Y-119489814D01*
X112242921Y-119578443D01*
X112282778Y-119627009D01*
X112282779Y-119627011D01*
X112366443Y-119783533D01*
X112366443Y-119783534D01*
X112417963Y-119953373D01*
X112435359Y-120130000D01*
X112417963Y-120306627D01*
X112383616Y-120419853D01*
X112366443Y-120476467D01*
X112338245Y-120529221D01*
X112282778Y-120632991D01*
X112275537Y-120641814D01*
X112170186Y-120770186D01*
X112068729Y-120853448D01*
X112032991Y-120882778D01*
X112032989Y-120882779D01*
X111876467Y-120966443D01*
X111819853Y-120983616D01*
X111706627Y-121017963D01*
X111640442Y-121024482D01*
X111574260Y-121031000D01*
X111485740Y-121031000D01*
X111419558Y-121024482D01*
X111353373Y-121017963D01*
X111240147Y-120983616D01*
X111183533Y-120966443D01*
X111027011Y-120882779D01*
X111027009Y-120882778D01*
X110991271Y-120853448D01*
X110889814Y-120770186D01*
X110784463Y-120641814D01*
X110777222Y-120632991D01*
X110721755Y-120529221D01*
X110693557Y-120476467D01*
X110676384Y-120419853D01*
X110642037Y-120306627D01*
X110624641Y-120130000D01*
X110642037Y-119953373D01*
X110693557Y-119783534D01*
X110693557Y-119783533D01*
X110777221Y-119627011D01*
X110777222Y-119627009D01*
X110817079Y-119578443D01*
X110889814Y-119489814D01*
X111002639Y-119397222D01*
X111027009Y-119377222D01*
X111044913Y-119367652D01*
X111183533Y-119293557D01*
X111240147Y-119276384D01*
X111353373Y-119242037D01*
X111419557Y-119235519D01*
X111485740Y-119229000D01*
X111574260Y-119229000D01*
X111640443Y-119235519D01*
X111640443Y-119235519D01*
G37*
G36*
X114971000Y-121031000D02*
X113169000Y-121031000D01*
X113169000Y-119229000D01*
X114971000Y-119229000D01*
X114971000Y-121031000D01*
X114971000Y-121031000D01*
G37*
G36*
X169295562Y-117966961D02*
X169330477Y-117977553D01*
X169362665Y-117994758D01*
X169390873Y-118017907D01*
X169414022Y-118046115D01*
X169431227Y-118078303D01*
X169441819Y-118113218D01*
X169446000Y-118155675D01*
X169446000Y-119621885D01*
X169441819Y-119664342D01*
X169431227Y-119699257D01*
X169414022Y-119731445D01*
X169390873Y-119759653D01*
X169362665Y-119782802D01*
X169330477Y-119800007D01*
X169295562Y-119810599D01*
X169253105Y-119814780D01*
X168111895Y-119814780D01*
X168069438Y-119810599D01*
X168034523Y-119800007D01*
X168002335Y-119782802D01*
X167974127Y-119759653D01*
X167950978Y-119731445D01*
X167933773Y-119699257D01*
X167923181Y-119664342D01*
X167919000Y-119621885D01*
X167919000Y-118155675D01*
X167923181Y-118113218D01*
X167933773Y-118078303D01*
X167950978Y-118046115D01*
X167974127Y-118017907D01*
X168002335Y-117994758D01*
X168034523Y-117977553D01*
X168069438Y-117966961D01*
X168111895Y-117962780D01*
X169253105Y-117962780D01*
X169295562Y-117966961D01*
X169295562Y-117966961D01*
G37*
G36*
X172270562Y-117966961D02*
X172305477Y-117977553D01*
X172337665Y-117994758D01*
X172365873Y-118017907D01*
X172389022Y-118046115D01*
X172406227Y-118078303D01*
X172416819Y-118113218D01*
X172421000Y-118155675D01*
X172421000Y-119621885D01*
X172416819Y-119664342D01*
X172406227Y-119699257D01*
X172389022Y-119731445D01*
X172365873Y-119759653D01*
X172337665Y-119782802D01*
X172305477Y-119800007D01*
X172270562Y-119810599D01*
X172228105Y-119814780D01*
X171086895Y-119814780D01*
X171044438Y-119810599D01*
X171009523Y-119800007D01*
X170977335Y-119782802D01*
X170949127Y-119759653D01*
X170925978Y-119731445D01*
X170908773Y-119699257D01*
X170898181Y-119664342D01*
X170894000Y-119621885D01*
X170894000Y-118155675D01*
X170898181Y-118113218D01*
X170908773Y-118078303D01*
X170925978Y-118046115D01*
X170949127Y-118017907D01*
X170977335Y-117994758D01*
X171009523Y-117977553D01*
X171044438Y-117966961D01*
X171086895Y-117962780D01*
X172228105Y-117962780D01*
X172270562Y-117966961D01*
X172270562Y-117966961D01*
G37*
G36*
X160312443Y-117847519D02*
X160378627Y-117854037D01*
X160491853Y-117888384D01*
X160548467Y-117905557D01*
X160655522Y-117962780D01*
X160704991Y-117989222D01*
X160727784Y-118007928D01*
X160842186Y-118101814D01*
X160925448Y-118203271D01*
X160954778Y-118239009D01*
X160954779Y-118239011D01*
X161038443Y-118395533D01*
X161038443Y-118395534D01*
X161089963Y-118565373D01*
X161107359Y-118742000D01*
X161089963Y-118918627D01*
X161055616Y-119031853D01*
X161038443Y-119088467D01*
X160964348Y-119227087D01*
X160954778Y-119244991D01*
X160925448Y-119280729D01*
X160842186Y-119382186D01*
X160740729Y-119465448D01*
X160704991Y-119494778D01*
X160704989Y-119494779D01*
X160548467Y-119578443D01*
X160491853Y-119595616D01*
X160378627Y-119629963D01*
X160312443Y-119636481D01*
X160246260Y-119643000D01*
X160157740Y-119643000D01*
X160091557Y-119636481D01*
X160025373Y-119629963D01*
X159912147Y-119595616D01*
X159855533Y-119578443D01*
X159699011Y-119494779D01*
X159699009Y-119494778D01*
X159663271Y-119465448D01*
X159561814Y-119382186D01*
X159478552Y-119280729D01*
X159449222Y-119244991D01*
X159439652Y-119227087D01*
X159365557Y-119088467D01*
X159348384Y-119031853D01*
X159314037Y-118918627D01*
X159296641Y-118742000D01*
X159314037Y-118565373D01*
X159365557Y-118395534D01*
X159365557Y-118395533D01*
X159449221Y-118239011D01*
X159449222Y-118239009D01*
X159478552Y-118203271D01*
X159561814Y-118101814D01*
X159676216Y-118007928D01*
X159699009Y-117989222D01*
X159748478Y-117962780D01*
X159855533Y-117905557D01*
X159912147Y-117888384D01*
X160025373Y-117854037D01*
X160091557Y-117847519D01*
X160157740Y-117841000D01*
X160246260Y-117841000D01*
X160312443Y-117847519D01*
X160312443Y-117847519D01*
G37*
G36*
X162852443Y-117847519D02*
X162918627Y-117854037D01*
X163031853Y-117888384D01*
X163088467Y-117905557D01*
X163195522Y-117962780D01*
X163244991Y-117989222D01*
X163267784Y-118007928D01*
X163382186Y-118101814D01*
X163465448Y-118203271D01*
X163494778Y-118239009D01*
X163494779Y-118239011D01*
X163578443Y-118395533D01*
X163578443Y-118395534D01*
X163629963Y-118565373D01*
X163647359Y-118742000D01*
X163629963Y-118918627D01*
X163595616Y-119031853D01*
X163578443Y-119088467D01*
X163504348Y-119227087D01*
X163494778Y-119244991D01*
X163465448Y-119280729D01*
X163382186Y-119382186D01*
X163280729Y-119465448D01*
X163244991Y-119494778D01*
X163244989Y-119494779D01*
X163088467Y-119578443D01*
X163031853Y-119595616D01*
X162918627Y-119629963D01*
X162852443Y-119636481D01*
X162786260Y-119643000D01*
X162697740Y-119643000D01*
X162631557Y-119636481D01*
X162565373Y-119629963D01*
X162452147Y-119595616D01*
X162395533Y-119578443D01*
X162239011Y-119494779D01*
X162239009Y-119494778D01*
X162203271Y-119465448D01*
X162101814Y-119382186D01*
X162018552Y-119280729D01*
X161989222Y-119244991D01*
X161979652Y-119227087D01*
X161905557Y-119088467D01*
X161888384Y-119031853D01*
X161854037Y-118918627D01*
X161836641Y-118742000D01*
X161854037Y-118565373D01*
X161905557Y-118395534D01*
X161905557Y-118395533D01*
X161989221Y-118239011D01*
X161989222Y-118239009D01*
X162018552Y-118203271D01*
X162101814Y-118101814D01*
X162216216Y-118007928D01*
X162239009Y-117989222D01*
X162288478Y-117962780D01*
X162395533Y-117905557D01*
X162452147Y-117888384D01*
X162565373Y-117854037D01*
X162631557Y-117847519D01*
X162697740Y-117841000D01*
X162786260Y-117841000D01*
X162852443Y-117847519D01*
X162852443Y-117847519D01*
G37*
G36*
X147358443Y-117847519D02*
X147424627Y-117854037D01*
X147537853Y-117888384D01*
X147594467Y-117905557D01*
X147701522Y-117962780D01*
X147750991Y-117989222D01*
X147773784Y-118007928D01*
X147888186Y-118101814D01*
X147971448Y-118203271D01*
X148000778Y-118239009D01*
X148000779Y-118239011D01*
X148084443Y-118395533D01*
X148084443Y-118395534D01*
X148135963Y-118565373D01*
X148153359Y-118742000D01*
X148135963Y-118918627D01*
X148101616Y-119031853D01*
X148084443Y-119088467D01*
X148010348Y-119227087D01*
X148000778Y-119244991D01*
X147971448Y-119280729D01*
X147888186Y-119382186D01*
X147786729Y-119465448D01*
X147750991Y-119494778D01*
X147750989Y-119494779D01*
X147594467Y-119578443D01*
X147537853Y-119595616D01*
X147424627Y-119629963D01*
X147358443Y-119636481D01*
X147292260Y-119643000D01*
X147203740Y-119643000D01*
X147137557Y-119636481D01*
X147071373Y-119629963D01*
X146958147Y-119595616D01*
X146901533Y-119578443D01*
X146745011Y-119494779D01*
X146745009Y-119494778D01*
X146709271Y-119465448D01*
X146607814Y-119382186D01*
X146524552Y-119280729D01*
X146495222Y-119244991D01*
X146485652Y-119227087D01*
X146411557Y-119088467D01*
X146394384Y-119031853D01*
X146360037Y-118918627D01*
X146342641Y-118742000D01*
X146360037Y-118565373D01*
X146411557Y-118395534D01*
X146411557Y-118395533D01*
X146495221Y-118239011D01*
X146495222Y-118239009D01*
X146524552Y-118203271D01*
X146607814Y-118101814D01*
X146722216Y-118007928D01*
X146745009Y-117989222D01*
X146794478Y-117962780D01*
X146901533Y-117905557D01*
X146958147Y-117888384D01*
X147071373Y-117854037D01*
X147137557Y-117847519D01*
X147203740Y-117841000D01*
X147292260Y-117841000D01*
X147358443Y-117847519D01*
X147358443Y-117847519D01*
G37*
G36*
X149898443Y-117847519D02*
X149964627Y-117854037D01*
X150077853Y-117888384D01*
X150134467Y-117905557D01*
X150241522Y-117962780D01*
X150290991Y-117989222D01*
X150313784Y-118007928D01*
X150428186Y-118101814D01*
X150511448Y-118203271D01*
X150540778Y-118239009D01*
X150540779Y-118239011D01*
X150624443Y-118395533D01*
X150624443Y-118395534D01*
X150675963Y-118565373D01*
X150693359Y-118742000D01*
X150675963Y-118918627D01*
X150641616Y-119031853D01*
X150624443Y-119088467D01*
X150550348Y-119227087D01*
X150540778Y-119244991D01*
X150511448Y-119280729D01*
X150428186Y-119382186D01*
X150326729Y-119465448D01*
X150290991Y-119494778D01*
X150290989Y-119494779D01*
X150134467Y-119578443D01*
X150077853Y-119595616D01*
X149964627Y-119629963D01*
X149898443Y-119636481D01*
X149832260Y-119643000D01*
X149743740Y-119643000D01*
X149677557Y-119636481D01*
X149611373Y-119629963D01*
X149498147Y-119595616D01*
X149441533Y-119578443D01*
X149285011Y-119494779D01*
X149285009Y-119494778D01*
X149249271Y-119465448D01*
X149147814Y-119382186D01*
X149064552Y-119280729D01*
X149035222Y-119244991D01*
X149025652Y-119227087D01*
X148951557Y-119088467D01*
X148934384Y-119031853D01*
X148900037Y-118918627D01*
X148882641Y-118742000D01*
X148900037Y-118565373D01*
X148951557Y-118395534D01*
X148951557Y-118395533D01*
X149035221Y-118239011D01*
X149035222Y-118239009D01*
X149064552Y-118203271D01*
X149147814Y-118101814D01*
X149262216Y-118007928D01*
X149285009Y-117989222D01*
X149334478Y-117962780D01*
X149441533Y-117905557D01*
X149498147Y-117888384D01*
X149611373Y-117854037D01*
X149677557Y-117847519D01*
X149743740Y-117841000D01*
X149832260Y-117841000D01*
X149898443Y-117847519D01*
X149898443Y-117847519D01*
G37*
G36*
X130443562Y-115918181D02*
X130478477Y-115928773D01*
X130510665Y-115945978D01*
X130538873Y-115969127D01*
X130562022Y-115997335D01*
X130579227Y-116029523D01*
X130589819Y-116064438D01*
X130594000Y-116106895D01*
X130594000Y-117573105D01*
X130589819Y-117615562D01*
X130579227Y-117650477D01*
X130562022Y-117682665D01*
X130538873Y-117710873D01*
X130510665Y-117734022D01*
X130478477Y-117751227D01*
X130443562Y-117761819D01*
X130401105Y-117766000D01*
X129259895Y-117766000D01*
X129217438Y-117761819D01*
X129182523Y-117751227D01*
X129150335Y-117734022D01*
X129122127Y-117710873D01*
X129098978Y-117682665D01*
X129081773Y-117650477D01*
X129071181Y-117615562D01*
X129067000Y-117573105D01*
X129067000Y-116106895D01*
X129071181Y-116064438D01*
X129081773Y-116029523D01*
X129098978Y-115997335D01*
X129122127Y-115969127D01*
X129150335Y-115945978D01*
X129182523Y-115928773D01*
X129217438Y-115918181D01*
X129259895Y-115914000D01*
X130401105Y-115914000D01*
X130443562Y-115918181D01*
X130443562Y-115918181D01*
G37*
G36*
X133418562Y-115918181D02*
X133453477Y-115928773D01*
X133485665Y-115945978D01*
X133513873Y-115969127D01*
X133537022Y-115997335D01*
X133554227Y-116029523D01*
X133564819Y-116064438D01*
X133569000Y-116106895D01*
X133569000Y-117573105D01*
X133564819Y-117615562D01*
X133554227Y-117650477D01*
X133537022Y-117682665D01*
X133513873Y-117710873D01*
X133485665Y-117734022D01*
X133453477Y-117751227D01*
X133418562Y-117761819D01*
X133376105Y-117766000D01*
X132234895Y-117766000D01*
X132192438Y-117761819D01*
X132157523Y-117751227D01*
X132125335Y-117734022D01*
X132097127Y-117710873D01*
X132073978Y-117682665D01*
X132056773Y-117650477D01*
X132046181Y-117615562D01*
X132042000Y-117573105D01*
X132042000Y-116106895D01*
X132046181Y-116064438D01*
X132056773Y-116029523D01*
X132073978Y-115997335D01*
X132097127Y-115969127D01*
X132125335Y-115945978D01*
X132157523Y-115928773D01*
X132192438Y-115918181D01*
X132234895Y-115914000D01*
X133376105Y-115914000D01*
X133418562Y-115918181D01*
X133418562Y-115918181D01*
G37*
G36*
X162852443Y-115307519D02*
X162918627Y-115314037D01*
X163031853Y-115348384D01*
X163088467Y-115365557D01*
X163227087Y-115439652D01*
X163244991Y-115449222D01*
X163280729Y-115478552D01*
X163382186Y-115561814D01*
X163465448Y-115663271D01*
X163494778Y-115699009D01*
X163494779Y-115699011D01*
X163578443Y-115855533D01*
X163578443Y-115855534D01*
X163629963Y-116025373D01*
X163647359Y-116202000D01*
X163629963Y-116378627D01*
X163595616Y-116491853D01*
X163578443Y-116548467D01*
X163504348Y-116687087D01*
X163494778Y-116704991D01*
X163465448Y-116740729D01*
X163382186Y-116842186D01*
X163280729Y-116925448D01*
X163244991Y-116954778D01*
X163244989Y-116954779D01*
X163088467Y-117038443D01*
X163031853Y-117055616D01*
X162918627Y-117089963D01*
X162852443Y-117096481D01*
X162786260Y-117103000D01*
X162697740Y-117103000D01*
X162631557Y-117096481D01*
X162565373Y-117089963D01*
X162452147Y-117055616D01*
X162395533Y-117038443D01*
X162239011Y-116954779D01*
X162239009Y-116954778D01*
X162203271Y-116925448D01*
X162101814Y-116842186D01*
X162018552Y-116740729D01*
X161989222Y-116704991D01*
X161979652Y-116687087D01*
X161905557Y-116548467D01*
X161888384Y-116491853D01*
X161854037Y-116378627D01*
X161836641Y-116202000D01*
X161854037Y-116025373D01*
X161905557Y-115855534D01*
X161905557Y-115855533D01*
X161989221Y-115699011D01*
X161989222Y-115699009D01*
X162018552Y-115663271D01*
X162101814Y-115561814D01*
X162203271Y-115478552D01*
X162239009Y-115449222D01*
X162256913Y-115439652D01*
X162395533Y-115365557D01*
X162452147Y-115348384D01*
X162565373Y-115314037D01*
X162631557Y-115307519D01*
X162697740Y-115301000D01*
X162786260Y-115301000D01*
X162852443Y-115307519D01*
X162852443Y-115307519D01*
G37*
G36*
X160312443Y-115307519D02*
X160378627Y-115314037D01*
X160491853Y-115348384D01*
X160548467Y-115365557D01*
X160687087Y-115439652D01*
X160704991Y-115449222D01*
X160740729Y-115478552D01*
X160842186Y-115561814D01*
X160925448Y-115663271D01*
X160954778Y-115699009D01*
X160954779Y-115699011D01*
X161038443Y-115855533D01*
X161038443Y-115855534D01*
X161089963Y-116025373D01*
X161107359Y-116202000D01*
X161089963Y-116378627D01*
X161055616Y-116491853D01*
X161038443Y-116548467D01*
X160964348Y-116687087D01*
X160954778Y-116704991D01*
X160925448Y-116740729D01*
X160842186Y-116842186D01*
X160740729Y-116925448D01*
X160704991Y-116954778D01*
X160704989Y-116954779D01*
X160548467Y-117038443D01*
X160491853Y-117055616D01*
X160378627Y-117089963D01*
X160312443Y-117096481D01*
X160246260Y-117103000D01*
X160157740Y-117103000D01*
X160091557Y-117096481D01*
X160025373Y-117089963D01*
X159912147Y-117055616D01*
X159855533Y-117038443D01*
X159699011Y-116954779D01*
X159699009Y-116954778D01*
X159663271Y-116925448D01*
X159561814Y-116842186D01*
X159478552Y-116740729D01*
X159449222Y-116704991D01*
X159439652Y-116687087D01*
X159365557Y-116548467D01*
X159348384Y-116491853D01*
X159314037Y-116378627D01*
X159296641Y-116202000D01*
X159314037Y-116025373D01*
X159365557Y-115855534D01*
X159365557Y-115855533D01*
X159449221Y-115699011D01*
X159449222Y-115699009D01*
X159478552Y-115663271D01*
X159561814Y-115561814D01*
X159663271Y-115478552D01*
X159699009Y-115449222D01*
X159716913Y-115439652D01*
X159855533Y-115365557D01*
X159912147Y-115348384D01*
X160025373Y-115314037D01*
X160091557Y-115307519D01*
X160157740Y-115301000D01*
X160246260Y-115301000D01*
X160312443Y-115307519D01*
X160312443Y-115307519D01*
G37*
G36*
X149898443Y-115307519D02*
X149964627Y-115314037D01*
X150077853Y-115348384D01*
X150134467Y-115365557D01*
X150273087Y-115439652D01*
X150290991Y-115449222D01*
X150326729Y-115478552D01*
X150428186Y-115561814D01*
X150511448Y-115663271D01*
X150540778Y-115699009D01*
X150540779Y-115699011D01*
X150624443Y-115855533D01*
X150624443Y-115855534D01*
X150675963Y-116025373D01*
X150693359Y-116202000D01*
X150675963Y-116378627D01*
X150641616Y-116491853D01*
X150624443Y-116548467D01*
X150550348Y-116687087D01*
X150540778Y-116704991D01*
X150511448Y-116740729D01*
X150428186Y-116842186D01*
X150326729Y-116925448D01*
X150290991Y-116954778D01*
X150290989Y-116954779D01*
X150134467Y-117038443D01*
X150077853Y-117055616D01*
X149964627Y-117089963D01*
X149898443Y-117096481D01*
X149832260Y-117103000D01*
X149743740Y-117103000D01*
X149677557Y-117096481D01*
X149611373Y-117089963D01*
X149498147Y-117055616D01*
X149441533Y-117038443D01*
X149285011Y-116954779D01*
X149285009Y-116954778D01*
X149249271Y-116925448D01*
X149147814Y-116842186D01*
X149064552Y-116740729D01*
X149035222Y-116704991D01*
X149025652Y-116687087D01*
X148951557Y-116548467D01*
X148934384Y-116491853D01*
X148900037Y-116378627D01*
X148882641Y-116202000D01*
X148900037Y-116025373D01*
X148951557Y-115855534D01*
X148951557Y-115855533D01*
X149035221Y-115699011D01*
X149035222Y-115699009D01*
X149064552Y-115663271D01*
X149147814Y-115561814D01*
X149249271Y-115478552D01*
X149285009Y-115449222D01*
X149302913Y-115439652D01*
X149441533Y-115365557D01*
X149498147Y-115348384D01*
X149611373Y-115314037D01*
X149677557Y-115307519D01*
X149743740Y-115301000D01*
X149832260Y-115301000D01*
X149898443Y-115307519D01*
X149898443Y-115307519D01*
G37*
G36*
X147358443Y-115307519D02*
X147424627Y-115314037D01*
X147537853Y-115348384D01*
X147594467Y-115365557D01*
X147733087Y-115439652D01*
X147750991Y-115449222D01*
X147786729Y-115478552D01*
X147888186Y-115561814D01*
X147971448Y-115663271D01*
X148000778Y-115699009D01*
X148000779Y-115699011D01*
X148084443Y-115855533D01*
X148084443Y-115855534D01*
X148135963Y-116025373D01*
X148153359Y-116202000D01*
X148135963Y-116378627D01*
X148101616Y-116491853D01*
X148084443Y-116548467D01*
X148010348Y-116687087D01*
X148000778Y-116704991D01*
X147971448Y-116740729D01*
X147888186Y-116842186D01*
X147786729Y-116925448D01*
X147750991Y-116954778D01*
X147750989Y-116954779D01*
X147594467Y-117038443D01*
X147537853Y-117055616D01*
X147424627Y-117089963D01*
X147358443Y-117096481D01*
X147292260Y-117103000D01*
X147203740Y-117103000D01*
X147137557Y-117096481D01*
X147071373Y-117089963D01*
X146958147Y-117055616D01*
X146901533Y-117038443D01*
X146745011Y-116954779D01*
X146745009Y-116954778D01*
X146709271Y-116925448D01*
X146607814Y-116842186D01*
X146524552Y-116740729D01*
X146495222Y-116704991D01*
X146485652Y-116687087D01*
X146411557Y-116548467D01*
X146394384Y-116491853D01*
X146360037Y-116378627D01*
X146342641Y-116202000D01*
X146360037Y-116025373D01*
X146411557Y-115855534D01*
X146411557Y-115855533D01*
X146495221Y-115699011D01*
X146495222Y-115699009D01*
X146524552Y-115663271D01*
X146607814Y-115561814D01*
X146709271Y-115478552D01*
X146745009Y-115449222D01*
X146762913Y-115439652D01*
X146901533Y-115365557D01*
X146958147Y-115348384D01*
X147071373Y-115314037D01*
X147137557Y-115307519D01*
X147203740Y-115301000D01*
X147292260Y-115301000D01*
X147358443Y-115307519D01*
X147358443Y-115307519D01*
G37*
G36*
X171688677Y-113701245D02*
X171726364Y-113712678D01*
X171761103Y-113731246D01*
X171791548Y-113756232D01*
X171816534Y-113786677D01*
X171835102Y-113821416D01*
X171846535Y-113859103D01*
X171851000Y-113904441D01*
X171851000Y-114991119D01*
X171846535Y-115036457D01*
X171835102Y-115074144D01*
X171816534Y-115108883D01*
X171791548Y-115139328D01*
X171761103Y-115164314D01*
X171726364Y-115182882D01*
X171688677Y-115194315D01*
X171643339Y-115198780D01*
X170806661Y-115198780D01*
X170761323Y-115194315D01*
X170723636Y-115182882D01*
X170688897Y-115164314D01*
X170658452Y-115139328D01*
X170633466Y-115108883D01*
X170614898Y-115074144D01*
X170603465Y-115036457D01*
X170599000Y-114991119D01*
X170599000Y-113904441D01*
X170603465Y-113859103D01*
X170614898Y-113821416D01*
X170633466Y-113786677D01*
X170658452Y-113756232D01*
X170688897Y-113731246D01*
X170723636Y-113712678D01*
X170761323Y-113701245D01*
X170806661Y-113696780D01*
X171643339Y-113696780D01*
X171688677Y-113701245D01*
X171688677Y-113701245D01*
G37*
G36*
X169638677Y-113701245D02*
X169676364Y-113712678D01*
X169711103Y-113731246D01*
X169741548Y-113756232D01*
X169766534Y-113786677D01*
X169785102Y-113821416D01*
X169796535Y-113859103D01*
X169801000Y-113904441D01*
X169801000Y-114991119D01*
X169796535Y-115036457D01*
X169785102Y-115074144D01*
X169766534Y-115108883D01*
X169741548Y-115139328D01*
X169711103Y-115164314D01*
X169676364Y-115182882D01*
X169638677Y-115194315D01*
X169593339Y-115198780D01*
X168756661Y-115198780D01*
X168711323Y-115194315D01*
X168673636Y-115182882D01*
X168638897Y-115164314D01*
X168608452Y-115139328D01*
X168583466Y-115108883D01*
X168564898Y-115074144D01*
X168553465Y-115036457D01*
X168549000Y-114991119D01*
X168549000Y-113904441D01*
X168553465Y-113859103D01*
X168564898Y-113821416D01*
X168583466Y-113786677D01*
X168608452Y-113756232D01*
X168638897Y-113731246D01*
X168673636Y-113712678D01*
X168711323Y-113701245D01*
X168756661Y-113696780D01*
X169593339Y-113696780D01*
X169638677Y-113701245D01*
X169638677Y-113701245D01*
G37*
G36*
X160312443Y-112767519D02*
X160378627Y-112774037D01*
X160491853Y-112808384D01*
X160548467Y-112825557D01*
X160677970Y-112894779D01*
X160704991Y-112909222D01*
X160712086Y-112915045D01*
X160842186Y-113021814D01*
X160925448Y-113123271D01*
X160954778Y-113159009D01*
X160954779Y-113159011D01*
X161038443Y-113315533D01*
X161038443Y-113315534D01*
X161089963Y-113485373D01*
X161107359Y-113662000D01*
X161089963Y-113838627D01*
X161066536Y-113915855D01*
X161038443Y-114008467D01*
X160979761Y-114118252D01*
X160954778Y-114164991D01*
X160951233Y-114169310D01*
X160842186Y-114302186D01*
X160740729Y-114385448D01*
X160704991Y-114414778D01*
X160704989Y-114414779D01*
X160548467Y-114498443D01*
X160491853Y-114515616D01*
X160378627Y-114549963D01*
X160312443Y-114556481D01*
X160246260Y-114563000D01*
X160157740Y-114563000D01*
X160091557Y-114556481D01*
X160025373Y-114549963D01*
X159912147Y-114515616D01*
X159855533Y-114498443D01*
X159699011Y-114414779D01*
X159699009Y-114414778D01*
X159663271Y-114385448D01*
X159561814Y-114302186D01*
X159452767Y-114169310D01*
X159449222Y-114164991D01*
X159424239Y-114118252D01*
X159365557Y-114008467D01*
X159337464Y-113915855D01*
X159314037Y-113838627D01*
X159296641Y-113662000D01*
X159314037Y-113485373D01*
X159365557Y-113315534D01*
X159365557Y-113315533D01*
X159449221Y-113159011D01*
X159449222Y-113159009D01*
X159478552Y-113123271D01*
X159561814Y-113021814D01*
X159691914Y-112915045D01*
X159699009Y-112909222D01*
X159726030Y-112894779D01*
X159855533Y-112825557D01*
X159912147Y-112808384D01*
X160025373Y-112774037D01*
X160091557Y-112767519D01*
X160157740Y-112761000D01*
X160246260Y-112761000D01*
X160312443Y-112767519D01*
X160312443Y-112767519D01*
G37*
G36*
X149898443Y-112767519D02*
X149964627Y-112774037D01*
X150077853Y-112808384D01*
X150134467Y-112825557D01*
X150263970Y-112894779D01*
X150290991Y-112909222D01*
X150298086Y-112915045D01*
X150428186Y-113021814D01*
X150511448Y-113123271D01*
X150540778Y-113159009D01*
X150540779Y-113159011D01*
X150624443Y-113315533D01*
X150624443Y-113315534D01*
X150675963Y-113485373D01*
X150693359Y-113662000D01*
X150675963Y-113838627D01*
X150652536Y-113915855D01*
X150624443Y-114008467D01*
X150565761Y-114118252D01*
X150540778Y-114164991D01*
X150537233Y-114169310D01*
X150428186Y-114302186D01*
X150326729Y-114385448D01*
X150290991Y-114414778D01*
X150290989Y-114414779D01*
X150134467Y-114498443D01*
X150077853Y-114515616D01*
X149964627Y-114549963D01*
X149898443Y-114556481D01*
X149832260Y-114563000D01*
X149743740Y-114563000D01*
X149677557Y-114556481D01*
X149611373Y-114549963D01*
X149498147Y-114515616D01*
X149441533Y-114498443D01*
X149285011Y-114414779D01*
X149285009Y-114414778D01*
X149249271Y-114385448D01*
X149147814Y-114302186D01*
X149038767Y-114169310D01*
X149035222Y-114164991D01*
X149010239Y-114118252D01*
X148951557Y-114008467D01*
X148923464Y-113915855D01*
X148900037Y-113838627D01*
X148882641Y-113662000D01*
X148900037Y-113485373D01*
X148951557Y-113315534D01*
X148951557Y-113315533D01*
X149035221Y-113159011D01*
X149035222Y-113159009D01*
X149064552Y-113123271D01*
X149147814Y-113021814D01*
X149277914Y-112915045D01*
X149285009Y-112909222D01*
X149312030Y-112894779D01*
X149441533Y-112825557D01*
X149498147Y-112808384D01*
X149611373Y-112774037D01*
X149677557Y-112767519D01*
X149743740Y-112761000D01*
X149832260Y-112761000D01*
X149898443Y-112767519D01*
X149898443Y-112767519D01*
G37*
G36*
X147358443Y-112767519D02*
X147424627Y-112774037D01*
X147537853Y-112808384D01*
X147594467Y-112825557D01*
X147723970Y-112894779D01*
X147750991Y-112909222D01*
X147758086Y-112915045D01*
X147888186Y-113021814D01*
X147971448Y-113123271D01*
X148000778Y-113159009D01*
X148000779Y-113159011D01*
X148084443Y-113315533D01*
X148084443Y-113315534D01*
X148135963Y-113485373D01*
X148153359Y-113662000D01*
X148135963Y-113838627D01*
X148112536Y-113915855D01*
X148084443Y-114008467D01*
X148025761Y-114118252D01*
X148000778Y-114164991D01*
X147997233Y-114169310D01*
X147888186Y-114302186D01*
X147786729Y-114385448D01*
X147750991Y-114414778D01*
X147750989Y-114414779D01*
X147594467Y-114498443D01*
X147537853Y-114515616D01*
X147424627Y-114549963D01*
X147358443Y-114556481D01*
X147292260Y-114563000D01*
X147203740Y-114563000D01*
X147137557Y-114556481D01*
X147071373Y-114549963D01*
X146958147Y-114515616D01*
X146901533Y-114498443D01*
X146745011Y-114414779D01*
X146745009Y-114414778D01*
X146709271Y-114385448D01*
X146607814Y-114302186D01*
X146498767Y-114169310D01*
X146495222Y-114164991D01*
X146470239Y-114118252D01*
X146411557Y-114008467D01*
X146383464Y-113915855D01*
X146360037Y-113838627D01*
X146342641Y-113662000D01*
X146360037Y-113485373D01*
X146411557Y-113315534D01*
X146411557Y-113315533D01*
X146495221Y-113159011D01*
X146495222Y-113159009D01*
X146524552Y-113123271D01*
X146607814Y-113021814D01*
X146737914Y-112915045D01*
X146745009Y-112909222D01*
X146772030Y-112894779D01*
X146901533Y-112825557D01*
X146958147Y-112808384D01*
X147071373Y-112774037D01*
X147137557Y-112767519D01*
X147203740Y-112761000D01*
X147292260Y-112761000D01*
X147358443Y-112767519D01*
X147358443Y-112767519D01*
G37*
G36*
X162852443Y-112767519D02*
X162918627Y-112774037D01*
X163031853Y-112808384D01*
X163088467Y-112825557D01*
X163217970Y-112894779D01*
X163244991Y-112909222D01*
X163252086Y-112915045D01*
X163382186Y-113021814D01*
X163465448Y-113123271D01*
X163494778Y-113159009D01*
X163494779Y-113159011D01*
X163578443Y-113315533D01*
X163578443Y-113315534D01*
X163629963Y-113485373D01*
X163647359Y-113662000D01*
X163629963Y-113838627D01*
X163606536Y-113915855D01*
X163578443Y-114008467D01*
X163519761Y-114118252D01*
X163494778Y-114164991D01*
X163491233Y-114169310D01*
X163382186Y-114302186D01*
X163280729Y-114385448D01*
X163244991Y-114414778D01*
X163244989Y-114414779D01*
X163088467Y-114498443D01*
X163031853Y-114515616D01*
X162918627Y-114549963D01*
X162852443Y-114556481D01*
X162786260Y-114563000D01*
X162697740Y-114563000D01*
X162631557Y-114556481D01*
X162565373Y-114549963D01*
X162452147Y-114515616D01*
X162395533Y-114498443D01*
X162239011Y-114414779D01*
X162239009Y-114414778D01*
X162203271Y-114385448D01*
X162101814Y-114302186D01*
X161992767Y-114169310D01*
X161989222Y-114164991D01*
X161964239Y-114118252D01*
X161905557Y-114008467D01*
X161877464Y-113915855D01*
X161854037Y-113838627D01*
X161836641Y-113662000D01*
X161854037Y-113485373D01*
X161905557Y-113315534D01*
X161905557Y-113315533D01*
X161989221Y-113159011D01*
X161989222Y-113159009D01*
X162018552Y-113123271D01*
X162101814Y-113021814D01*
X162231914Y-112915045D01*
X162239009Y-112909222D01*
X162266030Y-112894779D01*
X162395533Y-112825557D01*
X162452147Y-112808384D01*
X162565373Y-112774037D01*
X162631557Y-112767519D01*
X162697740Y-112761000D01*
X162786260Y-112761000D01*
X162852443Y-112767519D01*
X162852443Y-112767519D01*
G37*
G36*
X92471118Y-112839792D02*
X92508805Y-112851225D01*
X92543544Y-112869793D01*
X92573989Y-112894779D01*
X92598975Y-112925224D01*
X92617543Y-112959963D01*
X92628976Y-112997650D01*
X92633441Y-113042988D01*
X92633441Y-114129666D01*
X92628976Y-114175004D01*
X92617543Y-114212691D01*
X92598975Y-114247430D01*
X92573989Y-114277875D01*
X92543544Y-114302861D01*
X92508805Y-114321429D01*
X92471118Y-114332862D01*
X92425780Y-114337327D01*
X91589102Y-114337327D01*
X91543764Y-114332862D01*
X91506077Y-114321429D01*
X91471338Y-114302861D01*
X91440893Y-114277875D01*
X91415907Y-114247430D01*
X91397339Y-114212691D01*
X91385906Y-114175004D01*
X91381441Y-114129666D01*
X91381441Y-113042988D01*
X91385906Y-112997650D01*
X91397339Y-112959963D01*
X91415907Y-112925224D01*
X91440893Y-112894779D01*
X91471338Y-112869793D01*
X91506077Y-112851225D01*
X91543764Y-112839792D01*
X91589102Y-112835327D01*
X92425780Y-112835327D01*
X92471118Y-112839792D01*
X92471118Y-112839792D01*
G37*
G36*
X90421118Y-112839792D02*
X90458805Y-112851225D01*
X90493544Y-112869793D01*
X90523989Y-112894779D01*
X90548975Y-112925224D01*
X90567543Y-112959963D01*
X90578976Y-112997650D01*
X90583441Y-113042988D01*
X90583441Y-114129666D01*
X90578976Y-114175004D01*
X90567543Y-114212691D01*
X90548975Y-114247430D01*
X90523989Y-114277875D01*
X90493544Y-114302861D01*
X90458805Y-114321429D01*
X90421118Y-114332862D01*
X90375780Y-114337327D01*
X89539102Y-114337327D01*
X89493764Y-114332862D01*
X89456077Y-114321429D01*
X89421338Y-114302861D01*
X89390893Y-114277875D01*
X89365907Y-114247430D01*
X89347339Y-114212691D01*
X89335906Y-114175004D01*
X89331441Y-114129666D01*
X89331441Y-113042988D01*
X89335906Y-112997650D01*
X89347339Y-112959963D01*
X89365907Y-112925224D01*
X89390893Y-112894779D01*
X89421338Y-112869793D01*
X89456077Y-112851225D01*
X89493764Y-112839792D01*
X89539102Y-112835327D01*
X90375780Y-112835327D01*
X90421118Y-112839792D01*
X90421118Y-112839792D01*
G37*
G36*
X160312442Y-110227518D02*
X160378627Y-110234037D01*
X160491853Y-110268384D01*
X160548467Y-110285557D01*
X160687087Y-110359652D01*
X160704991Y-110369222D01*
X160740729Y-110398552D01*
X160842186Y-110481814D01*
X160925448Y-110583271D01*
X160954778Y-110619009D01*
X160954779Y-110619011D01*
X161038443Y-110775533D01*
X161038443Y-110775534D01*
X161089963Y-110945373D01*
X161107359Y-111122000D01*
X161089963Y-111298627D01*
X161055616Y-111411853D01*
X161038443Y-111468467D01*
X160964348Y-111607087D01*
X160954778Y-111624991D01*
X160925448Y-111660729D01*
X160842186Y-111762186D01*
X160740729Y-111845448D01*
X160704991Y-111874778D01*
X160704989Y-111874779D01*
X160548467Y-111958443D01*
X160491853Y-111975616D01*
X160378627Y-112009963D01*
X160312443Y-112016481D01*
X160246260Y-112023000D01*
X160157740Y-112023000D01*
X160091557Y-112016481D01*
X160025373Y-112009963D01*
X159912147Y-111975616D01*
X159855533Y-111958443D01*
X159699011Y-111874779D01*
X159699009Y-111874778D01*
X159663271Y-111845448D01*
X159561814Y-111762186D01*
X159478552Y-111660729D01*
X159449222Y-111624991D01*
X159439652Y-111607087D01*
X159365557Y-111468467D01*
X159348384Y-111411853D01*
X159314037Y-111298627D01*
X159296641Y-111122000D01*
X159314037Y-110945373D01*
X159365557Y-110775534D01*
X159365557Y-110775533D01*
X159449221Y-110619011D01*
X159449222Y-110619009D01*
X159478552Y-110583271D01*
X159561814Y-110481814D01*
X159663271Y-110398552D01*
X159699009Y-110369222D01*
X159716913Y-110359652D01*
X159855533Y-110285557D01*
X159912147Y-110268384D01*
X160025373Y-110234037D01*
X160091558Y-110227518D01*
X160157740Y-110221000D01*
X160246260Y-110221000D01*
X160312442Y-110227518D01*
X160312442Y-110227518D01*
G37*
G36*
X147358442Y-110227518D02*
X147424627Y-110234037D01*
X147537853Y-110268384D01*
X147594467Y-110285557D01*
X147733087Y-110359652D01*
X147750991Y-110369222D01*
X147786729Y-110398552D01*
X147888186Y-110481814D01*
X147971448Y-110583271D01*
X148000778Y-110619009D01*
X148000779Y-110619011D01*
X148084443Y-110775533D01*
X148084443Y-110775534D01*
X148135963Y-110945373D01*
X148153359Y-111122000D01*
X148135963Y-111298627D01*
X148101616Y-111411853D01*
X148084443Y-111468467D01*
X148010348Y-111607087D01*
X148000778Y-111624991D01*
X147971448Y-111660729D01*
X147888186Y-111762186D01*
X147786729Y-111845448D01*
X147750991Y-111874778D01*
X147750989Y-111874779D01*
X147594467Y-111958443D01*
X147537853Y-111975616D01*
X147424627Y-112009963D01*
X147358443Y-112016481D01*
X147292260Y-112023000D01*
X147203740Y-112023000D01*
X147137557Y-112016481D01*
X147071373Y-112009963D01*
X146958147Y-111975616D01*
X146901533Y-111958443D01*
X146745011Y-111874779D01*
X146745009Y-111874778D01*
X146709271Y-111845448D01*
X146607814Y-111762186D01*
X146524552Y-111660729D01*
X146495222Y-111624991D01*
X146485652Y-111607087D01*
X146411557Y-111468467D01*
X146394384Y-111411853D01*
X146360037Y-111298627D01*
X146342641Y-111122000D01*
X146360037Y-110945373D01*
X146411557Y-110775534D01*
X146411557Y-110775533D01*
X146495221Y-110619011D01*
X146495222Y-110619009D01*
X146524552Y-110583271D01*
X146607814Y-110481814D01*
X146709271Y-110398552D01*
X146745009Y-110369222D01*
X146762913Y-110359652D01*
X146901533Y-110285557D01*
X146958147Y-110268384D01*
X147071373Y-110234037D01*
X147137558Y-110227518D01*
X147203740Y-110221000D01*
X147292260Y-110221000D01*
X147358442Y-110227518D01*
X147358442Y-110227518D01*
G37*
G36*
X150689000Y-112023000D02*
X148887000Y-112023000D01*
X148887000Y-110221000D01*
X150689000Y-110221000D01*
X150689000Y-112023000D01*
X150689000Y-112023000D01*
G37*
G36*
X163643000Y-112023000D02*
X161841000Y-112023000D01*
X161841000Y-110221000D01*
X163643000Y-110221000D01*
X163643000Y-112023000D01*
X163643000Y-112023000D01*
G37*
G36*
X82370003Y-107838508D02*
X82404918Y-107849100D01*
X82437106Y-107866305D01*
X82465314Y-107889454D01*
X82488463Y-107917662D01*
X82505668Y-107949850D01*
X82516260Y-107984765D01*
X82520441Y-108027222D01*
X82520441Y-109493432D01*
X82516260Y-109535889D01*
X82505668Y-109570804D01*
X82488463Y-109602992D01*
X82465314Y-109631200D01*
X82437106Y-109654349D01*
X82404918Y-109671554D01*
X82370003Y-109682146D01*
X82327546Y-109686327D01*
X81186336Y-109686327D01*
X81143879Y-109682146D01*
X81108964Y-109671554D01*
X81076776Y-109654349D01*
X81048568Y-109631200D01*
X81025419Y-109602992D01*
X81008214Y-109570804D01*
X80997622Y-109535889D01*
X80993441Y-109493432D01*
X80993441Y-108027222D01*
X80997622Y-107984765D01*
X81008214Y-107949850D01*
X81025419Y-107917662D01*
X81048568Y-107889454D01*
X81076776Y-107866305D01*
X81108964Y-107849100D01*
X81143879Y-107838508D01*
X81186336Y-107834327D01*
X82327546Y-107834327D01*
X82370003Y-107838508D01*
X82370003Y-107838508D01*
G37*
G36*
X85345003Y-107838508D02*
X85379918Y-107849100D01*
X85412106Y-107866305D01*
X85440314Y-107889454D01*
X85463463Y-107917662D01*
X85480668Y-107949850D01*
X85491260Y-107984765D01*
X85495441Y-108027222D01*
X85495441Y-109493432D01*
X85491260Y-109535889D01*
X85480668Y-109570804D01*
X85463463Y-109602992D01*
X85440314Y-109631200D01*
X85412106Y-109654349D01*
X85379918Y-109671554D01*
X85345003Y-109682146D01*
X85302546Y-109686327D01*
X84161336Y-109686327D01*
X84118879Y-109682146D01*
X84083964Y-109671554D01*
X84051776Y-109654349D01*
X84023568Y-109631200D01*
X84000419Y-109602992D01*
X83983214Y-109570804D01*
X83972622Y-109535889D01*
X83968441Y-109493432D01*
X83968441Y-108027222D01*
X83972622Y-107984765D01*
X83983214Y-107949850D01*
X84000419Y-107917662D01*
X84023568Y-107889454D01*
X84051776Y-107866305D01*
X84083964Y-107849100D01*
X84118879Y-107838508D01*
X84161336Y-107834327D01*
X85302546Y-107834327D01*
X85345003Y-107838508D01*
X85345003Y-107838508D01*
G37*
G36*
X90421118Y-107743683D02*
X90458805Y-107755116D01*
X90493544Y-107773684D01*
X90523989Y-107798670D01*
X90548975Y-107829115D01*
X90567543Y-107863854D01*
X90578976Y-107901541D01*
X90583441Y-107946879D01*
X90583441Y-109033557D01*
X90578976Y-109078895D01*
X90567543Y-109116582D01*
X90548975Y-109151321D01*
X90523989Y-109181766D01*
X90493544Y-109206752D01*
X90458805Y-109225320D01*
X90421118Y-109236753D01*
X90375780Y-109241218D01*
X89539102Y-109241218D01*
X89493764Y-109236753D01*
X89456077Y-109225320D01*
X89421338Y-109206752D01*
X89390893Y-109181766D01*
X89365907Y-109151321D01*
X89347339Y-109116582D01*
X89335906Y-109078895D01*
X89331441Y-109033557D01*
X89331441Y-107946879D01*
X89335906Y-107901541D01*
X89347339Y-107863854D01*
X89365907Y-107829115D01*
X89390893Y-107798670D01*
X89421338Y-107773684D01*
X89456077Y-107755116D01*
X89493764Y-107743683D01*
X89539102Y-107739218D01*
X90375780Y-107739218D01*
X90421118Y-107743683D01*
X90421118Y-107743683D01*
G37*
G36*
X92471118Y-107743683D02*
X92508805Y-107755116D01*
X92543544Y-107773684D01*
X92573989Y-107798670D01*
X92598975Y-107829115D01*
X92617543Y-107863854D01*
X92628976Y-107901541D01*
X92633441Y-107946879D01*
X92633441Y-109033557D01*
X92628976Y-109078895D01*
X92617543Y-109116582D01*
X92598975Y-109151321D01*
X92573989Y-109181766D01*
X92543544Y-109206752D01*
X92508805Y-109225320D01*
X92471118Y-109236753D01*
X92425780Y-109241218D01*
X91589102Y-109241218D01*
X91543764Y-109236753D01*
X91506077Y-109225320D01*
X91471338Y-109206752D01*
X91440893Y-109181766D01*
X91415907Y-109151321D01*
X91397339Y-109116582D01*
X91385906Y-109078895D01*
X91381441Y-109033557D01*
X91381441Y-107946879D01*
X91385906Y-107901541D01*
X91397339Y-107863854D01*
X91415907Y-107829115D01*
X91440893Y-107798670D01*
X91471338Y-107773684D01*
X91506077Y-107755116D01*
X91543764Y-107743683D01*
X91589102Y-107739218D01*
X92425780Y-107739218D01*
X92471118Y-107743683D01*
X92471118Y-107743683D01*
G37*
G36*
X170266740Y-102862184D02*
X170356627Y-102871037D01*
X170469853Y-102905384D01*
X170526467Y-102922557D01*
X170665087Y-102996652D01*
X170682991Y-103006222D01*
X170718729Y-103035552D01*
X170820186Y-103118814D01*
X170903448Y-103220271D01*
X170932778Y-103256009D01*
X170932779Y-103256011D01*
X171016443Y-103412533D01*
X171016443Y-103412534D01*
X171067963Y-103582373D01*
X171085359Y-103759000D01*
X171067963Y-103935627D01*
X171033616Y-104048853D01*
X171016443Y-104105467D01*
X170942348Y-104244087D01*
X170932778Y-104261991D01*
X170903448Y-104297729D01*
X170820186Y-104399186D01*
X170718729Y-104482448D01*
X170682991Y-104511778D01*
X170682989Y-104511779D01*
X170526467Y-104595443D01*
X170469853Y-104612616D01*
X170356627Y-104646963D01*
X170290443Y-104653481D01*
X170224260Y-104660000D01*
X170135740Y-104660000D01*
X170069558Y-104653482D01*
X170003373Y-104646963D01*
X169890147Y-104612616D01*
X169833533Y-104595443D01*
X169677011Y-104511779D01*
X169677009Y-104511778D01*
X169641271Y-104482448D01*
X169539814Y-104399186D01*
X169456552Y-104297729D01*
X169427222Y-104261991D01*
X169417652Y-104244087D01*
X169343557Y-104105467D01*
X169326384Y-104048853D01*
X169292037Y-103935627D01*
X169274641Y-103759000D01*
X169292037Y-103582373D01*
X169343557Y-103412534D01*
X169343557Y-103412533D01*
X169427221Y-103256011D01*
X169427222Y-103256009D01*
X169456552Y-103220271D01*
X169539814Y-103118814D01*
X169641271Y-103035552D01*
X169677009Y-103006222D01*
X169694913Y-102996652D01*
X169833533Y-102922557D01*
X169890147Y-102905384D01*
X170003373Y-102871037D01*
X170093260Y-102862184D01*
X170135740Y-102858000D01*
X170224260Y-102858000D01*
X170266740Y-102862184D01*
X170266740Y-102862184D01*
G37*
G36*
X85345003Y-102377508D02*
X85379918Y-102388100D01*
X85412106Y-102405305D01*
X85440314Y-102428454D01*
X85463463Y-102456662D01*
X85480668Y-102488850D01*
X85491260Y-102523765D01*
X85495441Y-102566222D01*
X85495441Y-104032432D01*
X85491260Y-104074889D01*
X85480668Y-104109804D01*
X85463463Y-104141992D01*
X85440314Y-104170200D01*
X85412106Y-104193349D01*
X85379918Y-104210554D01*
X85345003Y-104221146D01*
X85302546Y-104225327D01*
X84161336Y-104225327D01*
X84118879Y-104221146D01*
X84083964Y-104210554D01*
X84051776Y-104193349D01*
X84023568Y-104170200D01*
X84000419Y-104141992D01*
X83983214Y-104109804D01*
X83972622Y-104074889D01*
X83968441Y-104032432D01*
X83968441Y-102566222D01*
X83972622Y-102523765D01*
X83983214Y-102488850D01*
X84000419Y-102456662D01*
X84023568Y-102428454D01*
X84051776Y-102405305D01*
X84083964Y-102388100D01*
X84118879Y-102377508D01*
X84161336Y-102373327D01*
X85302546Y-102373327D01*
X85345003Y-102377508D01*
X85345003Y-102377508D01*
G37*
G36*
X82370003Y-102377508D02*
X82404918Y-102388100D01*
X82437106Y-102405305D01*
X82465314Y-102428454D01*
X82488463Y-102456662D01*
X82505668Y-102488850D01*
X82516260Y-102523765D01*
X82520441Y-102566222D01*
X82520441Y-104032432D01*
X82516260Y-104074889D01*
X82505668Y-104109804D01*
X82488463Y-104141992D01*
X82465314Y-104170200D01*
X82437106Y-104193349D01*
X82404918Y-104210554D01*
X82370003Y-104221146D01*
X82327546Y-104225327D01*
X81186336Y-104225327D01*
X81143879Y-104221146D01*
X81108964Y-104210554D01*
X81076776Y-104193349D01*
X81048568Y-104170200D01*
X81025419Y-104141992D01*
X81008214Y-104109804D01*
X80997622Y-104074889D01*
X80993441Y-104032432D01*
X80993441Y-102566222D01*
X80997622Y-102523765D01*
X81008214Y-102488850D01*
X81025419Y-102456662D01*
X81048568Y-102428454D01*
X81076776Y-102405305D01*
X81108964Y-102388100D01*
X81143879Y-102377508D01*
X81186336Y-102373327D01*
X82327546Y-102373327D01*
X82370003Y-102377508D01*
X82370003Y-102377508D01*
G37*
G36*
X90421118Y-102647574D02*
X90458805Y-102659007D01*
X90493544Y-102677575D01*
X90523989Y-102702561D01*
X90548975Y-102733006D01*
X90567543Y-102767745D01*
X90578976Y-102805432D01*
X90583441Y-102850770D01*
X90583441Y-103937448D01*
X90578976Y-103982786D01*
X90567543Y-104020473D01*
X90548975Y-104055212D01*
X90523989Y-104085657D01*
X90493544Y-104110643D01*
X90458805Y-104129211D01*
X90421118Y-104140644D01*
X90375780Y-104145109D01*
X89539102Y-104145109D01*
X89493764Y-104140644D01*
X89456077Y-104129211D01*
X89421338Y-104110643D01*
X89390893Y-104085657D01*
X89365907Y-104055212D01*
X89347339Y-104020473D01*
X89335906Y-103982786D01*
X89331441Y-103937448D01*
X89331441Y-102850770D01*
X89335906Y-102805432D01*
X89347339Y-102767745D01*
X89365907Y-102733006D01*
X89390893Y-102702561D01*
X89421338Y-102677575D01*
X89456077Y-102659007D01*
X89493764Y-102647574D01*
X89539102Y-102643109D01*
X90375780Y-102643109D01*
X90421118Y-102647574D01*
X90421118Y-102647574D01*
G37*
G36*
X92471118Y-102647574D02*
X92508805Y-102659007D01*
X92543544Y-102677575D01*
X92573989Y-102702561D01*
X92598975Y-102733006D01*
X92617543Y-102767745D01*
X92628976Y-102805432D01*
X92633441Y-102850770D01*
X92633441Y-103937448D01*
X92628976Y-103982786D01*
X92617543Y-104020473D01*
X92598975Y-104055212D01*
X92573989Y-104085657D01*
X92543544Y-104110643D01*
X92508805Y-104129211D01*
X92471118Y-104140644D01*
X92425780Y-104145109D01*
X91589102Y-104145109D01*
X91543764Y-104140644D01*
X91506077Y-104129211D01*
X91471338Y-104110643D01*
X91440893Y-104085657D01*
X91415907Y-104055212D01*
X91397339Y-104020473D01*
X91385906Y-103982786D01*
X91381441Y-103937448D01*
X91381441Y-102850770D01*
X91385906Y-102805432D01*
X91397339Y-102767745D01*
X91415907Y-102733006D01*
X91440893Y-102702561D01*
X91471338Y-102677575D01*
X91506077Y-102659007D01*
X91543764Y-102647574D01*
X91589102Y-102643109D01*
X92425780Y-102643109D01*
X92471118Y-102647574D01*
X92471118Y-102647574D01*
G37*
G36*
X170290442Y-100324518D02*
X170356627Y-100331037D01*
X170469853Y-100365384D01*
X170526467Y-100382557D01*
X170665087Y-100456652D01*
X170682991Y-100466222D01*
X170718729Y-100495552D01*
X170820186Y-100578814D01*
X170903448Y-100680271D01*
X170932778Y-100716009D01*
X170932779Y-100716011D01*
X171016443Y-100872533D01*
X171016443Y-100872534D01*
X171067963Y-101042373D01*
X171085359Y-101219000D01*
X171067963Y-101395627D01*
X171033616Y-101508853D01*
X171016443Y-101565467D01*
X170942348Y-101704087D01*
X170932778Y-101721991D01*
X170903448Y-101757729D01*
X170820186Y-101859186D01*
X170718729Y-101942448D01*
X170682991Y-101971778D01*
X170682989Y-101971779D01*
X170526467Y-102055443D01*
X170469853Y-102072616D01*
X170356627Y-102106963D01*
X170290442Y-102113482D01*
X170224260Y-102120000D01*
X170135740Y-102120000D01*
X170069558Y-102113482D01*
X170003373Y-102106963D01*
X169890147Y-102072616D01*
X169833533Y-102055443D01*
X169677011Y-101971779D01*
X169677009Y-101971778D01*
X169641271Y-101942448D01*
X169539814Y-101859186D01*
X169456552Y-101757729D01*
X169427222Y-101721991D01*
X169417652Y-101704087D01*
X169343557Y-101565467D01*
X169326384Y-101508853D01*
X169292037Y-101395627D01*
X169274641Y-101219000D01*
X169292037Y-101042373D01*
X169343557Y-100872534D01*
X169343557Y-100872533D01*
X169427221Y-100716011D01*
X169427222Y-100716009D01*
X169456552Y-100680271D01*
X169539814Y-100578814D01*
X169641271Y-100495552D01*
X169677009Y-100466222D01*
X169694913Y-100456652D01*
X169833533Y-100382557D01*
X169890147Y-100365384D01*
X170003373Y-100331037D01*
X170069558Y-100324518D01*
X170135740Y-100318000D01*
X170224260Y-100318000D01*
X170290442Y-100324518D01*
X170290442Y-100324518D01*
G37*
G36*
X149457537Y-95929633D02*
X149487108Y-95938603D01*
X149514352Y-95953165D01*
X149538234Y-95972766D01*
X149557835Y-95996648D01*
X149572397Y-96023892D01*
X149581367Y-96053463D01*
X149585000Y-96090349D01*
X149585000Y-101013651D01*
X149581367Y-101050537D01*
X149572397Y-101080108D01*
X149557835Y-101107352D01*
X149538234Y-101131234D01*
X149514352Y-101150835D01*
X149487108Y-101165397D01*
X149457537Y-101174367D01*
X149420651Y-101178000D01*
X146997349Y-101178000D01*
X146960463Y-101174367D01*
X146930892Y-101165397D01*
X146903648Y-101150835D01*
X146879766Y-101131234D01*
X146860165Y-101107352D01*
X146845603Y-101080108D01*
X146836633Y-101050537D01*
X146833000Y-101013651D01*
X146833000Y-96090349D01*
X146836633Y-96053463D01*
X146845603Y-96023892D01*
X146860165Y-95996648D01*
X146879766Y-95972766D01*
X146903648Y-95953165D01*
X146930892Y-95938603D01*
X146960463Y-95929633D01*
X146997349Y-95926000D01*
X149420651Y-95926000D01*
X149457537Y-95929633D01*
X149457537Y-95929633D01*
G37*
G36*
X156007537Y-95929633D02*
X156037108Y-95938603D01*
X156064352Y-95953165D01*
X156088234Y-95972766D01*
X156107835Y-95996648D01*
X156122397Y-96023892D01*
X156131367Y-96053463D01*
X156135000Y-96090349D01*
X156135000Y-101013651D01*
X156131367Y-101050537D01*
X156122397Y-101080108D01*
X156107835Y-101107352D01*
X156088234Y-101131234D01*
X156064352Y-101150835D01*
X156037108Y-101165397D01*
X156007537Y-101174367D01*
X155970651Y-101178000D01*
X153547349Y-101178000D01*
X153510463Y-101174367D01*
X153480892Y-101165397D01*
X153453648Y-101150835D01*
X153429766Y-101131234D01*
X153410165Y-101107352D01*
X153395603Y-101080108D01*
X153386633Y-101050537D01*
X153383000Y-101013651D01*
X153383000Y-96090349D01*
X153386633Y-96053463D01*
X153395603Y-96023892D01*
X153410165Y-95996648D01*
X153429766Y-95972766D01*
X153453648Y-95953165D01*
X153480892Y-95938603D01*
X153510463Y-95929633D01*
X153547349Y-95926000D01*
X155970651Y-95926000D01*
X156007537Y-95929633D01*
X156007537Y-95929633D01*
G37*
G36*
X143015562Y-99280181D02*
X143050477Y-99290773D01*
X143082665Y-99307978D01*
X143110873Y-99331127D01*
X143134022Y-99359335D01*
X143151227Y-99391523D01*
X143161819Y-99426438D01*
X143166000Y-99468895D01*
X143166000Y-100610105D01*
X143161819Y-100652562D01*
X143151227Y-100687477D01*
X143134022Y-100719665D01*
X143110873Y-100747873D01*
X143082665Y-100771022D01*
X143050477Y-100788227D01*
X143015562Y-100798819D01*
X142973105Y-100803000D01*
X141506895Y-100803000D01*
X141464438Y-100798819D01*
X141429523Y-100788227D01*
X141397335Y-100771022D01*
X141369127Y-100747873D01*
X141345978Y-100719665D01*
X141328773Y-100687477D01*
X141318181Y-100652562D01*
X141314000Y-100610105D01*
X141314000Y-99468895D01*
X141318181Y-99426438D01*
X141328773Y-99391523D01*
X141345978Y-99359335D01*
X141369127Y-99331127D01*
X141397335Y-99307978D01*
X141429523Y-99290773D01*
X141464438Y-99280181D01*
X141506895Y-99276000D01*
X142973105Y-99276000D01*
X143015562Y-99280181D01*
X143015562Y-99280181D01*
G37*
G36*
X128525040Y-94630825D02*
X128770280Y-94705218D01*
X128770282Y-94705219D01*
X128996296Y-94826026D01*
X129194397Y-94988603D01*
X129356974Y-95186704D01*
X129356975Y-95186706D01*
X129477782Y-95412720D01*
X129552175Y-95657960D01*
X129571000Y-95849095D01*
X129571000Y-99476905D01*
X129552175Y-99668040D01*
X129477782Y-99913280D01*
X129356976Y-100139293D01*
X129356974Y-100139295D01*
X129194396Y-100337397D01*
X128996295Y-100499974D01*
X128848796Y-100578814D01*
X128770279Y-100620782D01*
X128525039Y-100695175D01*
X128270000Y-100720294D01*
X128014960Y-100695175D01*
X127769720Y-100620782D01*
X127543706Y-100499975D01*
X127502577Y-100466221D01*
X127345603Y-100337396D01*
X127183026Y-100139295D01*
X127062219Y-99913281D01*
X127062218Y-99913279D01*
X126987825Y-99668039D01*
X126969000Y-99476904D01*
X126969001Y-95849095D01*
X126987826Y-95657960D01*
X127062219Y-95412720D01*
X127183026Y-95186706D01*
X127183027Y-95186704D01*
X127345604Y-94988603D01*
X127543705Y-94826026D01*
X127769719Y-94705219D01*
X127769721Y-94705218D01*
X128014961Y-94630825D01*
X128270000Y-94605706D01*
X128525040Y-94630825D01*
X128525040Y-94630825D01*
G37*
G36*
X124491000Y-100714000D02*
X121889000Y-100714000D01*
X121889000Y-94612000D01*
X124491000Y-94612000D01*
X124491000Y-100714000D01*
X124491000Y-100714000D01*
G37*
G36*
X171081000Y-99580000D02*
X169279000Y-99580000D01*
X169279000Y-97778000D01*
X171081000Y-97778000D01*
X171081000Y-99580000D01*
X171081000Y-99580000D01*
G37*
G36*
X90421118Y-97551465D02*
X90458805Y-97562898D01*
X90493544Y-97581466D01*
X90523989Y-97606452D01*
X90548975Y-97636897D01*
X90567543Y-97671636D01*
X90578976Y-97709323D01*
X90583441Y-97754661D01*
X90583441Y-98841339D01*
X90578976Y-98886677D01*
X90567543Y-98924364D01*
X90548975Y-98959103D01*
X90523989Y-98989548D01*
X90493544Y-99014534D01*
X90458805Y-99033102D01*
X90421118Y-99044535D01*
X90375780Y-99049000D01*
X89539102Y-99049000D01*
X89493764Y-99044535D01*
X89456077Y-99033102D01*
X89421338Y-99014534D01*
X89390893Y-98989548D01*
X89365907Y-98959103D01*
X89347339Y-98924364D01*
X89335906Y-98886677D01*
X89331441Y-98841339D01*
X89331441Y-97754661D01*
X89335906Y-97709323D01*
X89347339Y-97671636D01*
X89365907Y-97636897D01*
X89390893Y-97606452D01*
X89421338Y-97581466D01*
X89456077Y-97562898D01*
X89493764Y-97551465D01*
X89539102Y-97547000D01*
X90375780Y-97547000D01*
X90421118Y-97551465D01*
X90421118Y-97551465D01*
G37*
G36*
X92471118Y-97551465D02*
X92508805Y-97562898D01*
X92543544Y-97581466D01*
X92573989Y-97606452D01*
X92598975Y-97636897D01*
X92617543Y-97671636D01*
X92628976Y-97709323D01*
X92633441Y-97754661D01*
X92633441Y-98841339D01*
X92628976Y-98886677D01*
X92617543Y-98924364D01*
X92598975Y-98959103D01*
X92573989Y-98989548D01*
X92543544Y-99014534D01*
X92508805Y-99033102D01*
X92471118Y-99044535D01*
X92425780Y-99049000D01*
X91589102Y-99049000D01*
X91543764Y-99044535D01*
X91506077Y-99033102D01*
X91471338Y-99014534D01*
X91440893Y-98989548D01*
X91415907Y-98959103D01*
X91397339Y-98924364D01*
X91385906Y-98886677D01*
X91381441Y-98841339D01*
X91381441Y-97754661D01*
X91385906Y-97709323D01*
X91397339Y-97671636D01*
X91415907Y-97636897D01*
X91440893Y-97606452D01*
X91471338Y-97581466D01*
X91506077Y-97562898D01*
X91543764Y-97551465D01*
X91589102Y-97547000D01*
X92425780Y-97547000D01*
X92471118Y-97551465D01*
X92471118Y-97551465D01*
G37*
G36*
X143015562Y-96305181D02*
X143050477Y-96315773D01*
X143082665Y-96332978D01*
X143110873Y-96356127D01*
X143134022Y-96384335D01*
X143151227Y-96416523D01*
X143161819Y-96451438D01*
X143166000Y-96493895D01*
X143166000Y-97635105D01*
X143161819Y-97677562D01*
X143151227Y-97712477D01*
X143134022Y-97744665D01*
X143110873Y-97772873D01*
X143082665Y-97796022D01*
X143050477Y-97813227D01*
X143015562Y-97823819D01*
X142973105Y-97828000D01*
X141506895Y-97828000D01*
X141464438Y-97823819D01*
X141429523Y-97813227D01*
X141397335Y-97796022D01*
X141369127Y-97772873D01*
X141345978Y-97744665D01*
X141328773Y-97712477D01*
X141318181Y-97677562D01*
X141314000Y-97635105D01*
X141314000Y-96493895D01*
X141318181Y-96451438D01*
X141328773Y-96416523D01*
X141345978Y-96384335D01*
X141369127Y-96356127D01*
X141397335Y-96332978D01*
X141429523Y-96315773D01*
X141464438Y-96305181D01*
X141506895Y-96301000D01*
X142973105Y-96301000D01*
X143015562Y-96305181D01*
X143015562Y-96305181D01*
G37*
G36*
X84946443Y-90545519D02*
X85012627Y-90552037D01*
X85125853Y-90586384D01*
X85182467Y-90603557D01*
X85321087Y-90677652D01*
X85338991Y-90687222D01*
X85374729Y-90716552D01*
X85476186Y-90799814D01*
X85559448Y-90901271D01*
X85588778Y-90937009D01*
X85588779Y-90937011D01*
X85672443Y-91093533D01*
X85672443Y-91093534D01*
X85723963Y-91263373D01*
X85741359Y-91440000D01*
X85723963Y-91616627D01*
X85689616Y-91729853D01*
X85672443Y-91786467D01*
X85598348Y-91925087D01*
X85588778Y-91942991D01*
X85559448Y-91978729D01*
X85476186Y-92080186D01*
X85374729Y-92163448D01*
X85338991Y-92192778D01*
X85338989Y-92192779D01*
X85182467Y-92276443D01*
X85125853Y-92293616D01*
X85012627Y-92327963D01*
X84946443Y-92334481D01*
X84880260Y-92341000D01*
X84791740Y-92341000D01*
X84725557Y-92334481D01*
X84659373Y-92327963D01*
X84546147Y-92293616D01*
X84489533Y-92276443D01*
X84333011Y-92192779D01*
X84333009Y-92192778D01*
X84297271Y-92163448D01*
X84195814Y-92080186D01*
X84112552Y-91978729D01*
X84083222Y-91942991D01*
X84073652Y-91925087D01*
X83999557Y-91786467D01*
X83982384Y-91729853D01*
X83948037Y-91616627D01*
X83930641Y-91440000D01*
X83948037Y-91263373D01*
X83999557Y-91093534D01*
X83999557Y-91093533D01*
X84083221Y-90937011D01*
X84083222Y-90937009D01*
X84112552Y-90901271D01*
X84195814Y-90799814D01*
X84297271Y-90716552D01*
X84333009Y-90687222D01*
X84350913Y-90677652D01*
X84489533Y-90603557D01*
X84546147Y-90586384D01*
X84659373Y-90552037D01*
X84725557Y-90545519D01*
X84791740Y-90539000D01*
X84880260Y-90539000D01*
X84946443Y-90545519D01*
X84946443Y-90545519D01*
G37*
G36*
X82406443Y-90545519D02*
X82472627Y-90552037D01*
X82585853Y-90586384D01*
X82642467Y-90603557D01*
X82781087Y-90677652D01*
X82798991Y-90687222D01*
X82834729Y-90716552D01*
X82936186Y-90799814D01*
X83019448Y-90901271D01*
X83048778Y-90937009D01*
X83048779Y-90937011D01*
X83132443Y-91093533D01*
X83132443Y-91093534D01*
X83183963Y-91263373D01*
X83201359Y-91440000D01*
X83183963Y-91616627D01*
X83149616Y-91729853D01*
X83132443Y-91786467D01*
X83058348Y-91925087D01*
X83048778Y-91942991D01*
X83019448Y-91978729D01*
X82936186Y-92080186D01*
X82834729Y-92163448D01*
X82798991Y-92192778D01*
X82798989Y-92192779D01*
X82642467Y-92276443D01*
X82585853Y-92293616D01*
X82472627Y-92327963D01*
X82406443Y-92334481D01*
X82340260Y-92341000D01*
X82251740Y-92341000D01*
X82185557Y-92334481D01*
X82119373Y-92327963D01*
X82006147Y-92293616D01*
X81949533Y-92276443D01*
X81793011Y-92192779D01*
X81793009Y-92192778D01*
X81757271Y-92163448D01*
X81655814Y-92080186D01*
X81572552Y-91978729D01*
X81543222Y-91942991D01*
X81533652Y-91925087D01*
X81459557Y-91786467D01*
X81442384Y-91729853D01*
X81408037Y-91616627D01*
X81390641Y-91440000D01*
X81408037Y-91263373D01*
X81459557Y-91093534D01*
X81459557Y-91093533D01*
X81543221Y-90937011D01*
X81543222Y-90937009D01*
X81572552Y-90901271D01*
X81655814Y-90799814D01*
X81757271Y-90716552D01*
X81793009Y-90687222D01*
X81810913Y-90677652D01*
X81949533Y-90603557D01*
X82006147Y-90586384D01*
X82119373Y-90552037D01*
X82185557Y-90545519D01*
X82251740Y-90539000D01*
X82340260Y-90539000D01*
X82406443Y-90545519D01*
X82406443Y-90545519D01*
G37*
G36*
X82406443Y-88005519D02*
X82472627Y-88012037D01*
X82585853Y-88046384D01*
X82642467Y-88063557D01*
X82781087Y-88137652D01*
X82798991Y-88147222D01*
X82834729Y-88176552D01*
X82936186Y-88259814D01*
X83019448Y-88361271D01*
X83048778Y-88397009D01*
X83048779Y-88397011D01*
X83132443Y-88553533D01*
X83132443Y-88553534D01*
X83183963Y-88723373D01*
X83201359Y-88900000D01*
X83183963Y-89076627D01*
X83181015Y-89086345D01*
X83132443Y-89246467D01*
X83065360Y-89371969D01*
X83048778Y-89402991D01*
X83038020Y-89416099D01*
X82936186Y-89540186D01*
X82834729Y-89623448D01*
X82798991Y-89652778D01*
X82798989Y-89652779D01*
X82642467Y-89736443D01*
X82585853Y-89753616D01*
X82472627Y-89787963D01*
X82406443Y-89794481D01*
X82340260Y-89801000D01*
X82251740Y-89801000D01*
X82185557Y-89794481D01*
X82119373Y-89787963D01*
X82006147Y-89753616D01*
X81949533Y-89736443D01*
X81793011Y-89652779D01*
X81793009Y-89652778D01*
X81757271Y-89623448D01*
X81655814Y-89540186D01*
X81553980Y-89416099D01*
X81543222Y-89402991D01*
X81526640Y-89371969D01*
X81459557Y-89246467D01*
X81410985Y-89086345D01*
X81408037Y-89076627D01*
X81390641Y-88900000D01*
X81408037Y-88723373D01*
X81459557Y-88553534D01*
X81459557Y-88553533D01*
X81543221Y-88397011D01*
X81543222Y-88397009D01*
X81572552Y-88361271D01*
X81655814Y-88259814D01*
X81757271Y-88176552D01*
X81793009Y-88147222D01*
X81810913Y-88137652D01*
X81949533Y-88063557D01*
X82006147Y-88046384D01*
X82119373Y-88012037D01*
X82185557Y-88005519D01*
X82251740Y-87999000D01*
X82340260Y-87999000D01*
X82406443Y-88005519D01*
X82406443Y-88005519D01*
G37*
G36*
X84946443Y-88005519D02*
X85012627Y-88012037D01*
X85125853Y-88046384D01*
X85182467Y-88063557D01*
X85321087Y-88137652D01*
X85338991Y-88147222D01*
X85374729Y-88176552D01*
X85476186Y-88259814D01*
X85559448Y-88361271D01*
X85588778Y-88397009D01*
X85588779Y-88397011D01*
X85672443Y-88553533D01*
X85672443Y-88553534D01*
X85723963Y-88723373D01*
X85741359Y-88900000D01*
X85723963Y-89076627D01*
X85721015Y-89086345D01*
X85672443Y-89246467D01*
X85605360Y-89371969D01*
X85588778Y-89402991D01*
X85578020Y-89416099D01*
X85476186Y-89540186D01*
X85374729Y-89623448D01*
X85338991Y-89652778D01*
X85338989Y-89652779D01*
X85182467Y-89736443D01*
X85125853Y-89753616D01*
X85012627Y-89787963D01*
X84946443Y-89794481D01*
X84880260Y-89801000D01*
X84791740Y-89801000D01*
X84725557Y-89794481D01*
X84659373Y-89787963D01*
X84546147Y-89753616D01*
X84489533Y-89736443D01*
X84333011Y-89652779D01*
X84333009Y-89652778D01*
X84297271Y-89623448D01*
X84195814Y-89540186D01*
X84093980Y-89416099D01*
X84083222Y-89402991D01*
X84066640Y-89371969D01*
X83999557Y-89246467D01*
X83950985Y-89086345D01*
X83948037Y-89076627D01*
X83930641Y-88900000D01*
X83948037Y-88723373D01*
X83999557Y-88553534D01*
X83999557Y-88553533D01*
X84083221Y-88397011D01*
X84083222Y-88397009D01*
X84112552Y-88361271D01*
X84195814Y-88259814D01*
X84297271Y-88176552D01*
X84333009Y-88147222D01*
X84350913Y-88137652D01*
X84489533Y-88063557D01*
X84546147Y-88046384D01*
X84659373Y-88012037D01*
X84725557Y-88005519D01*
X84791740Y-87999000D01*
X84880260Y-87999000D01*
X84946443Y-88005519D01*
X84946443Y-88005519D01*
G37*
G36*
X166901000Y-89431000D02*
X163299000Y-89431000D01*
X163299000Y-85829000D01*
X166901000Y-85829000D01*
X166901000Y-89431000D01*
X166901000Y-89431000D01*
G37*
G36*
X172076978Y-85843293D02*
X172210627Y-85883835D01*
X172333782Y-85949662D01*
X172441739Y-86038261D01*
X172530338Y-86146218D01*
X172596165Y-86269373D01*
X172636707Y-86403022D01*
X172651000Y-86548140D01*
X172651000Y-88711860D01*
X172636707Y-88856978D01*
X172596165Y-88990627D01*
X172530338Y-89113782D01*
X172441739Y-89221739D01*
X172333782Y-89310338D01*
X172210627Y-89376165D01*
X172076978Y-89416707D01*
X171931860Y-89431000D01*
X170268140Y-89431000D01*
X170123022Y-89416707D01*
X169989373Y-89376165D01*
X169866218Y-89310338D01*
X169758261Y-89221739D01*
X169669662Y-89113782D01*
X169603835Y-88990627D01*
X169563293Y-88856978D01*
X169549000Y-88711860D01*
X169549000Y-86548140D01*
X169563293Y-86403022D01*
X169603835Y-86269373D01*
X169669662Y-86146218D01*
X169758261Y-86038261D01*
X169866218Y-85949662D01*
X169989373Y-85883835D01*
X170123022Y-85843293D01*
X170268140Y-85829000D01*
X171931860Y-85829000D01*
X172076978Y-85843293D01*
X172076978Y-85843293D01*
G37*
G36*
X84946442Y-85465518D02*
X85012627Y-85472037D01*
X85125853Y-85506384D01*
X85182467Y-85523557D01*
X85321087Y-85597652D01*
X85338991Y-85607222D01*
X85374729Y-85636552D01*
X85476186Y-85719814D01*
X85559448Y-85821271D01*
X85588778Y-85857009D01*
X85588779Y-85857011D01*
X85672443Y-86013533D01*
X85672443Y-86013534D01*
X85723963Y-86183373D01*
X85741359Y-86360000D01*
X85723963Y-86536627D01*
X85703374Y-86604500D01*
X85672443Y-86706467D01*
X85598348Y-86845087D01*
X85588778Y-86862991D01*
X85559448Y-86898729D01*
X85476186Y-87000186D01*
X85374729Y-87083448D01*
X85338991Y-87112778D01*
X85338989Y-87112779D01*
X85182467Y-87196443D01*
X85125853Y-87213616D01*
X85012627Y-87247963D01*
X84946442Y-87254482D01*
X84880260Y-87261000D01*
X84791740Y-87261000D01*
X84725558Y-87254482D01*
X84659373Y-87247963D01*
X84546147Y-87213616D01*
X84489533Y-87196443D01*
X84333011Y-87112779D01*
X84333009Y-87112778D01*
X84297271Y-87083448D01*
X84195814Y-87000186D01*
X84112552Y-86898729D01*
X84083222Y-86862991D01*
X84073652Y-86845087D01*
X83999557Y-86706467D01*
X83968626Y-86604500D01*
X83948037Y-86536627D01*
X83930641Y-86360000D01*
X83948037Y-86183373D01*
X83999557Y-86013534D01*
X83999557Y-86013533D01*
X84083221Y-85857011D01*
X84083222Y-85857009D01*
X84112552Y-85821271D01*
X84195814Y-85719814D01*
X84297271Y-85636552D01*
X84333009Y-85607222D01*
X84350913Y-85597652D01*
X84489533Y-85523557D01*
X84546147Y-85506384D01*
X84659373Y-85472037D01*
X84725558Y-85465518D01*
X84791740Y-85459000D01*
X84880260Y-85459000D01*
X84946442Y-85465518D01*
X84946442Y-85465518D01*
G37*
G36*
X82406442Y-85465518D02*
X82472627Y-85472037D01*
X82585853Y-85506384D01*
X82642467Y-85523557D01*
X82781087Y-85597652D01*
X82798991Y-85607222D01*
X82834729Y-85636552D01*
X82936186Y-85719814D01*
X83019448Y-85821271D01*
X83048778Y-85857009D01*
X83048779Y-85857011D01*
X83132443Y-86013533D01*
X83132443Y-86013534D01*
X83183963Y-86183373D01*
X83201359Y-86360000D01*
X83183963Y-86536627D01*
X83163374Y-86604500D01*
X83132443Y-86706467D01*
X83058348Y-86845087D01*
X83048778Y-86862991D01*
X83019448Y-86898729D01*
X82936186Y-87000186D01*
X82834729Y-87083448D01*
X82798991Y-87112778D01*
X82798989Y-87112779D01*
X82642467Y-87196443D01*
X82585853Y-87213616D01*
X82472627Y-87247963D01*
X82406442Y-87254482D01*
X82340260Y-87261000D01*
X82251740Y-87261000D01*
X82185558Y-87254482D01*
X82119373Y-87247963D01*
X82006147Y-87213616D01*
X81949533Y-87196443D01*
X81793011Y-87112779D01*
X81793009Y-87112778D01*
X81757271Y-87083448D01*
X81655814Y-87000186D01*
X81572552Y-86898729D01*
X81543222Y-86862991D01*
X81533652Y-86845087D01*
X81459557Y-86706467D01*
X81428626Y-86604500D01*
X81408037Y-86536627D01*
X81390641Y-86360000D01*
X81408037Y-86183373D01*
X81459557Y-86013534D01*
X81459557Y-86013533D01*
X81543221Y-85857011D01*
X81543222Y-85857009D01*
X81572552Y-85821271D01*
X81655814Y-85719814D01*
X81757271Y-85636552D01*
X81793009Y-85607222D01*
X81810913Y-85597652D01*
X81949533Y-85523557D01*
X82006147Y-85506384D01*
X82119373Y-85472037D01*
X82185558Y-85465518D01*
X82251740Y-85459000D01*
X82340260Y-85459000D01*
X82406442Y-85465518D01*
X82406442Y-85465518D01*
G37*
G36*
X169226366Y-81145695D02*
X169383458Y-81193348D01*
X169528230Y-81270731D01*
X169655128Y-81374872D01*
X169759269Y-81501770D01*
X169836652Y-81646542D01*
X169884305Y-81803634D01*
X169901000Y-81973140D01*
X169901000Y-83886860D01*
X169884305Y-84056366D01*
X169836652Y-84213458D01*
X169759269Y-84358230D01*
X169655128Y-84485128D01*
X169528230Y-84589269D01*
X169383458Y-84666652D01*
X169226366Y-84714305D01*
X169056860Y-84731000D01*
X167143140Y-84731000D01*
X166973634Y-84714305D01*
X166816542Y-84666652D01*
X166671770Y-84589269D01*
X166544872Y-84485128D01*
X166440731Y-84358230D01*
X166363348Y-84213458D01*
X166315695Y-84056366D01*
X166299000Y-83886860D01*
X166299000Y-81973140D01*
X166315695Y-81803634D01*
X166363348Y-81646542D01*
X166440731Y-81501770D01*
X166544872Y-81374872D01*
X166671770Y-81270731D01*
X166816542Y-81193348D01*
X166973634Y-81145695D01*
X167143140Y-81129000D01*
X169056860Y-81129000D01*
X169226366Y-81145695D01*
X169226366Y-81145695D01*
G37*
G36*
X82406443Y-82925519D02*
X82472627Y-82932037D01*
X82585853Y-82966384D01*
X82642467Y-82983557D01*
X82781087Y-83057652D01*
X82798991Y-83067222D01*
X82834729Y-83096552D01*
X82936186Y-83179814D01*
X83019448Y-83281271D01*
X83048778Y-83317009D01*
X83048779Y-83317011D01*
X83132443Y-83473533D01*
X83132443Y-83473534D01*
X83183963Y-83643373D01*
X83201359Y-83820000D01*
X83183963Y-83996627D01*
X83181065Y-84006179D01*
X83132443Y-84166467D01*
X83127825Y-84175106D01*
X83048778Y-84322991D01*
X83019858Y-84358230D01*
X82936186Y-84460186D01*
X82834729Y-84543448D01*
X82798991Y-84572778D01*
X82798989Y-84572779D01*
X82642467Y-84656443D01*
X82585853Y-84673616D01*
X82472627Y-84707963D01*
X82414408Y-84713697D01*
X82340260Y-84721000D01*
X82251740Y-84721000D01*
X82177592Y-84713697D01*
X82119373Y-84707963D01*
X82006147Y-84673616D01*
X81949533Y-84656443D01*
X81793011Y-84572779D01*
X81793009Y-84572778D01*
X81757271Y-84543448D01*
X81655814Y-84460186D01*
X81572142Y-84358230D01*
X81543222Y-84322991D01*
X81464175Y-84175106D01*
X81459557Y-84166467D01*
X81410935Y-84006179D01*
X81408037Y-83996627D01*
X81390641Y-83820000D01*
X81408037Y-83643373D01*
X81459557Y-83473534D01*
X81459557Y-83473533D01*
X81543221Y-83317011D01*
X81543222Y-83317009D01*
X81572552Y-83281271D01*
X81655814Y-83179814D01*
X81757271Y-83096552D01*
X81793009Y-83067222D01*
X81810913Y-83057652D01*
X81949533Y-82983557D01*
X82006147Y-82966384D01*
X82119373Y-82932037D01*
X82185557Y-82925519D01*
X82251740Y-82919000D01*
X82340260Y-82919000D01*
X82406443Y-82925519D01*
X82406443Y-82925519D01*
G37*
G36*
X85737000Y-84721000D02*
X83935000Y-84721000D01*
X83935000Y-82919000D01*
X85737000Y-82919000D01*
X85737000Y-84721000D01*
X85737000Y-84721000D01*
G37*
G36*
X136145040Y-74310825D02*
X136390280Y-74385218D01*
X136390282Y-74385219D01*
X136616296Y-74506026D01*
X136814397Y-74668603D01*
X136976974Y-74866704D01*
X136976975Y-74866706D01*
X137097782Y-75092720D01*
X137172175Y-75337960D01*
X137191000Y-75529095D01*
X137191000Y-79156905D01*
X137172175Y-79348040D01*
X137097782Y-79593280D01*
X136976976Y-79819293D01*
X136976974Y-79819295D01*
X136814396Y-80017397D01*
X136616295Y-80179974D01*
X136616293Y-80179975D01*
X136390279Y-80300782D01*
X136145039Y-80375175D01*
X135890000Y-80400294D01*
X135634960Y-80375175D01*
X135389720Y-80300782D01*
X135163706Y-80179975D01*
X135128182Y-80150821D01*
X134965603Y-80017396D01*
X134803026Y-79819295D01*
X134682219Y-79593281D01*
X134682218Y-79593279D01*
X134607825Y-79348039D01*
X134589000Y-79156904D01*
X134589001Y-75529095D01*
X134607826Y-75337960D01*
X134682219Y-75092720D01*
X134803026Y-74866706D01*
X134803027Y-74866704D01*
X134965604Y-74668603D01*
X135163705Y-74506026D01*
X135389719Y-74385219D01*
X135389721Y-74385218D01*
X135634961Y-74310825D01*
X135890000Y-74285706D01*
X136145040Y-74310825D01*
X136145040Y-74310825D01*
G37*
G36*
X115825040Y-74310825D02*
X116070280Y-74385218D01*
X116070282Y-74385219D01*
X116296296Y-74506026D01*
X116494397Y-74668603D01*
X116656974Y-74866704D01*
X116656975Y-74866706D01*
X116777782Y-75092720D01*
X116852175Y-75337960D01*
X116871000Y-75529095D01*
X116871000Y-79156905D01*
X116852175Y-79348040D01*
X116777782Y-79593280D01*
X116656976Y-79819293D01*
X116656974Y-79819295D01*
X116494396Y-80017397D01*
X116296295Y-80179974D01*
X116296293Y-80179975D01*
X116070279Y-80300782D01*
X115825039Y-80375175D01*
X115570000Y-80400294D01*
X115314960Y-80375175D01*
X115069720Y-80300782D01*
X114843706Y-80179975D01*
X114808182Y-80150821D01*
X114645603Y-80017396D01*
X114483026Y-79819295D01*
X114362219Y-79593281D01*
X114362218Y-79593279D01*
X114287825Y-79348039D01*
X114269000Y-79156904D01*
X114269001Y-75529095D01*
X114287826Y-75337960D01*
X114362219Y-75092720D01*
X114483026Y-74866706D01*
X114483027Y-74866704D01*
X114645604Y-74668603D01*
X114843705Y-74506026D01*
X115069719Y-74385219D01*
X115069721Y-74385218D01*
X115314961Y-74310825D01*
X115570000Y-74285706D01*
X115825040Y-74310825D01*
X115825040Y-74310825D01*
G37*
G36*
X147126000Y-79682000D02*
X145024000Y-79682000D01*
X145024000Y-78080000D01*
X147126000Y-78080000D01*
X147126000Y-79682000D01*
X147126000Y-79682000D01*
G37*
G36*
X153426000Y-78532000D02*
X151324000Y-78532000D01*
X151324000Y-74630000D01*
X153426000Y-74630000D01*
X153426000Y-78532000D01*
X153426000Y-78532000D01*
G37*
G36*
X84945982Y-75726018D02*
X84980897Y-75736610D01*
X85013085Y-75753815D01*
X85041293Y-75776964D01*
X85064442Y-75805172D01*
X85081647Y-75837360D01*
X85092239Y-75872275D01*
X85096420Y-75914732D01*
X85096420Y-77380942D01*
X85092239Y-77423399D01*
X85081647Y-77458314D01*
X85064442Y-77490502D01*
X85041293Y-77518710D01*
X85013085Y-77541859D01*
X84980897Y-77559064D01*
X84945982Y-77569656D01*
X84903525Y-77573837D01*
X83762315Y-77573837D01*
X83719858Y-77569656D01*
X83684943Y-77559064D01*
X83652755Y-77541859D01*
X83624547Y-77518710D01*
X83601398Y-77490502D01*
X83584193Y-77458314D01*
X83573601Y-77423399D01*
X83569420Y-77380942D01*
X83569420Y-75914732D01*
X83573601Y-75872275D01*
X83584193Y-75837360D01*
X83601398Y-75805172D01*
X83624547Y-75776964D01*
X83652755Y-75753815D01*
X83684943Y-75736610D01*
X83719858Y-75726018D01*
X83762315Y-75721837D01*
X84903525Y-75721837D01*
X84945982Y-75726018D01*
X84945982Y-75726018D01*
G37*
G36*
X81970982Y-75726018D02*
X82005897Y-75736610D01*
X82038085Y-75753815D01*
X82066293Y-75776964D01*
X82089442Y-75805172D01*
X82106647Y-75837360D01*
X82117239Y-75872275D01*
X82121420Y-75914732D01*
X82121420Y-77380942D01*
X82117239Y-77423399D01*
X82106647Y-77458314D01*
X82089442Y-77490502D01*
X82066293Y-77518710D01*
X82038085Y-77541859D01*
X82005897Y-77559064D01*
X81970982Y-77569656D01*
X81928525Y-77573837D01*
X80787315Y-77573837D01*
X80744858Y-77569656D01*
X80709943Y-77559064D01*
X80677755Y-77541859D01*
X80649547Y-77518710D01*
X80626398Y-77490502D01*
X80609193Y-77458314D01*
X80598601Y-77423399D01*
X80594420Y-77380942D01*
X80594420Y-75914732D01*
X80598601Y-75872275D01*
X80609193Y-75837360D01*
X80626398Y-75805172D01*
X80649547Y-75776964D01*
X80677755Y-75753815D01*
X80709943Y-75736610D01*
X80744858Y-75726018D01*
X80787315Y-75721837D01*
X81928525Y-75721837D01*
X81970982Y-75726018D01*
X81970982Y-75726018D01*
G37*
G36*
X147126000Y-77382000D02*
X145024000Y-77382000D01*
X145024000Y-75780000D01*
X147126000Y-75780000D01*
X147126000Y-77382000D01*
X147126000Y-77382000D01*
G37*
G36*
X147126000Y-75082000D02*
X145024000Y-75082000D01*
X145024000Y-73480000D01*
X147126000Y-73480000D01*
X147126000Y-75082000D01*
X147126000Y-75082000D01*
G37*
G36*
X81970982Y-70849218D02*
X82005897Y-70859810D01*
X82038085Y-70877015D01*
X82066293Y-70900164D01*
X82089442Y-70928372D01*
X82106647Y-70960560D01*
X82117239Y-70995475D01*
X82121420Y-71037932D01*
X82121420Y-72504142D01*
X82117239Y-72546599D01*
X82106647Y-72581514D01*
X82089442Y-72613702D01*
X82066293Y-72641910D01*
X82038085Y-72665059D01*
X82005897Y-72682264D01*
X81970982Y-72692856D01*
X81928525Y-72697037D01*
X80787315Y-72697037D01*
X80744858Y-72692856D01*
X80709943Y-72682264D01*
X80677755Y-72665059D01*
X80649547Y-72641910D01*
X80626398Y-72613702D01*
X80609193Y-72581514D01*
X80598601Y-72546599D01*
X80594420Y-72504142D01*
X80594420Y-71037932D01*
X80598601Y-70995475D01*
X80609193Y-70960560D01*
X80626398Y-70928372D01*
X80649547Y-70900164D01*
X80677755Y-70877015D01*
X80709943Y-70859810D01*
X80744858Y-70849218D01*
X80787315Y-70845037D01*
X81928525Y-70845037D01*
X81970982Y-70849218D01*
X81970982Y-70849218D01*
G37*
G36*
X84945982Y-70849218D02*
X84980897Y-70859810D01*
X85013085Y-70877015D01*
X85041293Y-70900164D01*
X85064442Y-70928372D01*
X85081647Y-70960560D01*
X85092239Y-70995475D01*
X85096420Y-71037932D01*
X85096420Y-72504142D01*
X85092239Y-72546599D01*
X85081647Y-72581514D01*
X85064442Y-72613702D01*
X85041293Y-72641910D01*
X85013085Y-72665059D01*
X84980897Y-72682264D01*
X84945982Y-72692856D01*
X84903525Y-72697037D01*
X83762315Y-72697037D01*
X83719858Y-72692856D01*
X83684943Y-72682264D01*
X83652755Y-72665059D01*
X83624547Y-72641910D01*
X83601398Y-72613702D01*
X83584193Y-72581514D01*
X83573601Y-72546599D01*
X83569420Y-72504142D01*
X83569420Y-71037932D01*
X83573601Y-70995475D01*
X83584193Y-70960560D01*
X83601398Y-70928372D01*
X83624547Y-70900164D01*
X83652755Y-70877015D01*
X83684943Y-70859810D01*
X83719858Y-70849218D01*
X83762315Y-70845037D01*
X84903525Y-70845037D01*
X84945982Y-70849218D01*
X84945982Y-70849218D01*
G37*
G36*
X145787944Y-66900037D02*
X145822859Y-66910629D01*
X145855047Y-66927834D01*
X145883255Y-66950983D01*
X145906404Y-66979191D01*
X145923609Y-67011379D01*
X145934201Y-67046294D01*
X145938382Y-67088751D01*
X145938382Y-68554961D01*
X145934201Y-68597418D01*
X145923609Y-68632333D01*
X145906404Y-68664521D01*
X145883255Y-68692729D01*
X145855047Y-68715878D01*
X145822859Y-68733083D01*
X145787944Y-68743675D01*
X145745487Y-68747856D01*
X144604277Y-68747856D01*
X144561820Y-68743675D01*
X144526905Y-68733083D01*
X144494717Y-68715878D01*
X144466509Y-68692729D01*
X144443360Y-68664521D01*
X144426155Y-68632333D01*
X144415563Y-68597418D01*
X144411382Y-68554961D01*
X144411382Y-67088751D01*
X144415563Y-67046294D01*
X144426155Y-67011379D01*
X144443360Y-66979191D01*
X144466509Y-66950983D01*
X144494717Y-66927834D01*
X144526905Y-66910629D01*
X144561820Y-66900037D01*
X144604277Y-66895856D01*
X145745487Y-66895856D01*
X145787944Y-66900037D01*
X145787944Y-66900037D01*
G37*
G36*
X148762944Y-66900037D02*
X148797859Y-66910629D01*
X148830047Y-66927834D01*
X148858255Y-66950983D01*
X148881404Y-66979191D01*
X148898609Y-67011379D01*
X148909201Y-67046294D01*
X148913382Y-67088751D01*
X148913382Y-68554961D01*
X148909201Y-68597418D01*
X148898609Y-68632333D01*
X148881404Y-68664521D01*
X148858255Y-68692729D01*
X148830047Y-68715878D01*
X148797859Y-68733083D01*
X148762944Y-68743675D01*
X148720487Y-68747856D01*
X147579277Y-68747856D01*
X147536820Y-68743675D01*
X147501905Y-68733083D01*
X147469717Y-68715878D01*
X147441509Y-68692729D01*
X147418360Y-68664521D01*
X147401155Y-68632333D01*
X147390563Y-68597418D01*
X147386382Y-68554961D01*
X147386382Y-67088751D01*
X147390563Y-67046294D01*
X147401155Y-67011379D01*
X147418360Y-66979191D01*
X147441509Y-66950983D01*
X147469717Y-66927834D01*
X147501905Y-66910629D01*
X147536820Y-66900037D01*
X147579277Y-66895856D01*
X148720487Y-66895856D01*
X148762944Y-66900037D01*
X148762944Y-66900037D01*
G37*
G36*
X153213062Y-66896181D02*
X153247977Y-66906773D01*
X153280165Y-66923978D01*
X153308373Y-66947127D01*
X153331522Y-66975335D01*
X153348727Y-67007523D01*
X153359319Y-67042438D01*
X153363500Y-67084895D01*
X153363500Y-68551105D01*
X153359319Y-68593562D01*
X153348727Y-68628477D01*
X153331522Y-68660665D01*
X153308373Y-68688873D01*
X153280165Y-68712022D01*
X153247977Y-68729227D01*
X153213062Y-68739819D01*
X153170605Y-68744000D01*
X152029395Y-68744000D01*
X151986938Y-68739819D01*
X151952023Y-68729227D01*
X151919835Y-68712022D01*
X151891627Y-68688873D01*
X151868478Y-68660665D01*
X151851273Y-68628477D01*
X151840681Y-68593562D01*
X151836500Y-68551105D01*
X151836500Y-67084895D01*
X151840681Y-67042438D01*
X151851273Y-67007523D01*
X151868478Y-66975335D01*
X151891627Y-66947127D01*
X151919835Y-66923978D01*
X151952023Y-66906773D01*
X151986938Y-66896181D01*
X152029395Y-66892000D01*
X153170605Y-66892000D01*
X153213062Y-66896181D01*
X153213062Y-66896181D01*
G37*
G36*
X156188062Y-66896181D02*
X156222977Y-66906773D01*
X156255165Y-66923978D01*
X156283373Y-66947127D01*
X156306522Y-66975335D01*
X156323727Y-67007523D01*
X156334319Y-67042438D01*
X156338500Y-67084895D01*
X156338500Y-68551105D01*
X156334319Y-68593562D01*
X156323727Y-68628477D01*
X156306522Y-68660665D01*
X156283373Y-68688873D01*
X156255165Y-68712022D01*
X156222977Y-68729227D01*
X156188062Y-68739819D01*
X156145605Y-68744000D01*
X155004395Y-68744000D01*
X154961938Y-68739819D01*
X154927023Y-68729227D01*
X154894835Y-68712022D01*
X154866627Y-68688873D01*
X154843478Y-68660665D01*
X154826273Y-68628477D01*
X154815681Y-68593562D01*
X154811500Y-68551105D01*
X154811500Y-67084895D01*
X154815681Y-67042438D01*
X154826273Y-67007523D01*
X154843478Y-66975335D01*
X154866627Y-66947127D01*
X154894835Y-66923978D01*
X154927023Y-66906773D01*
X154961938Y-66896181D01*
X155004395Y-66892000D01*
X156145605Y-66892000D01*
X156188062Y-66896181D01*
X156188062Y-66896181D01*
G37*
G36*
X84945982Y-65972418D02*
X84980897Y-65983010D01*
X85013085Y-66000215D01*
X85041293Y-66023364D01*
X85064442Y-66051572D01*
X85081647Y-66083760D01*
X85092239Y-66118675D01*
X85096420Y-66161132D01*
X85096420Y-67627342D01*
X85092239Y-67669799D01*
X85081647Y-67704714D01*
X85064442Y-67736902D01*
X85041293Y-67765110D01*
X85013085Y-67788259D01*
X84980897Y-67805464D01*
X84945982Y-67816056D01*
X84903525Y-67820237D01*
X83762315Y-67820237D01*
X83719858Y-67816056D01*
X83684943Y-67805464D01*
X83652755Y-67788259D01*
X83624547Y-67765110D01*
X83601398Y-67736902D01*
X83584193Y-67704714D01*
X83573601Y-67669799D01*
X83569420Y-67627342D01*
X83569420Y-66161132D01*
X83573601Y-66118675D01*
X83584193Y-66083760D01*
X83601398Y-66051572D01*
X83624547Y-66023364D01*
X83652755Y-66000215D01*
X83684943Y-65983010D01*
X83719858Y-65972418D01*
X83762315Y-65968237D01*
X84903525Y-65968237D01*
X84945982Y-65972418D01*
X84945982Y-65972418D01*
G37*
G36*
X81970982Y-65972418D02*
X82005897Y-65983010D01*
X82038085Y-66000215D01*
X82066293Y-66023364D01*
X82089442Y-66051572D01*
X82106647Y-66083760D01*
X82117239Y-66118675D01*
X82121420Y-66161132D01*
X82121420Y-67627342D01*
X82117239Y-67669799D01*
X82106647Y-67704714D01*
X82089442Y-67736902D01*
X82066293Y-67765110D01*
X82038085Y-67788259D01*
X82005897Y-67805464D01*
X81970982Y-67816056D01*
X81928525Y-67820237D01*
X80787315Y-67820237D01*
X80744858Y-67816056D01*
X80709943Y-67805464D01*
X80677755Y-67788259D01*
X80649547Y-67765110D01*
X80626398Y-67736902D01*
X80609193Y-67704714D01*
X80598601Y-67669799D01*
X80594420Y-67627342D01*
X80594420Y-66161132D01*
X80598601Y-66118675D01*
X80609193Y-66083760D01*
X80626398Y-66051572D01*
X80649547Y-66023364D01*
X80677755Y-66000215D01*
X80709943Y-65983010D01*
X80744858Y-65972418D01*
X80787315Y-65968237D01*
X81928525Y-65968237D01*
X81970982Y-65972418D01*
X81970982Y-65972418D01*
G37*
G36*
X148426882Y-64181856D02*
X147324882Y-64181856D01*
X147324882Y-63079856D01*
X148426882Y-63079856D01*
X148426882Y-64181856D01*
X148426882Y-64181856D01*
G37*
G36*
X145926882Y-64181856D02*
X144824882Y-64181856D01*
X144824882Y-63079856D01*
X145926882Y-63079856D01*
X145926882Y-64181856D01*
X145926882Y-64181856D01*
G37*
G36*
X154268882Y-64054856D02*
X153166882Y-64054856D01*
X153166882Y-62952856D01*
X154268882Y-62952856D01*
X154268882Y-64054856D01*
X154268882Y-64054856D01*
G37*
G36*
X151768882Y-64054856D02*
X150666882Y-64054856D01*
X150666882Y-62952856D01*
X151768882Y-62952856D01*
X151768882Y-64054856D01*
X151768882Y-64054856D01*
G37*
G36*
X84945982Y-61095618D02*
X84980897Y-61106210D01*
X85013085Y-61123415D01*
X85041293Y-61146564D01*
X85064442Y-61174772D01*
X85081647Y-61206960D01*
X85092239Y-61241875D01*
X85096420Y-61284332D01*
X85096420Y-62750542D01*
X85092239Y-62792999D01*
X85081647Y-62827914D01*
X85064442Y-62860102D01*
X85041293Y-62888310D01*
X85013085Y-62911459D01*
X84980897Y-62928664D01*
X84945982Y-62939256D01*
X84903525Y-62943437D01*
X83762315Y-62943437D01*
X83719858Y-62939256D01*
X83684943Y-62928664D01*
X83652755Y-62911459D01*
X83624547Y-62888310D01*
X83601398Y-62860102D01*
X83584193Y-62827914D01*
X83573601Y-62792999D01*
X83569420Y-62750542D01*
X83569420Y-61284332D01*
X83573601Y-61241875D01*
X83584193Y-61206960D01*
X83601398Y-61174772D01*
X83624547Y-61146564D01*
X83652755Y-61123415D01*
X83684943Y-61106210D01*
X83719858Y-61095618D01*
X83762315Y-61091437D01*
X84903525Y-61091437D01*
X84945982Y-61095618D01*
X84945982Y-61095618D01*
G37*
G36*
X81970982Y-61095618D02*
X82005897Y-61106210D01*
X82038085Y-61123415D01*
X82066293Y-61146564D01*
X82089442Y-61174772D01*
X82106647Y-61206960D01*
X82117239Y-61241875D01*
X82121420Y-61284332D01*
X82121420Y-62750542D01*
X82117239Y-62792999D01*
X82106647Y-62827914D01*
X82089442Y-62860102D01*
X82066293Y-62888310D01*
X82038085Y-62911459D01*
X82005897Y-62928664D01*
X81970982Y-62939256D01*
X81928525Y-62943437D01*
X80787315Y-62943437D01*
X80744858Y-62939256D01*
X80709943Y-62928664D01*
X80677755Y-62911459D01*
X80649547Y-62888310D01*
X80626398Y-62860102D01*
X80609193Y-62827914D01*
X80598601Y-62792999D01*
X80594420Y-62750542D01*
X80594420Y-61284332D01*
X80598601Y-61241875D01*
X80609193Y-61206960D01*
X80626398Y-61174772D01*
X80649547Y-61146564D01*
X80677755Y-61123415D01*
X80709943Y-61106210D01*
X80744858Y-61095618D01*
X80787315Y-61091437D01*
X81928525Y-61091437D01*
X81970982Y-61095618D01*
X81970982Y-61095618D01*
G37*
G36*
X84945982Y-56218818D02*
X84980897Y-56229410D01*
X85013085Y-56246615D01*
X85041293Y-56269764D01*
X85064442Y-56297972D01*
X85081647Y-56330160D01*
X85092239Y-56365075D01*
X85096420Y-56407532D01*
X85096420Y-57873742D01*
X85092239Y-57916199D01*
X85081647Y-57951114D01*
X85064442Y-57983302D01*
X85041293Y-58011510D01*
X85013085Y-58034659D01*
X84980897Y-58051864D01*
X84945982Y-58062456D01*
X84903525Y-58066637D01*
X83762315Y-58066637D01*
X83719858Y-58062456D01*
X83684943Y-58051864D01*
X83652755Y-58034659D01*
X83624547Y-58011510D01*
X83601398Y-57983302D01*
X83584193Y-57951114D01*
X83573601Y-57916199D01*
X83569420Y-57873742D01*
X83569420Y-56407532D01*
X83573601Y-56365075D01*
X83584193Y-56330160D01*
X83601398Y-56297972D01*
X83624547Y-56269764D01*
X83652755Y-56246615D01*
X83684943Y-56229410D01*
X83719858Y-56218818D01*
X83762315Y-56214637D01*
X84903525Y-56214637D01*
X84945982Y-56218818D01*
X84945982Y-56218818D01*
G37*
G36*
X81970982Y-56218818D02*
X82005897Y-56229410D01*
X82038085Y-56246615D01*
X82066293Y-56269764D01*
X82089442Y-56297972D01*
X82106647Y-56330160D01*
X82117239Y-56365075D01*
X82121420Y-56407532D01*
X82121420Y-57873742D01*
X82117239Y-57916199D01*
X82106647Y-57951114D01*
X82089442Y-57983302D01*
X82066293Y-58011510D01*
X82038085Y-58034659D01*
X82005897Y-58051864D01*
X81970982Y-58062456D01*
X81928525Y-58066637D01*
X80787315Y-58066637D01*
X80744858Y-58062456D01*
X80709943Y-58051864D01*
X80677755Y-58034659D01*
X80649547Y-58011510D01*
X80626398Y-57983302D01*
X80609193Y-57951114D01*
X80598601Y-57916199D01*
X80594420Y-57873742D01*
X80594420Y-56407532D01*
X80598601Y-56365075D01*
X80609193Y-56330160D01*
X80626398Y-56297972D01*
X80649547Y-56269764D01*
X80677755Y-56246615D01*
X80709943Y-56229410D01*
X80744858Y-56218818D01*
X80787315Y-56214637D01*
X81928525Y-56214637D01*
X81970982Y-56218818D01*
X81970982Y-56218818D01*
G37*
G36*
X151367442Y-54223518D02*
X151433627Y-54230037D01*
X151546853Y-54264384D01*
X151603467Y-54281557D01*
X151742087Y-54355652D01*
X151759991Y-54365222D01*
X151795729Y-54394552D01*
X151897186Y-54477814D01*
X151980448Y-54579271D01*
X152009778Y-54615009D01*
X152009779Y-54615011D01*
X152093443Y-54771533D01*
X152093443Y-54771534D01*
X152144963Y-54941373D01*
X152162359Y-55118000D01*
X152144963Y-55294627D01*
X152110616Y-55407853D01*
X152093443Y-55464467D01*
X152019348Y-55603087D01*
X152009778Y-55620991D01*
X151980448Y-55656729D01*
X151897186Y-55758186D01*
X151795729Y-55841448D01*
X151759991Y-55870778D01*
X151759989Y-55870779D01*
X151603467Y-55954443D01*
X151546853Y-55971616D01*
X151433627Y-56005963D01*
X151367443Y-56012481D01*
X151301260Y-56019000D01*
X151212740Y-56019000D01*
X151146557Y-56012481D01*
X151080373Y-56005963D01*
X150967147Y-55971616D01*
X150910533Y-55954443D01*
X150754011Y-55870779D01*
X150754009Y-55870778D01*
X150718271Y-55841448D01*
X150616814Y-55758186D01*
X150533552Y-55656729D01*
X150504222Y-55620991D01*
X150494652Y-55603087D01*
X150420557Y-55464467D01*
X150403384Y-55407853D01*
X150369037Y-55294627D01*
X150351641Y-55118000D01*
X150369037Y-54941373D01*
X150420557Y-54771534D01*
X150420557Y-54771533D01*
X150504221Y-54615011D01*
X150504222Y-54615009D01*
X150533552Y-54579271D01*
X150616814Y-54477814D01*
X150718271Y-54394552D01*
X150754009Y-54365222D01*
X150771913Y-54355652D01*
X150910533Y-54281557D01*
X150967147Y-54264384D01*
X151080373Y-54230037D01*
X151146558Y-54223518D01*
X151212740Y-54217000D01*
X151301260Y-54217000D01*
X151367442Y-54223518D01*
X151367442Y-54223518D01*
G37*
G36*
X127135442Y-54223518D02*
X127201627Y-54230037D01*
X127314853Y-54264384D01*
X127371467Y-54281557D01*
X127510087Y-54355652D01*
X127527991Y-54365222D01*
X127563729Y-54394552D01*
X127665186Y-54477814D01*
X127748448Y-54579271D01*
X127777778Y-54615009D01*
X127777779Y-54615011D01*
X127861443Y-54771533D01*
X127861443Y-54771534D01*
X127912963Y-54941373D01*
X127930359Y-55118000D01*
X127912963Y-55294627D01*
X127878616Y-55407853D01*
X127861443Y-55464467D01*
X127787348Y-55603087D01*
X127777778Y-55620991D01*
X127748448Y-55656729D01*
X127665186Y-55758186D01*
X127563729Y-55841448D01*
X127527991Y-55870778D01*
X127527989Y-55870779D01*
X127371467Y-55954443D01*
X127314853Y-55971616D01*
X127201627Y-56005963D01*
X127135443Y-56012481D01*
X127069260Y-56019000D01*
X126980740Y-56019000D01*
X126914557Y-56012481D01*
X126848373Y-56005963D01*
X126735147Y-55971616D01*
X126678533Y-55954443D01*
X126522011Y-55870779D01*
X126522009Y-55870778D01*
X126486271Y-55841448D01*
X126384814Y-55758186D01*
X126301552Y-55656729D01*
X126272222Y-55620991D01*
X126262652Y-55603087D01*
X126188557Y-55464467D01*
X126171384Y-55407853D01*
X126137037Y-55294627D01*
X126119641Y-55118000D01*
X126137037Y-54941373D01*
X126188557Y-54771534D01*
X126188557Y-54771533D01*
X126272221Y-54615011D01*
X126272222Y-54615009D01*
X126301552Y-54579271D01*
X126384814Y-54477814D01*
X126486271Y-54394552D01*
X126522009Y-54365222D01*
X126539913Y-54355652D01*
X126678533Y-54281557D01*
X126735147Y-54264384D01*
X126848373Y-54230037D01*
X126914558Y-54223518D01*
X126980740Y-54217000D01*
X127069260Y-54217000D01*
X127135442Y-54223518D01*
X127135442Y-54223518D01*
G37*
G36*
X124595442Y-54223518D02*
X124661627Y-54230037D01*
X124774853Y-54264384D01*
X124831467Y-54281557D01*
X124970087Y-54355652D01*
X124987991Y-54365222D01*
X125023729Y-54394552D01*
X125125186Y-54477814D01*
X125208448Y-54579271D01*
X125237778Y-54615009D01*
X125237779Y-54615011D01*
X125321443Y-54771533D01*
X125321443Y-54771534D01*
X125372963Y-54941373D01*
X125390359Y-55118000D01*
X125372963Y-55294627D01*
X125338616Y-55407853D01*
X125321443Y-55464467D01*
X125247348Y-55603087D01*
X125237778Y-55620991D01*
X125208448Y-55656729D01*
X125125186Y-55758186D01*
X125023729Y-55841448D01*
X124987991Y-55870778D01*
X124987989Y-55870779D01*
X124831467Y-55954443D01*
X124774853Y-55971616D01*
X124661627Y-56005963D01*
X124595443Y-56012481D01*
X124529260Y-56019000D01*
X124440740Y-56019000D01*
X124374557Y-56012481D01*
X124308373Y-56005963D01*
X124195147Y-55971616D01*
X124138533Y-55954443D01*
X123982011Y-55870779D01*
X123982009Y-55870778D01*
X123946271Y-55841448D01*
X123844814Y-55758186D01*
X123761552Y-55656729D01*
X123732222Y-55620991D01*
X123722652Y-55603087D01*
X123648557Y-55464467D01*
X123631384Y-55407853D01*
X123597037Y-55294627D01*
X123579641Y-55118000D01*
X123597037Y-54941373D01*
X123648557Y-54771534D01*
X123648557Y-54771533D01*
X123732221Y-54615011D01*
X123732222Y-54615009D01*
X123761552Y-54579271D01*
X123844814Y-54477814D01*
X123946271Y-54394552D01*
X123982009Y-54365222D01*
X123999913Y-54355652D01*
X124138533Y-54281557D01*
X124195147Y-54264384D01*
X124308373Y-54230037D01*
X124374558Y-54223518D01*
X124440740Y-54217000D01*
X124529260Y-54217000D01*
X124595442Y-54223518D01*
X124595442Y-54223518D01*
G37*
G36*
X102853442Y-54223518D02*
X102919627Y-54230037D01*
X103032853Y-54264384D01*
X103089467Y-54281557D01*
X103228087Y-54355652D01*
X103245991Y-54365222D01*
X103281729Y-54394552D01*
X103383186Y-54477814D01*
X103466448Y-54579271D01*
X103495778Y-54615009D01*
X103495779Y-54615011D01*
X103579443Y-54771533D01*
X103579443Y-54771534D01*
X103630963Y-54941373D01*
X103648359Y-55118000D01*
X103630963Y-55294627D01*
X103596616Y-55407853D01*
X103579443Y-55464467D01*
X103505348Y-55603087D01*
X103495778Y-55620991D01*
X103466448Y-55656729D01*
X103383186Y-55758186D01*
X103281729Y-55841448D01*
X103245991Y-55870778D01*
X103245989Y-55870779D01*
X103089467Y-55954443D01*
X103032853Y-55971616D01*
X102919627Y-56005963D01*
X102853443Y-56012481D01*
X102787260Y-56019000D01*
X102698740Y-56019000D01*
X102632557Y-56012481D01*
X102566373Y-56005963D01*
X102453147Y-55971616D01*
X102396533Y-55954443D01*
X102240011Y-55870779D01*
X102240009Y-55870778D01*
X102204271Y-55841448D01*
X102102814Y-55758186D01*
X102019552Y-55656729D01*
X101990222Y-55620991D01*
X101980652Y-55603087D01*
X101906557Y-55464467D01*
X101889384Y-55407853D01*
X101855037Y-55294627D01*
X101837641Y-55118000D01*
X101855037Y-54941373D01*
X101906557Y-54771534D01*
X101906557Y-54771533D01*
X101990221Y-54615011D01*
X101990222Y-54615009D01*
X102019552Y-54579271D01*
X102102814Y-54477814D01*
X102204271Y-54394552D01*
X102240009Y-54365222D01*
X102257913Y-54355652D01*
X102396533Y-54281557D01*
X102453147Y-54264384D01*
X102566373Y-54230037D01*
X102632558Y-54223518D01*
X102698740Y-54217000D01*
X102787260Y-54217000D01*
X102853442Y-54223518D01*
X102853442Y-54223518D01*
G37*
G36*
X100313442Y-54223518D02*
X100379627Y-54230037D01*
X100492853Y-54264384D01*
X100549467Y-54281557D01*
X100688087Y-54355652D01*
X100705991Y-54365222D01*
X100741729Y-54394552D01*
X100843186Y-54477814D01*
X100926448Y-54579271D01*
X100955778Y-54615009D01*
X100955779Y-54615011D01*
X101039443Y-54771533D01*
X101039443Y-54771534D01*
X101090963Y-54941373D01*
X101108359Y-55118000D01*
X101090963Y-55294627D01*
X101056616Y-55407853D01*
X101039443Y-55464467D01*
X100965348Y-55603087D01*
X100955778Y-55620991D01*
X100926448Y-55656729D01*
X100843186Y-55758186D01*
X100741729Y-55841448D01*
X100705991Y-55870778D01*
X100705989Y-55870779D01*
X100549467Y-55954443D01*
X100492853Y-55971616D01*
X100379627Y-56005963D01*
X100313443Y-56012481D01*
X100247260Y-56019000D01*
X100158740Y-56019000D01*
X100092557Y-56012481D01*
X100026373Y-56005963D01*
X99913147Y-55971616D01*
X99856533Y-55954443D01*
X99700011Y-55870779D01*
X99700009Y-55870778D01*
X99664271Y-55841448D01*
X99562814Y-55758186D01*
X99479552Y-55656729D01*
X99450222Y-55620991D01*
X99440652Y-55603087D01*
X99366557Y-55464467D01*
X99349384Y-55407853D01*
X99315037Y-55294627D01*
X99297641Y-55118000D01*
X99315037Y-54941373D01*
X99366557Y-54771534D01*
X99366557Y-54771533D01*
X99450221Y-54615011D01*
X99450222Y-54615009D01*
X99479552Y-54579271D01*
X99562814Y-54477814D01*
X99664271Y-54394552D01*
X99700009Y-54365222D01*
X99717913Y-54355652D01*
X99856533Y-54281557D01*
X99913147Y-54264384D01*
X100026373Y-54230037D01*
X100092558Y-54223518D01*
X100158740Y-54217000D01*
X100247260Y-54217000D01*
X100313442Y-54223518D01*
X100313442Y-54223518D01*
G37*
G36*
X148827442Y-54223518D02*
X148893627Y-54230037D01*
X149006853Y-54264384D01*
X149063467Y-54281557D01*
X149202087Y-54355652D01*
X149219991Y-54365222D01*
X149255729Y-54394552D01*
X149357186Y-54477814D01*
X149440448Y-54579271D01*
X149469778Y-54615009D01*
X149469779Y-54615011D01*
X149553443Y-54771533D01*
X149553443Y-54771534D01*
X149604963Y-54941373D01*
X149622359Y-55118000D01*
X149604963Y-55294627D01*
X149570616Y-55407853D01*
X149553443Y-55464467D01*
X149479348Y-55603087D01*
X149469778Y-55620991D01*
X149440448Y-55656729D01*
X149357186Y-55758186D01*
X149255729Y-55841448D01*
X149219991Y-55870778D01*
X149219989Y-55870779D01*
X149063467Y-55954443D01*
X149006853Y-55971616D01*
X148893627Y-56005963D01*
X148827443Y-56012481D01*
X148761260Y-56019000D01*
X148672740Y-56019000D01*
X148606557Y-56012481D01*
X148540373Y-56005963D01*
X148427147Y-55971616D01*
X148370533Y-55954443D01*
X148214011Y-55870779D01*
X148214009Y-55870778D01*
X148178271Y-55841448D01*
X148076814Y-55758186D01*
X147993552Y-55656729D01*
X147964222Y-55620991D01*
X147954652Y-55603087D01*
X147880557Y-55464467D01*
X147863384Y-55407853D01*
X147829037Y-55294627D01*
X147811641Y-55118000D01*
X147829037Y-54941373D01*
X147880557Y-54771534D01*
X147880557Y-54771533D01*
X147964221Y-54615011D01*
X147964222Y-54615009D01*
X147993552Y-54579271D01*
X148076814Y-54477814D01*
X148178271Y-54394552D01*
X148214009Y-54365222D01*
X148231913Y-54355652D01*
X148370533Y-54281557D01*
X148427147Y-54264384D01*
X148540373Y-54230037D01*
X148606558Y-54223518D01*
X148672740Y-54217000D01*
X148761260Y-54217000D01*
X148827442Y-54223518D01*
X148827442Y-54223518D01*
G37*
G36*
X102853442Y-51683518D02*
X102919627Y-51690037D01*
X103032853Y-51724384D01*
X103089467Y-51741557D01*
X103228087Y-51815652D01*
X103245991Y-51825222D01*
X103281729Y-51854552D01*
X103383186Y-51937814D01*
X103466448Y-52039271D01*
X103495778Y-52075009D01*
X103495779Y-52075011D01*
X103579443Y-52231533D01*
X103579443Y-52231534D01*
X103630963Y-52401373D01*
X103648359Y-52578000D01*
X103630963Y-52754627D01*
X103596616Y-52867853D01*
X103579443Y-52924467D01*
X103525994Y-53024461D01*
X103495778Y-53080991D01*
X103470845Y-53111372D01*
X103383186Y-53218186D01*
X103281729Y-53301448D01*
X103245991Y-53330778D01*
X103245989Y-53330779D01*
X103089467Y-53414443D01*
X103032853Y-53431616D01*
X102919627Y-53465963D01*
X102853443Y-53472481D01*
X102787260Y-53479000D01*
X102698740Y-53479000D01*
X102632557Y-53472481D01*
X102566373Y-53465963D01*
X102453147Y-53431616D01*
X102396533Y-53414443D01*
X102240011Y-53330779D01*
X102240009Y-53330778D01*
X102204271Y-53301448D01*
X102102814Y-53218186D01*
X102015155Y-53111372D01*
X101990222Y-53080991D01*
X101960006Y-53024461D01*
X101906557Y-52924467D01*
X101889384Y-52867853D01*
X101855037Y-52754627D01*
X101837641Y-52578000D01*
X101855037Y-52401373D01*
X101906557Y-52231534D01*
X101906557Y-52231533D01*
X101990221Y-52075011D01*
X101990222Y-52075009D01*
X102019552Y-52039271D01*
X102102814Y-51937814D01*
X102204271Y-51854552D01*
X102240009Y-51825222D01*
X102257913Y-51815652D01*
X102396533Y-51741557D01*
X102453147Y-51724384D01*
X102566373Y-51690037D01*
X102632558Y-51683518D01*
X102698740Y-51677000D01*
X102787260Y-51677000D01*
X102853442Y-51683518D01*
X102853442Y-51683518D01*
G37*
G36*
X127135442Y-51683518D02*
X127201627Y-51690037D01*
X127314853Y-51724384D01*
X127371467Y-51741557D01*
X127510087Y-51815652D01*
X127527991Y-51825222D01*
X127563729Y-51854552D01*
X127665186Y-51937814D01*
X127748448Y-52039271D01*
X127777778Y-52075009D01*
X127777779Y-52075011D01*
X127861443Y-52231533D01*
X127861443Y-52231534D01*
X127912963Y-52401373D01*
X127930359Y-52578000D01*
X127912963Y-52754627D01*
X127878616Y-52867853D01*
X127861443Y-52924467D01*
X127807994Y-53024461D01*
X127777778Y-53080991D01*
X127752845Y-53111372D01*
X127665186Y-53218186D01*
X127563729Y-53301448D01*
X127527991Y-53330778D01*
X127527989Y-53330779D01*
X127371467Y-53414443D01*
X127314853Y-53431616D01*
X127201627Y-53465963D01*
X127135443Y-53472481D01*
X127069260Y-53479000D01*
X126980740Y-53479000D01*
X126914557Y-53472481D01*
X126848373Y-53465963D01*
X126735147Y-53431616D01*
X126678533Y-53414443D01*
X126522011Y-53330779D01*
X126522009Y-53330778D01*
X126486271Y-53301448D01*
X126384814Y-53218186D01*
X126297155Y-53111372D01*
X126272222Y-53080991D01*
X126242006Y-53024461D01*
X126188557Y-52924467D01*
X126171384Y-52867853D01*
X126137037Y-52754627D01*
X126119641Y-52578000D01*
X126137037Y-52401373D01*
X126188557Y-52231534D01*
X126188557Y-52231533D01*
X126272221Y-52075011D01*
X126272222Y-52075009D01*
X126301552Y-52039271D01*
X126384814Y-51937814D01*
X126486271Y-51854552D01*
X126522009Y-51825222D01*
X126539913Y-51815652D01*
X126678533Y-51741557D01*
X126735147Y-51724384D01*
X126848373Y-51690037D01*
X126914558Y-51683518D01*
X126980740Y-51677000D01*
X127069260Y-51677000D01*
X127135442Y-51683518D01*
X127135442Y-51683518D01*
G37*
G36*
X124595442Y-51683518D02*
X124661627Y-51690037D01*
X124774853Y-51724384D01*
X124831467Y-51741557D01*
X124970087Y-51815652D01*
X124987991Y-51825222D01*
X125023729Y-51854552D01*
X125125186Y-51937814D01*
X125208448Y-52039271D01*
X125237778Y-52075009D01*
X125237779Y-52075011D01*
X125321443Y-52231533D01*
X125321443Y-52231534D01*
X125372963Y-52401373D01*
X125390359Y-52578000D01*
X125372963Y-52754627D01*
X125338616Y-52867853D01*
X125321443Y-52924467D01*
X125267994Y-53024461D01*
X125237778Y-53080991D01*
X125212845Y-53111372D01*
X125125186Y-53218186D01*
X125023729Y-53301448D01*
X124987991Y-53330778D01*
X124987989Y-53330779D01*
X124831467Y-53414443D01*
X124774853Y-53431616D01*
X124661627Y-53465963D01*
X124595443Y-53472481D01*
X124529260Y-53479000D01*
X124440740Y-53479000D01*
X124374557Y-53472481D01*
X124308373Y-53465963D01*
X124195147Y-53431616D01*
X124138533Y-53414443D01*
X123982011Y-53330779D01*
X123982009Y-53330778D01*
X123946271Y-53301448D01*
X123844814Y-53218186D01*
X123757155Y-53111372D01*
X123732222Y-53080991D01*
X123702006Y-53024461D01*
X123648557Y-52924467D01*
X123631384Y-52867853D01*
X123597037Y-52754627D01*
X123579641Y-52578000D01*
X123597037Y-52401373D01*
X123648557Y-52231534D01*
X123648557Y-52231533D01*
X123732221Y-52075011D01*
X123732222Y-52075009D01*
X123761552Y-52039271D01*
X123844814Y-51937814D01*
X123946271Y-51854552D01*
X123982009Y-51825222D01*
X123999913Y-51815652D01*
X124138533Y-51741557D01*
X124195147Y-51724384D01*
X124308373Y-51690037D01*
X124374558Y-51683518D01*
X124440740Y-51677000D01*
X124529260Y-51677000D01*
X124595442Y-51683518D01*
X124595442Y-51683518D01*
G37*
G36*
X148827442Y-51683518D02*
X148893627Y-51690037D01*
X149006853Y-51724384D01*
X149063467Y-51741557D01*
X149202087Y-51815652D01*
X149219991Y-51825222D01*
X149255729Y-51854552D01*
X149357186Y-51937814D01*
X149440448Y-52039271D01*
X149469778Y-52075009D01*
X149469779Y-52075011D01*
X149553443Y-52231533D01*
X149553443Y-52231534D01*
X149604963Y-52401373D01*
X149622359Y-52578000D01*
X149604963Y-52754627D01*
X149570616Y-52867853D01*
X149553443Y-52924467D01*
X149499994Y-53024461D01*
X149469778Y-53080991D01*
X149444845Y-53111372D01*
X149357186Y-53218186D01*
X149255729Y-53301448D01*
X149219991Y-53330778D01*
X149219989Y-53330779D01*
X149063467Y-53414443D01*
X149006853Y-53431616D01*
X148893627Y-53465963D01*
X148827443Y-53472481D01*
X148761260Y-53479000D01*
X148672740Y-53479000D01*
X148606557Y-53472481D01*
X148540373Y-53465963D01*
X148427147Y-53431616D01*
X148370533Y-53414443D01*
X148214011Y-53330779D01*
X148214009Y-53330778D01*
X148178271Y-53301448D01*
X148076814Y-53218186D01*
X147989155Y-53111372D01*
X147964222Y-53080991D01*
X147934006Y-53024461D01*
X147880557Y-52924467D01*
X147863384Y-52867853D01*
X147829037Y-52754627D01*
X147811641Y-52578000D01*
X147829037Y-52401373D01*
X147880557Y-52231534D01*
X147880557Y-52231533D01*
X147964221Y-52075011D01*
X147964222Y-52075009D01*
X147993552Y-52039271D01*
X148076814Y-51937814D01*
X148178271Y-51854552D01*
X148214009Y-51825222D01*
X148231913Y-51815652D01*
X148370533Y-51741557D01*
X148427147Y-51724384D01*
X148540373Y-51690037D01*
X148606558Y-51683518D01*
X148672740Y-51677000D01*
X148761260Y-51677000D01*
X148827442Y-51683518D01*
X148827442Y-51683518D01*
G37*
G36*
X151367442Y-51683518D02*
X151433627Y-51690037D01*
X151546853Y-51724384D01*
X151603467Y-51741557D01*
X151742087Y-51815652D01*
X151759991Y-51825222D01*
X151795729Y-51854552D01*
X151897186Y-51937814D01*
X151980448Y-52039271D01*
X152009778Y-52075009D01*
X152009779Y-52075011D01*
X152093443Y-52231533D01*
X152093443Y-52231534D01*
X152144963Y-52401373D01*
X152162359Y-52578000D01*
X152144963Y-52754627D01*
X152110616Y-52867853D01*
X152093443Y-52924467D01*
X152039994Y-53024461D01*
X152009778Y-53080991D01*
X151984845Y-53111372D01*
X151897186Y-53218186D01*
X151795729Y-53301448D01*
X151759991Y-53330778D01*
X151759989Y-53330779D01*
X151603467Y-53414443D01*
X151546853Y-53431616D01*
X151433627Y-53465963D01*
X151367443Y-53472481D01*
X151301260Y-53479000D01*
X151212740Y-53479000D01*
X151146557Y-53472481D01*
X151080373Y-53465963D01*
X150967147Y-53431616D01*
X150910533Y-53414443D01*
X150754011Y-53330779D01*
X150754009Y-53330778D01*
X150718271Y-53301448D01*
X150616814Y-53218186D01*
X150529155Y-53111372D01*
X150504222Y-53080991D01*
X150474006Y-53024461D01*
X150420557Y-52924467D01*
X150403384Y-52867853D01*
X150369037Y-52754627D01*
X150351641Y-52578000D01*
X150369037Y-52401373D01*
X150420557Y-52231534D01*
X150420557Y-52231533D01*
X150504221Y-52075011D01*
X150504222Y-52075009D01*
X150533552Y-52039271D01*
X150616814Y-51937814D01*
X150718271Y-51854552D01*
X150754009Y-51825222D01*
X150771913Y-51815652D01*
X150910533Y-51741557D01*
X150967147Y-51724384D01*
X151080373Y-51690037D01*
X151146558Y-51683518D01*
X151212740Y-51677000D01*
X151301260Y-51677000D01*
X151367442Y-51683518D01*
X151367442Y-51683518D01*
G37*
G36*
X100313442Y-51683518D02*
X100379627Y-51690037D01*
X100492853Y-51724384D01*
X100549467Y-51741557D01*
X100688087Y-51815652D01*
X100705991Y-51825222D01*
X100741729Y-51854552D01*
X100843186Y-51937814D01*
X100926448Y-52039271D01*
X100955778Y-52075009D01*
X100955779Y-52075011D01*
X101039443Y-52231533D01*
X101039443Y-52231534D01*
X101090963Y-52401373D01*
X101108359Y-52578000D01*
X101090963Y-52754627D01*
X101056616Y-52867853D01*
X101039443Y-52924467D01*
X100985994Y-53024461D01*
X100955778Y-53080991D01*
X100930845Y-53111372D01*
X100843186Y-53218186D01*
X100741729Y-53301448D01*
X100705991Y-53330778D01*
X100705989Y-53330779D01*
X100549467Y-53414443D01*
X100492853Y-53431616D01*
X100379627Y-53465963D01*
X100313443Y-53472481D01*
X100247260Y-53479000D01*
X100158740Y-53479000D01*
X100092557Y-53472481D01*
X100026373Y-53465963D01*
X99913147Y-53431616D01*
X99856533Y-53414443D01*
X99700011Y-53330779D01*
X99700009Y-53330778D01*
X99664271Y-53301448D01*
X99562814Y-53218186D01*
X99475155Y-53111372D01*
X99450222Y-53080991D01*
X99420006Y-53024461D01*
X99366557Y-52924467D01*
X99349384Y-52867853D01*
X99315037Y-52754627D01*
X99297641Y-52578000D01*
X99315037Y-52401373D01*
X99366557Y-52231534D01*
X99366557Y-52231533D01*
X99450221Y-52075011D01*
X99450222Y-52075009D01*
X99479552Y-52039271D01*
X99562814Y-51937814D01*
X99664271Y-51854552D01*
X99700009Y-51825222D01*
X99717913Y-51815652D01*
X99856533Y-51741557D01*
X99913147Y-51724384D01*
X100026373Y-51690037D01*
X100092558Y-51683518D01*
X100158740Y-51677000D01*
X100247260Y-51677000D01*
X100313442Y-51683518D01*
X100313442Y-51683518D01*
G37*
G36*
X81970982Y-51342018D02*
X82005897Y-51352610D01*
X82038085Y-51369815D01*
X82066293Y-51392964D01*
X82089442Y-51421172D01*
X82106647Y-51453360D01*
X82117239Y-51488275D01*
X82121420Y-51530732D01*
X82121420Y-52996942D01*
X82117239Y-53039399D01*
X82106647Y-53074314D01*
X82089442Y-53106502D01*
X82066293Y-53134710D01*
X82038085Y-53157859D01*
X82005897Y-53175064D01*
X81970982Y-53185656D01*
X81928525Y-53189837D01*
X80787315Y-53189837D01*
X80744858Y-53185656D01*
X80709943Y-53175064D01*
X80677755Y-53157859D01*
X80649547Y-53134710D01*
X80626398Y-53106502D01*
X80609193Y-53074314D01*
X80598601Y-53039399D01*
X80594420Y-52996942D01*
X80594420Y-51530732D01*
X80598601Y-51488275D01*
X80609193Y-51453360D01*
X80626398Y-51421172D01*
X80649547Y-51392964D01*
X80677755Y-51369815D01*
X80709943Y-51352610D01*
X80744858Y-51342018D01*
X80787315Y-51337837D01*
X81928525Y-51337837D01*
X81970982Y-51342018D01*
X81970982Y-51342018D01*
G37*
G36*
X84945982Y-51342018D02*
X84980897Y-51352610D01*
X85013085Y-51369815D01*
X85041293Y-51392964D01*
X85064442Y-51421172D01*
X85081647Y-51453360D01*
X85092239Y-51488275D01*
X85096420Y-51530732D01*
X85096420Y-52996942D01*
X85092239Y-53039399D01*
X85081647Y-53074314D01*
X85064442Y-53106502D01*
X85041293Y-53134710D01*
X85013085Y-53157859D01*
X84980897Y-53175064D01*
X84945982Y-53185656D01*
X84903525Y-53189837D01*
X83762315Y-53189837D01*
X83719858Y-53185656D01*
X83684943Y-53175064D01*
X83652755Y-53157859D01*
X83624547Y-53134710D01*
X83601398Y-53106502D01*
X83584193Y-53074314D01*
X83573601Y-53039399D01*
X83569420Y-52996942D01*
X83569420Y-51530732D01*
X83573601Y-51488275D01*
X83584193Y-51453360D01*
X83601398Y-51421172D01*
X83624547Y-51392964D01*
X83652755Y-51369815D01*
X83684943Y-51352610D01*
X83719858Y-51342018D01*
X83762315Y-51337837D01*
X84903525Y-51337837D01*
X84945982Y-51342018D01*
X84945982Y-51342018D01*
G37*
G36*
X148827443Y-49143519D02*
X148893627Y-49150037D01*
X149006853Y-49184384D01*
X149063467Y-49201557D01*
X149202087Y-49275652D01*
X149219991Y-49285222D01*
X149255729Y-49314552D01*
X149357186Y-49397814D01*
X149440448Y-49499271D01*
X149469778Y-49535009D01*
X149469779Y-49535011D01*
X149553443Y-49691533D01*
X149553443Y-49691534D01*
X149604963Y-49861373D01*
X149622359Y-50038000D01*
X149604963Y-50214627D01*
X149570616Y-50327853D01*
X149553443Y-50384467D01*
X149479348Y-50523087D01*
X149469778Y-50540991D01*
X149440448Y-50576729D01*
X149357186Y-50678186D01*
X149255729Y-50761448D01*
X149219991Y-50790778D01*
X149219989Y-50790779D01*
X149063467Y-50874443D01*
X149006853Y-50891616D01*
X148893627Y-50925963D01*
X148827443Y-50932481D01*
X148761260Y-50939000D01*
X148672740Y-50939000D01*
X148606557Y-50932481D01*
X148540373Y-50925963D01*
X148427147Y-50891616D01*
X148370533Y-50874443D01*
X148214011Y-50790779D01*
X148214009Y-50790778D01*
X148178271Y-50761448D01*
X148076814Y-50678186D01*
X147993552Y-50576729D01*
X147964222Y-50540991D01*
X147954652Y-50523087D01*
X147880557Y-50384467D01*
X147863384Y-50327853D01*
X147829037Y-50214627D01*
X147811641Y-50038000D01*
X147829037Y-49861373D01*
X147880557Y-49691534D01*
X147880557Y-49691533D01*
X147964221Y-49535011D01*
X147964222Y-49535009D01*
X147993552Y-49499271D01*
X148076814Y-49397814D01*
X148178271Y-49314552D01*
X148214009Y-49285222D01*
X148231913Y-49275652D01*
X148370533Y-49201557D01*
X148427147Y-49184384D01*
X148540373Y-49150037D01*
X148606557Y-49143519D01*
X148672740Y-49137000D01*
X148761260Y-49137000D01*
X148827443Y-49143519D01*
X148827443Y-49143519D01*
G37*
G36*
X151367443Y-49143519D02*
X151433627Y-49150037D01*
X151546853Y-49184384D01*
X151603467Y-49201557D01*
X151742087Y-49275652D01*
X151759991Y-49285222D01*
X151795729Y-49314552D01*
X151897186Y-49397814D01*
X151980448Y-49499271D01*
X152009778Y-49535009D01*
X152009779Y-49535011D01*
X152093443Y-49691533D01*
X152093443Y-49691534D01*
X152144963Y-49861373D01*
X152162359Y-50038000D01*
X152144963Y-50214627D01*
X152110616Y-50327853D01*
X152093443Y-50384467D01*
X152019348Y-50523087D01*
X152009778Y-50540991D01*
X151980448Y-50576729D01*
X151897186Y-50678186D01*
X151795729Y-50761448D01*
X151759991Y-50790778D01*
X151759989Y-50790779D01*
X151603467Y-50874443D01*
X151546853Y-50891616D01*
X151433627Y-50925963D01*
X151367443Y-50932481D01*
X151301260Y-50939000D01*
X151212740Y-50939000D01*
X151146557Y-50932481D01*
X151080373Y-50925963D01*
X150967147Y-50891616D01*
X150910533Y-50874443D01*
X150754011Y-50790779D01*
X150754009Y-50790778D01*
X150718271Y-50761448D01*
X150616814Y-50678186D01*
X150533552Y-50576729D01*
X150504222Y-50540991D01*
X150494652Y-50523087D01*
X150420557Y-50384467D01*
X150403384Y-50327853D01*
X150369037Y-50214627D01*
X150351641Y-50038000D01*
X150369037Y-49861373D01*
X150420557Y-49691534D01*
X150420557Y-49691533D01*
X150504221Y-49535011D01*
X150504222Y-49535009D01*
X150533552Y-49499271D01*
X150616814Y-49397814D01*
X150718271Y-49314552D01*
X150754009Y-49285222D01*
X150771913Y-49275652D01*
X150910533Y-49201557D01*
X150967147Y-49184384D01*
X151080373Y-49150037D01*
X151146557Y-49143519D01*
X151212740Y-49137000D01*
X151301260Y-49137000D01*
X151367443Y-49143519D01*
X151367443Y-49143519D01*
G37*
G36*
X100313443Y-49143519D02*
X100379627Y-49150037D01*
X100492853Y-49184384D01*
X100549467Y-49201557D01*
X100688087Y-49275652D01*
X100705991Y-49285222D01*
X100741729Y-49314552D01*
X100843186Y-49397814D01*
X100926448Y-49499271D01*
X100955778Y-49535009D01*
X100955779Y-49535011D01*
X101039443Y-49691533D01*
X101039443Y-49691534D01*
X101090963Y-49861373D01*
X101108359Y-50038000D01*
X101090963Y-50214627D01*
X101056616Y-50327853D01*
X101039443Y-50384467D01*
X100965348Y-50523087D01*
X100955778Y-50540991D01*
X100926448Y-50576729D01*
X100843186Y-50678186D01*
X100741729Y-50761448D01*
X100705991Y-50790778D01*
X100705989Y-50790779D01*
X100549467Y-50874443D01*
X100492853Y-50891616D01*
X100379627Y-50925963D01*
X100313443Y-50932481D01*
X100247260Y-50939000D01*
X100158740Y-50939000D01*
X100092557Y-50932481D01*
X100026373Y-50925963D01*
X99913147Y-50891616D01*
X99856533Y-50874443D01*
X99700011Y-50790779D01*
X99700009Y-50790778D01*
X99664271Y-50761448D01*
X99562814Y-50678186D01*
X99479552Y-50576729D01*
X99450222Y-50540991D01*
X99440652Y-50523087D01*
X99366557Y-50384467D01*
X99349384Y-50327853D01*
X99315037Y-50214627D01*
X99297641Y-50038000D01*
X99315037Y-49861373D01*
X99366557Y-49691534D01*
X99366557Y-49691533D01*
X99450221Y-49535011D01*
X99450222Y-49535009D01*
X99479552Y-49499271D01*
X99562814Y-49397814D01*
X99664271Y-49314552D01*
X99700009Y-49285222D01*
X99717913Y-49275652D01*
X99856533Y-49201557D01*
X99913147Y-49184384D01*
X100026373Y-49150037D01*
X100092557Y-49143519D01*
X100158740Y-49137000D01*
X100247260Y-49137000D01*
X100313443Y-49143519D01*
X100313443Y-49143519D01*
G37*
G36*
X127135443Y-49143519D02*
X127201627Y-49150037D01*
X127314853Y-49184384D01*
X127371467Y-49201557D01*
X127510087Y-49275652D01*
X127527991Y-49285222D01*
X127563729Y-49314552D01*
X127665186Y-49397814D01*
X127748448Y-49499271D01*
X127777778Y-49535009D01*
X127777779Y-49535011D01*
X127861443Y-49691533D01*
X127861443Y-49691534D01*
X127912963Y-49861373D01*
X127930359Y-50038000D01*
X127912963Y-50214627D01*
X127878616Y-50327853D01*
X127861443Y-50384467D01*
X127787348Y-50523087D01*
X127777778Y-50540991D01*
X127748448Y-50576729D01*
X127665186Y-50678186D01*
X127563729Y-50761448D01*
X127527991Y-50790778D01*
X127527989Y-50790779D01*
X127371467Y-50874443D01*
X127314853Y-50891616D01*
X127201627Y-50925963D01*
X127135443Y-50932481D01*
X127069260Y-50939000D01*
X126980740Y-50939000D01*
X126914557Y-50932481D01*
X126848373Y-50925963D01*
X126735147Y-50891616D01*
X126678533Y-50874443D01*
X126522011Y-50790779D01*
X126522009Y-50790778D01*
X126486271Y-50761448D01*
X126384814Y-50678186D01*
X126301552Y-50576729D01*
X126272222Y-50540991D01*
X126262652Y-50523087D01*
X126188557Y-50384467D01*
X126171384Y-50327853D01*
X126137037Y-50214627D01*
X126119641Y-50038000D01*
X126137037Y-49861373D01*
X126188557Y-49691534D01*
X126188557Y-49691533D01*
X126272221Y-49535011D01*
X126272222Y-49535009D01*
X126301552Y-49499271D01*
X126384814Y-49397814D01*
X126486271Y-49314552D01*
X126522009Y-49285222D01*
X126539913Y-49275652D01*
X126678533Y-49201557D01*
X126735147Y-49184384D01*
X126848373Y-49150037D01*
X126914557Y-49143519D01*
X126980740Y-49137000D01*
X127069260Y-49137000D01*
X127135443Y-49143519D01*
X127135443Y-49143519D01*
G37*
G36*
X124595443Y-49143519D02*
X124661627Y-49150037D01*
X124774853Y-49184384D01*
X124831467Y-49201557D01*
X124970087Y-49275652D01*
X124987991Y-49285222D01*
X125023729Y-49314552D01*
X125125186Y-49397814D01*
X125208448Y-49499271D01*
X125237778Y-49535009D01*
X125237779Y-49535011D01*
X125321443Y-49691533D01*
X125321443Y-49691534D01*
X125372963Y-49861373D01*
X125390359Y-50038000D01*
X125372963Y-50214627D01*
X125338616Y-50327853D01*
X125321443Y-50384467D01*
X125247348Y-50523087D01*
X125237778Y-50540991D01*
X125208448Y-50576729D01*
X125125186Y-50678186D01*
X125023729Y-50761448D01*
X124987991Y-50790778D01*
X124987989Y-50790779D01*
X124831467Y-50874443D01*
X124774853Y-50891616D01*
X124661627Y-50925963D01*
X124595443Y-50932481D01*
X124529260Y-50939000D01*
X124440740Y-50939000D01*
X124374557Y-50932481D01*
X124308373Y-50925963D01*
X124195147Y-50891616D01*
X124138533Y-50874443D01*
X123982011Y-50790779D01*
X123982009Y-50790778D01*
X123946271Y-50761448D01*
X123844814Y-50678186D01*
X123761552Y-50576729D01*
X123732222Y-50540991D01*
X123722652Y-50523087D01*
X123648557Y-50384467D01*
X123631384Y-50327853D01*
X123597037Y-50214627D01*
X123579641Y-50038000D01*
X123597037Y-49861373D01*
X123648557Y-49691534D01*
X123648557Y-49691533D01*
X123732221Y-49535011D01*
X123732222Y-49535009D01*
X123761552Y-49499271D01*
X123844814Y-49397814D01*
X123946271Y-49314552D01*
X123982009Y-49285222D01*
X123999913Y-49275652D01*
X124138533Y-49201557D01*
X124195147Y-49184384D01*
X124308373Y-49150037D01*
X124374557Y-49143519D01*
X124440740Y-49137000D01*
X124529260Y-49137000D01*
X124595443Y-49143519D01*
X124595443Y-49143519D01*
G37*
G36*
X102853443Y-49143519D02*
X102919627Y-49150037D01*
X103032853Y-49184384D01*
X103089467Y-49201557D01*
X103228087Y-49275652D01*
X103245991Y-49285222D01*
X103281729Y-49314552D01*
X103383186Y-49397814D01*
X103466448Y-49499271D01*
X103495778Y-49535009D01*
X103495779Y-49535011D01*
X103579443Y-49691533D01*
X103579443Y-49691534D01*
X103630963Y-49861373D01*
X103648359Y-50038000D01*
X103630963Y-50214627D01*
X103596616Y-50327853D01*
X103579443Y-50384467D01*
X103505348Y-50523087D01*
X103495778Y-50540991D01*
X103466448Y-50576729D01*
X103383186Y-50678186D01*
X103281729Y-50761448D01*
X103245991Y-50790778D01*
X103245989Y-50790779D01*
X103089467Y-50874443D01*
X103032853Y-50891616D01*
X102919627Y-50925963D01*
X102853443Y-50932481D01*
X102787260Y-50939000D01*
X102698740Y-50939000D01*
X102632557Y-50932481D01*
X102566373Y-50925963D01*
X102453147Y-50891616D01*
X102396533Y-50874443D01*
X102240011Y-50790779D01*
X102240009Y-50790778D01*
X102204271Y-50761448D01*
X102102814Y-50678186D01*
X102019552Y-50576729D01*
X101990222Y-50540991D01*
X101980652Y-50523087D01*
X101906557Y-50384467D01*
X101889384Y-50327853D01*
X101855037Y-50214627D01*
X101837641Y-50038000D01*
X101855037Y-49861373D01*
X101906557Y-49691534D01*
X101906557Y-49691533D01*
X101990221Y-49535011D01*
X101990222Y-49535009D01*
X102019552Y-49499271D01*
X102102814Y-49397814D01*
X102204271Y-49314552D01*
X102240009Y-49285222D01*
X102257913Y-49275652D01*
X102396533Y-49201557D01*
X102453147Y-49184384D01*
X102566373Y-49150037D01*
X102632557Y-49143519D01*
X102698740Y-49137000D01*
X102787260Y-49137000D01*
X102853443Y-49143519D01*
X102853443Y-49143519D01*
G37*
G36*
X148827443Y-46603519D02*
X148893627Y-46610037D01*
X149006853Y-46644384D01*
X149063467Y-46661557D01*
X149202087Y-46735652D01*
X149219991Y-46745222D01*
X149255729Y-46774552D01*
X149357186Y-46857814D01*
X149440448Y-46959271D01*
X149469778Y-46995009D01*
X149469779Y-46995011D01*
X149553443Y-47151533D01*
X149553443Y-47151534D01*
X149604963Y-47321373D01*
X149622359Y-47498000D01*
X149604963Y-47674627D01*
X149570616Y-47787853D01*
X149553443Y-47844467D01*
X149479348Y-47983087D01*
X149469778Y-48000991D01*
X149440448Y-48036729D01*
X149357186Y-48138186D01*
X149255729Y-48221448D01*
X149219991Y-48250778D01*
X149219989Y-48250779D01*
X149063467Y-48334443D01*
X149006853Y-48351616D01*
X148893627Y-48385963D01*
X148827442Y-48392482D01*
X148761260Y-48399000D01*
X148672740Y-48399000D01*
X148606558Y-48392482D01*
X148540373Y-48385963D01*
X148427147Y-48351616D01*
X148370533Y-48334443D01*
X148214011Y-48250779D01*
X148214009Y-48250778D01*
X148178271Y-48221448D01*
X148076814Y-48138186D01*
X147993552Y-48036729D01*
X147964222Y-48000991D01*
X147954652Y-47983087D01*
X147880557Y-47844467D01*
X147863384Y-47787853D01*
X147829037Y-47674627D01*
X147811641Y-47498000D01*
X147829037Y-47321373D01*
X147880557Y-47151534D01*
X147880557Y-47151533D01*
X147964221Y-46995011D01*
X147964222Y-46995009D01*
X147993552Y-46959271D01*
X148076814Y-46857814D01*
X148178271Y-46774552D01*
X148214009Y-46745222D01*
X148231913Y-46735652D01*
X148370533Y-46661557D01*
X148427147Y-46644384D01*
X148540373Y-46610037D01*
X148606557Y-46603519D01*
X148672740Y-46597000D01*
X148761260Y-46597000D01*
X148827443Y-46603519D01*
X148827443Y-46603519D01*
G37*
G36*
X127135443Y-46603519D02*
X127201627Y-46610037D01*
X127314853Y-46644384D01*
X127371467Y-46661557D01*
X127510087Y-46735652D01*
X127527991Y-46745222D01*
X127563729Y-46774552D01*
X127665186Y-46857814D01*
X127748448Y-46959271D01*
X127777778Y-46995009D01*
X127777779Y-46995011D01*
X127861443Y-47151533D01*
X127861443Y-47151534D01*
X127912963Y-47321373D01*
X127930359Y-47498000D01*
X127912963Y-47674627D01*
X127878616Y-47787853D01*
X127861443Y-47844467D01*
X127787348Y-47983087D01*
X127777778Y-48000991D01*
X127748448Y-48036729D01*
X127665186Y-48138186D01*
X127563729Y-48221448D01*
X127527991Y-48250778D01*
X127527989Y-48250779D01*
X127371467Y-48334443D01*
X127314853Y-48351616D01*
X127201627Y-48385963D01*
X127135442Y-48392482D01*
X127069260Y-48399000D01*
X126980740Y-48399000D01*
X126914558Y-48392482D01*
X126848373Y-48385963D01*
X126735147Y-48351616D01*
X126678533Y-48334443D01*
X126522011Y-48250779D01*
X126522009Y-48250778D01*
X126486271Y-48221448D01*
X126384814Y-48138186D01*
X126301552Y-48036729D01*
X126272222Y-48000991D01*
X126262652Y-47983087D01*
X126188557Y-47844467D01*
X126171384Y-47787853D01*
X126137037Y-47674627D01*
X126119641Y-47498000D01*
X126137037Y-47321373D01*
X126188557Y-47151534D01*
X126188557Y-47151533D01*
X126272221Y-46995011D01*
X126272222Y-46995009D01*
X126301552Y-46959271D01*
X126384814Y-46857814D01*
X126486271Y-46774552D01*
X126522009Y-46745222D01*
X126539913Y-46735652D01*
X126678533Y-46661557D01*
X126735147Y-46644384D01*
X126848373Y-46610037D01*
X126914557Y-46603519D01*
X126980740Y-46597000D01*
X127069260Y-46597000D01*
X127135443Y-46603519D01*
X127135443Y-46603519D01*
G37*
G36*
X124595443Y-46603519D02*
X124661627Y-46610037D01*
X124774853Y-46644384D01*
X124831467Y-46661557D01*
X124970087Y-46735652D01*
X124987991Y-46745222D01*
X125023729Y-46774552D01*
X125125186Y-46857814D01*
X125208448Y-46959271D01*
X125237778Y-46995009D01*
X125237779Y-46995011D01*
X125321443Y-47151533D01*
X125321443Y-47151534D01*
X125372963Y-47321373D01*
X125390359Y-47498000D01*
X125372963Y-47674627D01*
X125338616Y-47787853D01*
X125321443Y-47844467D01*
X125247348Y-47983087D01*
X125237778Y-48000991D01*
X125208448Y-48036729D01*
X125125186Y-48138186D01*
X125023729Y-48221448D01*
X124987991Y-48250778D01*
X124987989Y-48250779D01*
X124831467Y-48334443D01*
X124774853Y-48351616D01*
X124661627Y-48385963D01*
X124595442Y-48392482D01*
X124529260Y-48399000D01*
X124440740Y-48399000D01*
X124374558Y-48392482D01*
X124308373Y-48385963D01*
X124195147Y-48351616D01*
X124138533Y-48334443D01*
X123982011Y-48250779D01*
X123982009Y-48250778D01*
X123946271Y-48221448D01*
X123844814Y-48138186D01*
X123761552Y-48036729D01*
X123732222Y-48000991D01*
X123722652Y-47983087D01*
X123648557Y-47844467D01*
X123631384Y-47787853D01*
X123597037Y-47674627D01*
X123579641Y-47498000D01*
X123597037Y-47321373D01*
X123648557Y-47151534D01*
X123648557Y-47151533D01*
X123732221Y-46995011D01*
X123732222Y-46995009D01*
X123761552Y-46959271D01*
X123844814Y-46857814D01*
X123946271Y-46774552D01*
X123982009Y-46745222D01*
X123999913Y-46735652D01*
X124138533Y-46661557D01*
X124195147Y-46644384D01*
X124308373Y-46610037D01*
X124374557Y-46603519D01*
X124440740Y-46597000D01*
X124529260Y-46597000D01*
X124595443Y-46603519D01*
X124595443Y-46603519D01*
G37*
G36*
X102853443Y-46603519D02*
X102919627Y-46610037D01*
X103032853Y-46644384D01*
X103089467Y-46661557D01*
X103228087Y-46735652D01*
X103245991Y-46745222D01*
X103281729Y-46774552D01*
X103383186Y-46857814D01*
X103466448Y-46959271D01*
X103495778Y-46995009D01*
X103495779Y-46995011D01*
X103579443Y-47151533D01*
X103579443Y-47151534D01*
X103630963Y-47321373D01*
X103648359Y-47498000D01*
X103630963Y-47674627D01*
X103596616Y-47787853D01*
X103579443Y-47844467D01*
X103505348Y-47983087D01*
X103495778Y-48000991D01*
X103466448Y-48036729D01*
X103383186Y-48138186D01*
X103281729Y-48221448D01*
X103245991Y-48250778D01*
X103245989Y-48250779D01*
X103089467Y-48334443D01*
X103032853Y-48351616D01*
X102919627Y-48385963D01*
X102853442Y-48392482D01*
X102787260Y-48399000D01*
X102698740Y-48399000D01*
X102632558Y-48392482D01*
X102566373Y-48385963D01*
X102453147Y-48351616D01*
X102396533Y-48334443D01*
X102240011Y-48250779D01*
X102240009Y-48250778D01*
X102204271Y-48221448D01*
X102102814Y-48138186D01*
X102019552Y-48036729D01*
X101990222Y-48000991D01*
X101980652Y-47983087D01*
X101906557Y-47844467D01*
X101889384Y-47787853D01*
X101855037Y-47674627D01*
X101837641Y-47498000D01*
X101855037Y-47321373D01*
X101906557Y-47151534D01*
X101906557Y-47151533D01*
X101990221Y-46995011D01*
X101990222Y-46995009D01*
X102019552Y-46959271D01*
X102102814Y-46857814D01*
X102204271Y-46774552D01*
X102240009Y-46745222D01*
X102257913Y-46735652D01*
X102396533Y-46661557D01*
X102453147Y-46644384D01*
X102566373Y-46610037D01*
X102632557Y-46603519D01*
X102698740Y-46597000D01*
X102787260Y-46597000D01*
X102853443Y-46603519D01*
X102853443Y-46603519D01*
G37*
G36*
X100313443Y-46603519D02*
X100379627Y-46610037D01*
X100492853Y-46644384D01*
X100549467Y-46661557D01*
X100688087Y-46735652D01*
X100705991Y-46745222D01*
X100741729Y-46774552D01*
X100843186Y-46857814D01*
X100926448Y-46959271D01*
X100955778Y-46995009D01*
X100955779Y-46995011D01*
X101039443Y-47151533D01*
X101039443Y-47151534D01*
X101090963Y-47321373D01*
X101108359Y-47498000D01*
X101090963Y-47674627D01*
X101056616Y-47787853D01*
X101039443Y-47844467D01*
X100965348Y-47983087D01*
X100955778Y-48000991D01*
X100926448Y-48036729D01*
X100843186Y-48138186D01*
X100741729Y-48221448D01*
X100705991Y-48250778D01*
X100705989Y-48250779D01*
X100549467Y-48334443D01*
X100492853Y-48351616D01*
X100379627Y-48385963D01*
X100313442Y-48392482D01*
X100247260Y-48399000D01*
X100158740Y-48399000D01*
X100092558Y-48392482D01*
X100026373Y-48385963D01*
X99913147Y-48351616D01*
X99856533Y-48334443D01*
X99700011Y-48250779D01*
X99700009Y-48250778D01*
X99664271Y-48221448D01*
X99562814Y-48138186D01*
X99479552Y-48036729D01*
X99450222Y-48000991D01*
X99440652Y-47983087D01*
X99366557Y-47844467D01*
X99349384Y-47787853D01*
X99315037Y-47674627D01*
X99297641Y-47498000D01*
X99315037Y-47321373D01*
X99366557Y-47151534D01*
X99366557Y-47151533D01*
X99450221Y-46995011D01*
X99450222Y-46995009D01*
X99479552Y-46959271D01*
X99562814Y-46857814D01*
X99664271Y-46774552D01*
X99700009Y-46745222D01*
X99717913Y-46735652D01*
X99856533Y-46661557D01*
X99913147Y-46644384D01*
X100026373Y-46610037D01*
X100092557Y-46603519D01*
X100158740Y-46597000D01*
X100247260Y-46597000D01*
X100313443Y-46603519D01*
X100313443Y-46603519D01*
G37*
G36*
X151367443Y-46603519D02*
X151433627Y-46610037D01*
X151546853Y-46644384D01*
X151603467Y-46661557D01*
X151742087Y-46735652D01*
X151759991Y-46745222D01*
X151795729Y-46774552D01*
X151897186Y-46857814D01*
X151980448Y-46959271D01*
X152009778Y-46995009D01*
X152009779Y-46995011D01*
X152093443Y-47151533D01*
X152093443Y-47151534D01*
X152144963Y-47321373D01*
X152162359Y-47498000D01*
X152144963Y-47674627D01*
X152110616Y-47787853D01*
X152093443Y-47844467D01*
X152019348Y-47983087D01*
X152009778Y-48000991D01*
X151980448Y-48036729D01*
X151897186Y-48138186D01*
X151795729Y-48221448D01*
X151759991Y-48250778D01*
X151759989Y-48250779D01*
X151603467Y-48334443D01*
X151546853Y-48351616D01*
X151433627Y-48385963D01*
X151367442Y-48392482D01*
X151301260Y-48399000D01*
X151212740Y-48399000D01*
X151146558Y-48392482D01*
X151080373Y-48385963D01*
X150967147Y-48351616D01*
X150910533Y-48334443D01*
X150754011Y-48250779D01*
X150754009Y-48250778D01*
X150718271Y-48221448D01*
X150616814Y-48138186D01*
X150533552Y-48036729D01*
X150504222Y-48000991D01*
X150494652Y-47983087D01*
X150420557Y-47844467D01*
X150403384Y-47787853D01*
X150369037Y-47674627D01*
X150351641Y-47498000D01*
X150369037Y-47321373D01*
X150420557Y-47151534D01*
X150420557Y-47151533D01*
X150504221Y-46995011D01*
X150504222Y-46995009D01*
X150533552Y-46959271D01*
X150616814Y-46857814D01*
X150718271Y-46774552D01*
X150754009Y-46745222D01*
X150771913Y-46735652D01*
X150910533Y-46661557D01*
X150967147Y-46644384D01*
X151080373Y-46610037D01*
X151146557Y-46603519D01*
X151212740Y-46597000D01*
X151301260Y-46597000D01*
X151367443Y-46603519D01*
X151367443Y-46603519D01*
G37*
G36*
X170814239Y-39991467D02*
X171128282Y-40053934D01*
X171719926Y-40299001D01*
X172009523Y-40492504D01*
X172252395Y-40654786D01*
X172705214Y-41107605D01*
X172705216Y-41107608D01*
X173060999Y-41640074D01*
X173182724Y-41933944D01*
X173306066Y-42231719D01*
X173431000Y-42859803D01*
X173431000Y-43500197D01*
X173368533Y-43814239D01*
X173306066Y-44128282D01*
X173060999Y-44719926D01*
X172783904Y-45134627D01*
X172705214Y-45252395D01*
X172252395Y-45705214D01*
X172252392Y-45705216D01*
X171719926Y-46060999D01*
X171128282Y-46306066D01*
X170814239Y-46368533D01*
X170500197Y-46431000D01*
X169859803Y-46431000D01*
X169545761Y-46368533D01*
X169231718Y-46306066D01*
X168640074Y-46060999D01*
X168107608Y-45705216D01*
X168107605Y-45705214D01*
X167654786Y-45252395D01*
X167576096Y-45134627D01*
X167299001Y-44719926D01*
X167053934Y-44128282D01*
X166991467Y-43814239D01*
X166929000Y-43500197D01*
X166929000Y-42859803D01*
X167053934Y-42231719D01*
X167177276Y-41933944D01*
X167299001Y-41640074D01*
X167654784Y-41107608D01*
X167654786Y-41107605D01*
X168107605Y-40654786D01*
X168350477Y-40492504D01*
X168640074Y-40299001D01*
X169231718Y-40053934D01*
X169545761Y-39991467D01*
X169859803Y-39929000D01*
X170500197Y-39929000D01*
X170814239Y-39991467D01*
X170814239Y-39991467D01*
G37*
G36*
X81914239Y-39991467D02*
X82228282Y-40053934D01*
X82819926Y-40299001D01*
X83109523Y-40492504D01*
X83352395Y-40654786D01*
X83805214Y-41107605D01*
X83805216Y-41107608D01*
X84160999Y-41640074D01*
X84282724Y-41933944D01*
X84406066Y-42231719D01*
X84531000Y-42859803D01*
X84531000Y-43500197D01*
X84468533Y-43814239D01*
X84406066Y-44128282D01*
X84160999Y-44719926D01*
X83883904Y-45134627D01*
X83805214Y-45252395D01*
X83352395Y-45705214D01*
X83352392Y-45705216D01*
X82819926Y-46060999D01*
X82228282Y-46306066D01*
X81914239Y-46368533D01*
X81600197Y-46431000D01*
X80959803Y-46431000D01*
X80645761Y-46368533D01*
X80331718Y-46306066D01*
X79740074Y-46060999D01*
X79207608Y-45705216D01*
X79207605Y-45705214D01*
X78754786Y-45252395D01*
X78676096Y-45134627D01*
X78399001Y-44719926D01*
X78153934Y-44128282D01*
X78091467Y-43814239D01*
X78029000Y-43500197D01*
X78029000Y-42859803D01*
X78153934Y-42231719D01*
X78277276Y-41933944D01*
X78399001Y-41640074D01*
X78754784Y-41107608D01*
X78754786Y-41107605D01*
X79207605Y-40654786D01*
X79450477Y-40492504D01*
X79740074Y-40299001D01*
X80331718Y-40053934D01*
X80645761Y-39991467D01*
X80959803Y-39929000D01*
X81600197Y-39929000D01*
X81914239Y-39991467D01*
X81914239Y-39991467D01*
G37*
G36*
X148827443Y-44063519D02*
X148893627Y-44070037D01*
X149006853Y-44104384D01*
X149063467Y-44121557D01*
X149202087Y-44195652D01*
X149219991Y-44205222D01*
X149255729Y-44234552D01*
X149357186Y-44317814D01*
X149440448Y-44419271D01*
X149469778Y-44455009D01*
X149469779Y-44455011D01*
X149553443Y-44611533D01*
X149553443Y-44611534D01*
X149604963Y-44781373D01*
X149622359Y-44958000D01*
X149604963Y-45134627D01*
X149601412Y-45146332D01*
X149553443Y-45304467D01*
X149540834Y-45328056D01*
X149469778Y-45460991D01*
X149440448Y-45496729D01*
X149357186Y-45598186D01*
X149255729Y-45681448D01*
X149219991Y-45710778D01*
X149219989Y-45710779D01*
X149063467Y-45794443D01*
X149006853Y-45811616D01*
X148893627Y-45845963D01*
X148827443Y-45852481D01*
X148761260Y-45859000D01*
X148672740Y-45859000D01*
X148606557Y-45852481D01*
X148540373Y-45845963D01*
X148427147Y-45811616D01*
X148370533Y-45794443D01*
X148214011Y-45710779D01*
X148214009Y-45710778D01*
X148178271Y-45681448D01*
X148076814Y-45598186D01*
X147993552Y-45496729D01*
X147964222Y-45460991D01*
X147893166Y-45328056D01*
X147880557Y-45304467D01*
X147832588Y-45146332D01*
X147829037Y-45134627D01*
X147811641Y-44958000D01*
X147829037Y-44781373D01*
X147880557Y-44611534D01*
X147880557Y-44611533D01*
X147964221Y-44455011D01*
X147964222Y-44455009D01*
X147993552Y-44419271D01*
X148076814Y-44317814D01*
X148178271Y-44234552D01*
X148214009Y-44205222D01*
X148231913Y-44195652D01*
X148370533Y-44121557D01*
X148427147Y-44104384D01*
X148540373Y-44070037D01*
X148606557Y-44063519D01*
X148672740Y-44057000D01*
X148761260Y-44057000D01*
X148827443Y-44063519D01*
X148827443Y-44063519D01*
G37*
G36*
X152158000Y-45859000D02*
X150356000Y-45859000D01*
X150356000Y-44057000D01*
X152158000Y-44057000D01*
X152158000Y-45859000D01*
X152158000Y-45859000D01*
G37*
G36*
X101104000Y-45859000D02*
X99302000Y-45859000D01*
X99302000Y-44057000D01*
X101104000Y-44057000D01*
X101104000Y-45859000D01*
X101104000Y-45859000D01*
G37*
G36*
X102853443Y-44063519D02*
X102919627Y-44070037D01*
X103032853Y-44104384D01*
X103089467Y-44121557D01*
X103228087Y-44195652D01*
X103245991Y-44205222D01*
X103281729Y-44234552D01*
X103383186Y-44317814D01*
X103466448Y-44419271D01*
X103495778Y-44455009D01*
X103495779Y-44455011D01*
X103579443Y-44611533D01*
X103579443Y-44611534D01*
X103630963Y-44781373D01*
X103648359Y-44958000D01*
X103630963Y-45134627D01*
X103627412Y-45146332D01*
X103579443Y-45304467D01*
X103566834Y-45328056D01*
X103495778Y-45460991D01*
X103466448Y-45496729D01*
X103383186Y-45598186D01*
X103281729Y-45681448D01*
X103245991Y-45710778D01*
X103245989Y-45710779D01*
X103089467Y-45794443D01*
X103032853Y-45811616D01*
X102919627Y-45845963D01*
X102853443Y-45852481D01*
X102787260Y-45859000D01*
X102698740Y-45859000D01*
X102632557Y-45852481D01*
X102566373Y-45845963D01*
X102453147Y-45811616D01*
X102396533Y-45794443D01*
X102240011Y-45710779D01*
X102240009Y-45710778D01*
X102204271Y-45681448D01*
X102102814Y-45598186D01*
X102019552Y-45496729D01*
X101990222Y-45460991D01*
X101919166Y-45328056D01*
X101906557Y-45304467D01*
X101858588Y-45146332D01*
X101855037Y-45134627D01*
X101837641Y-44958000D01*
X101855037Y-44781373D01*
X101906557Y-44611534D01*
X101906557Y-44611533D01*
X101990221Y-44455011D01*
X101990222Y-44455009D01*
X102019552Y-44419271D01*
X102102814Y-44317814D01*
X102204271Y-44234552D01*
X102240009Y-44205222D01*
X102257913Y-44195652D01*
X102396533Y-44121557D01*
X102453147Y-44104384D01*
X102566373Y-44070037D01*
X102632557Y-44063519D01*
X102698740Y-44057000D01*
X102787260Y-44057000D01*
X102853443Y-44063519D01*
X102853443Y-44063519D01*
G37*
G36*
X124595443Y-44063519D02*
X124661627Y-44070037D01*
X124774853Y-44104384D01*
X124831467Y-44121557D01*
X124970087Y-44195652D01*
X124987991Y-44205222D01*
X125023729Y-44234552D01*
X125125186Y-44317814D01*
X125208448Y-44419271D01*
X125237778Y-44455009D01*
X125237779Y-44455011D01*
X125321443Y-44611533D01*
X125321443Y-44611534D01*
X125372963Y-44781373D01*
X125390359Y-44958000D01*
X125372963Y-45134627D01*
X125369412Y-45146332D01*
X125321443Y-45304467D01*
X125308834Y-45328056D01*
X125237778Y-45460991D01*
X125208448Y-45496729D01*
X125125186Y-45598186D01*
X125023729Y-45681448D01*
X124987991Y-45710778D01*
X124987989Y-45710779D01*
X124831467Y-45794443D01*
X124774853Y-45811616D01*
X124661627Y-45845963D01*
X124595443Y-45852481D01*
X124529260Y-45859000D01*
X124440740Y-45859000D01*
X124374557Y-45852481D01*
X124308373Y-45845963D01*
X124195147Y-45811616D01*
X124138533Y-45794443D01*
X123982011Y-45710779D01*
X123982009Y-45710778D01*
X123946271Y-45681448D01*
X123844814Y-45598186D01*
X123761552Y-45496729D01*
X123732222Y-45460991D01*
X123661166Y-45328056D01*
X123648557Y-45304467D01*
X123600588Y-45146332D01*
X123597037Y-45134627D01*
X123579641Y-44958000D01*
X123597037Y-44781373D01*
X123648557Y-44611534D01*
X123648557Y-44611533D01*
X123732221Y-44455011D01*
X123732222Y-44455009D01*
X123761552Y-44419271D01*
X123844814Y-44317814D01*
X123946271Y-44234552D01*
X123982009Y-44205222D01*
X123999913Y-44195652D01*
X124138533Y-44121557D01*
X124195147Y-44104384D01*
X124308373Y-44070037D01*
X124374557Y-44063519D01*
X124440740Y-44057000D01*
X124529260Y-44057000D01*
X124595443Y-44063519D01*
X124595443Y-44063519D01*
G37*
G36*
X127926000Y-45859000D02*
X126124000Y-45859000D01*
X126124000Y-44057000D01*
X127926000Y-44057000D01*
X127926000Y-45859000D01*
X127926000Y-45859000D01*
G37*
M02*
