G04 #@! TF.GenerationSoftware,KiCad,Pcbnew,(5.0.2)-1*
G04 #@! TF.CreationDate,2019-01-24T14:04:28+03:00*
G04 #@! TF.ProjectId,xmc_1300,786d635f-3133-4303-902e-6b696361645f,rev?*
G04 #@! TF.SameCoordinates,Original*
G04 #@! TF.FileFunction,Legend,Bot*
G04 #@! TF.FilePolarity,Positive*
%FSLAX46Y46*%
G04 Gerber Fmt 4.6, Leading zero omitted, Abs format (unit mm)*
G04 Created by KiCad (PCBNEW (5.0.2)-1) date 24.01.2019 14:04:28*
%MOMM*%
%LPD*%
G01*
G04 APERTURE LIST*
%ADD10C,0.120000*%
%ADD11C,0.150000*%
G04 APERTURE END LIST*
D10*
G04 #@! TO.C,C2*
X143150000Y-99154064D02*
X143150000Y-97949936D01*
X141330000Y-99154064D02*
X141330000Y-97949936D01*
G04 #@! TO.C,C4*
X146060318Y-66911856D02*
X147264446Y-66911856D01*
X146060318Y-68731856D02*
X147264446Y-68731856D01*
G04 #@! TO.C,C6*
X90721189Y-99008000D02*
X91243693Y-99008000D01*
X90721189Y-97588000D02*
X91243693Y-97588000D01*
G04 #@! TO.C,C7*
X90721189Y-112876327D02*
X91243693Y-112876327D01*
X90721189Y-114296327D02*
X91243693Y-114296327D01*
G04 #@! TO.C,D1*
X146624000Y-95717000D02*
X155484000Y-95717000D01*
X146624000Y-101387000D02*
X146624000Y-95717000D01*
X155484000Y-101387000D02*
X146624000Y-101387000D01*
G04 #@! TO.C,D2*
X112950000Y-61943000D02*
X112950000Y-112983000D01*
X138550000Y-61943000D02*
X112950000Y-61943000D01*
X138550000Y-112983000D02*
X138550000Y-61943000D01*
X112950000Y-112983000D02*
X138550000Y-112983000D01*
X112570000Y-99663000D02*
X112570000Y-95663000D01*
G04 #@! TO.C,D5*
X144725882Y-64480856D02*
X144725882Y-62780856D01*
X144725882Y-62780856D02*
X147875882Y-62780856D01*
X144725882Y-64480856D02*
X147875882Y-64480856D01*
G04 #@! TO.C,D9*
X150567882Y-64353856D02*
X153717882Y-64353856D01*
X150567882Y-62653856D02*
X153717882Y-62653856D01*
X150567882Y-64353856D02*
X150567882Y-62653856D01*
G04 #@! TO.C,R2*
X83846505Y-109670327D02*
X82642377Y-109670327D01*
X83846505Y-107850327D02*
X82642377Y-107850327D01*
G04 #@! TO.C,R3*
X83846505Y-102389327D02*
X82642377Y-102389327D01*
X83846505Y-104209327D02*
X82642377Y-104209327D01*
G04 #@! TO.C,R4*
X90721189Y-104104109D02*
X91243693Y-104104109D01*
X90721189Y-102684109D02*
X91243693Y-102684109D01*
G04 #@! TO.C,R5*
X90721189Y-109200218D02*
X91243693Y-109200218D01*
X90721189Y-107780218D02*
X91243693Y-107780218D01*
G04 #@! TO.C,R7*
X169938748Y-113737780D02*
X170461252Y-113737780D01*
X169938748Y-115157780D02*
X170461252Y-115157780D01*
G04 #@! TO.C,R10*
X136938936Y-130831000D02*
X138143064Y-130831000D01*
X136938936Y-129011000D02*
X138143064Y-129011000D01*
G04 #@! TO.C,R11*
X138143064Y-127783000D02*
X136938936Y-127783000D01*
X138143064Y-125963000D02*
X136938936Y-125963000D01*
G04 #@! TO.C,R12*
X131920064Y-115930000D02*
X130715936Y-115930000D01*
X131920064Y-117750000D02*
X130715936Y-117750000D01*
G04 #@! TO.C,R13*
X138143064Y-121687000D02*
X136938936Y-121687000D01*
X138143064Y-119867000D02*
X136938936Y-119867000D01*
G04 #@! TO.C,R14*
X169567936Y-117978780D02*
X170772064Y-117978780D01*
X169567936Y-119798780D02*
X170772064Y-119798780D01*
G04 #@! TO.C,R15*
X82243356Y-77557837D02*
X83447484Y-77557837D01*
X82243356Y-75737837D02*
X83447484Y-75737837D01*
G04 #@! TO.C,R16*
X82243356Y-72681037D02*
X83447484Y-72681037D01*
X82243356Y-70861037D02*
X83447484Y-70861037D01*
G04 #@! TO.C,R17*
X82243356Y-65984237D02*
X83447484Y-65984237D01*
X82243356Y-67804237D02*
X83447484Y-67804237D01*
G04 #@! TO.C,R18*
X82243356Y-62927437D02*
X83447484Y-62927437D01*
X82243356Y-61107437D02*
X83447484Y-61107437D01*
G04 #@! TO.C,R19*
X82243356Y-56230637D02*
X83447484Y-56230637D01*
X82243356Y-58050637D02*
X83447484Y-58050637D01*
G04 #@! TO.C,R20*
X82243356Y-53173837D02*
X83447484Y-53173837D01*
X82243356Y-51353837D02*
X83447484Y-51353837D01*
G04 #@! TO.C,R21*
X153485436Y-66908000D02*
X154689564Y-66908000D01*
X153485436Y-68728000D02*
X154689564Y-68728000D01*
G04 #@! TO.C,U1*
X151135000Y-73171000D02*
X151135000Y-74431000D01*
X151135000Y-79991000D02*
X151135000Y-78731000D01*
X147375000Y-73171000D02*
X151135000Y-73171000D01*
X145125000Y-79991000D02*
X151135000Y-79991000D01*
G04 #@! TO.C,C2*
D11*
X144417142Y-98385333D02*
X144464761Y-98337714D01*
X144512380Y-98194857D01*
X144512380Y-98099619D01*
X144464761Y-97956761D01*
X144369523Y-97861523D01*
X144274285Y-97813904D01*
X144083809Y-97766285D01*
X143940952Y-97766285D01*
X143750476Y-97813904D01*
X143655238Y-97861523D01*
X143560000Y-97956761D01*
X143512380Y-98099619D01*
X143512380Y-98194857D01*
X143560000Y-98337714D01*
X143607619Y-98385333D01*
X143607619Y-98766285D02*
X143560000Y-98813904D01*
X143512380Y-98909142D01*
X143512380Y-99147238D01*
X143560000Y-99242476D01*
X143607619Y-99290095D01*
X143702857Y-99337714D01*
X143798095Y-99337714D01*
X143940952Y-99290095D01*
X144512380Y-98718666D01*
X144512380Y-99337714D01*
G04 #@! TO.C,C4*
X146829048Y-69998998D02*
X146876667Y-70046617D01*
X147019524Y-70094236D01*
X147114762Y-70094236D01*
X147257620Y-70046617D01*
X147352858Y-69951379D01*
X147400477Y-69856141D01*
X147448096Y-69665665D01*
X147448096Y-69522808D01*
X147400477Y-69332332D01*
X147352858Y-69237094D01*
X147257620Y-69141856D01*
X147114762Y-69094236D01*
X147019524Y-69094236D01*
X146876667Y-69141856D01*
X146829048Y-69189475D01*
X145971905Y-69427570D02*
X145971905Y-70094236D01*
X146210001Y-69046617D02*
X146448096Y-69760903D01*
X145829048Y-69760903D01*
G04 #@! TO.C,C6*
X91149107Y-100305142D02*
X91196726Y-100352761D01*
X91339583Y-100400380D01*
X91434821Y-100400380D01*
X91577679Y-100352761D01*
X91672917Y-100257523D01*
X91720536Y-100162285D01*
X91768155Y-99971809D01*
X91768155Y-99828952D01*
X91720536Y-99638476D01*
X91672917Y-99543238D01*
X91577679Y-99448000D01*
X91434821Y-99400380D01*
X91339583Y-99400380D01*
X91196726Y-99448000D01*
X91149107Y-99495619D01*
X90291964Y-99400380D02*
X90482441Y-99400380D01*
X90577679Y-99448000D01*
X90625298Y-99495619D01*
X90720536Y-99638476D01*
X90768155Y-99828952D01*
X90768155Y-100209904D01*
X90720536Y-100305142D01*
X90672917Y-100352761D01*
X90577679Y-100400380D01*
X90387202Y-100400380D01*
X90291964Y-100352761D01*
X90244345Y-100305142D01*
X90196726Y-100209904D01*
X90196726Y-99971809D01*
X90244345Y-99876571D01*
X90291964Y-99828952D01*
X90387202Y-99781333D01*
X90577679Y-99781333D01*
X90672917Y-99828952D01*
X90720536Y-99876571D01*
X90768155Y-99971809D01*
G04 #@! TO.C,C7*
X91149107Y-115593469D02*
X91196726Y-115641088D01*
X91339583Y-115688707D01*
X91434821Y-115688707D01*
X91577679Y-115641088D01*
X91672917Y-115545850D01*
X91720536Y-115450612D01*
X91768155Y-115260136D01*
X91768155Y-115117279D01*
X91720536Y-114926803D01*
X91672917Y-114831565D01*
X91577679Y-114736327D01*
X91434821Y-114688707D01*
X91339583Y-114688707D01*
X91196726Y-114736327D01*
X91149107Y-114783946D01*
X90815774Y-114688707D02*
X90149107Y-114688707D01*
X90577679Y-115688707D01*
G04 #@! TO.C,D1*
X152222095Y-102524380D02*
X152222095Y-101524380D01*
X151984000Y-101524380D01*
X151841142Y-101572000D01*
X151745904Y-101667238D01*
X151698285Y-101762476D01*
X151650666Y-101952952D01*
X151650666Y-102095809D01*
X151698285Y-102286285D01*
X151745904Y-102381523D01*
X151841142Y-102476761D01*
X151984000Y-102524380D01*
X152222095Y-102524380D01*
X150698285Y-102524380D02*
X151269714Y-102524380D01*
X150984000Y-102524380D02*
X150984000Y-101524380D01*
X151079238Y-101667238D01*
X151174476Y-101762476D01*
X151269714Y-101810095D01*
G04 #@! TO.C,D2*
X115768095Y-114335380D02*
X115768095Y-113335380D01*
X115530000Y-113335380D01*
X115387142Y-113383000D01*
X115291904Y-113478238D01*
X115244285Y-113573476D01*
X115196666Y-113763952D01*
X115196666Y-113906809D01*
X115244285Y-114097285D01*
X115291904Y-114192523D01*
X115387142Y-114287761D01*
X115530000Y-114335380D01*
X115768095Y-114335380D01*
X114815714Y-113430619D02*
X114768095Y-113383000D01*
X114672857Y-113335380D01*
X114434761Y-113335380D01*
X114339523Y-113383000D01*
X114291904Y-113430619D01*
X114244285Y-113525857D01*
X114244285Y-113621095D01*
X114291904Y-113763952D01*
X114863333Y-114335380D01*
X114244285Y-114335380D01*
G04 #@! TO.C,D5*
X147363977Y-65933236D02*
X147363977Y-64933236D01*
X147125882Y-64933236D01*
X146983024Y-64980856D01*
X146887786Y-65076094D01*
X146840167Y-65171332D01*
X146792548Y-65361808D01*
X146792548Y-65504665D01*
X146840167Y-65695141D01*
X146887786Y-65790379D01*
X146983024Y-65885617D01*
X147125882Y-65933236D01*
X147363977Y-65933236D01*
X145887786Y-64933236D02*
X146363977Y-64933236D01*
X146411596Y-65409427D01*
X146363977Y-65361808D01*
X146268739Y-65314189D01*
X146030643Y-65314189D01*
X145935405Y-65361808D01*
X145887786Y-65409427D01*
X145840167Y-65504665D01*
X145840167Y-65742760D01*
X145887786Y-65837998D01*
X145935405Y-65885617D01*
X146030643Y-65933236D01*
X146268739Y-65933236D01*
X146363977Y-65885617D01*
X146411596Y-65837998D01*
G04 #@! TO.C,D9*
X153205977Y-65806236D02*
X153205977Y-64806236D01*
X152967882Y-64806236D01*
X152825024Y-64853856D01*
X152729786Y-64949094D01*
X152682167Y-65044332D01*
X152634548Y-65234808D01*
X152634548Y-65377665D01*
X152682167Y-65568141D01*
X152729786Y-65663379D01*
X152825024Y-65758617D01*
X152967882Y-65806236D01*
X153205977Y-65806236D01*
X152158358Y-65806236D02*
X151967882Y-65806236D01*
X151872643Y-65758617D01*
X151825024Y-65710998D01*
X151729786Y-65568141D01*
X151682167Y-65377665D01*
X151682167Y-64996713D01*
X151729786Y-64901475D01*
X151777405Y-64853856D01*
X151872643Y-64806236D01*
X152063120Y-64806236D01*
X152158358Y-64853856D01*
X152205977Y-64901475D01*
X152253596Y-64996713D01*
X152253596Y-65234808D01*
X152205977Y-65330046D01*
X152158358Y-65377665D01*
X152063120Y-65425284D01*
X151872643Y-65425284D01*
X151777405Y-65377665D01*
X151729786Y-65330046D01*
X151682167Y-65234808D01*
G04 #@! TO.C,R2*
X83411107Y-107392707D02*
X83744441Y-106916517D01*
X83982536Y-107392707D02*
X83982536Y-106392707D01*
X83601583Y-106392707D01*
X83506345Y-106440327D01*
X83458726Y-106487946D01*
X83411107Y-106583184D01*
X83411107Y-106726041D01*
X83458726Y-106821279D01*
X83506345Y-106868898D01*
X83601583Y-106916517D01*
X83982536Y-106916517D01*
X83030155Y-106487946D02*
X82982536Y-106440327D01*
X82887298Y-106392707D01*
X82649202Y-106392707D01*
X82553964Y-106440327D01*
X82506345Y-106487946D01*
X82458726Y-106583184D01*
X82458726Y-106678422D01*
X82506345Y-106821279D01*
X83077774Y-107392707D01*
X82458726Y-107392707D01*
G04 #@! TO.C,R3*
X83411107Y-101931707D02*
X83744441Y-101455517D01*
X83982536Y-101931707D02*
X83982536Y-100931707D01*
X83601583Y-100931707D01*
X83506345Y-100979327D01*
X83458726Y-101026946D01*
X83411107Y-101122184D01*
X83411107Y-101265041D01*
X83458726Y-101360279D01*
X83506345Y-101407898D01*
X83601583Y-101455517D01*
X83982536Y-101455517D01*
X83077774Y-100931707D02*
X82458726Y-100931707D01*
X82792060Y-101312660D01*
X82649202Y-101312660D01*
X82553964Y-101360279D01*
X82506345Y-101407898D01*
X82458726Y-101503136D01*
X82458726Y-101741231D01*
X82506345Y-101836469D01*
X82553964Y-101884088D01*
X82649202Y-101931707D01*
X82934917Y-101931707D01*
X83030155Y-101884088D01*
X83077774Y-101836469D01*
G04 #@! TO.C,R4*
X91149107Y-105496489D02*
X91482441Y-105020299D01*
X91720536Y-105496489D02*
X91720536Y-104496489D01*
X91339583Y-104496489D01*
X91244345Y-104544109D01*
X91196726Y-104591728D01*
X91149107Y-104686966D01*
X91149107Y-104829823D01*
X91196726Y-104925061D01*
X91244345Y-104972680D01*
X91339583Y-105020299D01*
X91720536Y-105020299D01*
X90291964Y-104829823D02*
X90291964Y-105496489D01*
X90530060Y-104448870D02*
X90768155Y-105163156D01*
X90149107Y-105163156D01*
G04 #@! TO.C,R5*
X91149107Y-110592598D02*
X91482441Y-110116408D01*
X91720536Y-110592598D02*
X91720536Y-109592598D01*
X91339583Y-109592598D01*
X91244345Y-109640218D01*
X91196726Y-109687837D01*
X91149107Y-109783075D01*
X91149107Y-109925932D01*
X91196726Y-110021170D01*
X91244345Y-110068789D01*
X91339583Y-110116408D01*
X91720536Y-110116408D01*
X90244345Y-109592598D02*
X90720536Y-109592598D01*
X90768155Y-110068789D01*
X90720536Y-110021170D01*
X90625298Y-109973551D01*
X90387202Y-109973551D01*
X90291964Y-110021170D01*
X90244345Y-110068789D01*
X90196726Y-110164027D01*
X90196726Y-110402122D01*
X90244345Y-110497360D01*
X90291964Y-110544979D01*
X90387202Y-110592598D01*
X90625298Y-110592598D01*
X90720536Y-110544979D01*
X90768155Y-110497360D01*
G04 #@! TO.C,R7*
X170366666Y-116550160D02*
X170700000Y-116073970D01*
X170938095Y-116550160D02*
X170938095Y-115550160D01*
X170557142Y-115550160D01*
X170461904Y-115597780D01*
X170414285Y-115645399D01*
X170366666Y-115740637D01*
X170366666Y-115883494D01*
X170414285Y-115978732D01*
X170461904Y-116026351D01*
X170557142Y-116073970D01*
X170938095Y-116073970D01*
X170033333Y-115550160D02*
X169366666Y-115550160D01*
X169795238Y-116550160D01*
G04 #@! TO.C,R10*
X138183857Y-132193380D02*
X138517190Y-131717190D01*
X138755285Y-132193380D02*
X138755285Y-131193380D01*
X138374333Y-131193380D01*
X138279095Y-131241000D01*
X138231476Y-131288619D01*
X138183857Y-131383857D01*
X138183857Y-131526714D01*
X138231476Y-131621952D01*
X138279095Y-131669571D01*
X138374333Y-131717190D01*
X138755285Y-131717190D01*
X137231476Y-132193380D02*
X137802904Y-132193380D01*
X137517190Y-132193380D02*
X137517190Y-131193380D01*
X137612428Y-131336238D01*
X137707666Y-131431476D01*
X137802904Y-131479095D01*
X136612428Y-131193380D02*
X136517190Y-131193380D01*
X136421952Y-131241000D01*
X136374333Y-131288619D01*
X136326714Y-131383857D01*
X136279095Y-131574333D01*
X136279095Y-131812428D01*
X136326714Y-132002904D01*
X136374333Y-132098142D01*
X136421952Y-132145761D01*
X136517190Y-132193380D01*
X136612428Y-132193380D01*
X136707666Y-132145761D01*
X136755285Y-132098142D01*
X136802904Y-132002904D01*
X136850523Y-131812428D01*
X136850523Y-131574333D01*
X136802904Y-131383857D01*
X136755285Y-131288619D01*
X136707666Y-131241000D01*
X136612428Y-131193380D01*
G04 #@! TO.C,R11*
X138183857Y-125505380D02*
X138517190Y-125029190D01*
X138755285Y-125505380D02*
X138755285Y-124505380D01*
X138374333Y-124505380D01*
X138279095Y-124553000D01*
X138231476Y-124600619D01*
X138183857Y-124695857D01*
X138183857Y-124838714D01*
X138231476Y-124933952D01*
X138279095Y-124981571D01*
X138374333Y-125029190D01*
X138755285Y-125029190D01*
X137231476Y-125505380D02*
X137802904Y-125505380D01*
X137517190Y-125505380D02*
X137517190Y-124505380D01*
X137612428Y-124648238D01*
X137707666Y-124743476D01*
X137802904Y-124791095D01*
X136279095Y-125505380D02*
X136850523Y-125505380D01*
X136564809Y-125505380D02*
X136564809Y-124505380D01*
X136660047Y-124648238D01*
X136755285Y-124743476D01*
X136850523Y-124791095D01*
G04 #@! TO.C,R12*
X131960857Y-115472380D02*
X132294190Y-114996190D01*
X132532285Y-115472380D02*
X132532285Y-114472380D01*
X132151333Y-114472380D01*
X132056095Y-114520000D01*
X132008476Y-114567619D01*
X131960857Y-114662857D01*
X131960857Y-114805714D01*
X132008476Y-114900952D01*
X132056095Y-114948571D01*
X132151333Y-114996190D01*
X132532285Y-114996190D01*
X131008476Y-115472380D02*
X131579904Y-115472380D01*
X131294190Y-115472380D02*
X131294190Y-114472380D01*
X131389428Y-114615238D01*
X131484666Y-114710476D01*
X131579904Y-114758095D01*
X130627523Y-114567619D02*
X130579904Y-114520000D01*
X130484666Y-114472380D01*
X130246571Y-114472380D01*
X130151333Y-114520000D01*
X130103714Y-114567619D01*
X130056095Y-114662857D01*
X130056095Y-114758095D01*
X130103714Y-114900952D01*
X130675142Y-115472380D01*
X130056095Y-115472380D01*
G04 #@! TO.C,R13*
X138183857Y-119409380D02*
X138517190Y-118933190D01*
X138755285Y-119409380D02*
X138755285Y-118409380D01*
X138374333Y-118409380D01*
X138279095Y-118457000D01*
X138231476Y-118504619D01*
X138183857Y-118599857D01*
X138183857Y-118742714D01*
X138231476Y-118837952D01*
X138279095Y-118885571D01*
X138374333Y-118933190D01*
X138755285Y-118933190D01*
X137231476Y-119409380D02*
X137802904Y-119409380D01*
X137517190Y-119409380D02*
X137517190Y-118409380D01*
X137612428Y-118552238D01*
X137707666Y-118647476D01*
X137802904Y-118695095D01*
X136898142Y-118409380D02*
X136279095Y-118409380D01*
X136612428Y-118790333D01*
X136469571Y-118790333D01*
X136374333Y-118837952D01*
X136326714Y-118885571D01*
X136279095Y-118980809D01*
X136279095Y-119218904D01*
X136326714Y-119314142D01*
X136374333Y-119361761D01*
X136469571Y-119409380D01*
X136755285Y-119409380D01*
X136850523Y-119361761D01*
X136898142Y-119314142D01*
G04 #@! TO.C,R14*
X170812857Y-121161160D02*
X171146190Y-120684970D01*
X171384285Y-121161160D02*
X171384285Y-120161160D01*
X171003333Y-120161160D01*
X170908095Y-120208780D01*
X170860476Y-120256399D01*
X170812857Y-120351637D01*
X170812857Y-120494494D01*
X170860476Y-120589732D01*
X170908095Y-120637351D01*
X171003333Y-120684970D01*
X171384285Y-120684970D01*
X169860476Y-121161160D02*
X170431904Y-121161160D01*
X170146190Y-121161160D02*
X170146190Y-120161160D01*
X170241428Y-120304018D01*
X170336666Y-120399256D01*
X170431904Y-120446875D01*
X169003333Y-120494494D02*
X169003333Y-121161160D01*
X169241428Y-120113541D02*
X169479523Y-120827827D01*
X168860476Y-120827827D01*
G04 #@! TO.C,R15*
X83488277Y-78920217D02*
X83821610Y-78444027D01*
X84059705Y-78920217D02*
X84059705Y-77920217D01*
X83678753Y-77920217D01*
X83583515Y-77967837D01*
X83535896Y-78015456D01*
X83488277Y-78110694D01*
X83488277Y-78253551D01*
X83535896Y-78348789D01*
X83583515Y-78396408D01*
X83678753Y-78444027D01*
X84059705Y-78444027D01*
X82535896Y-78920217D02*
X83107324Y-78920217D01*
X82821610Y-78920217D02*
X82821610Y-77920217D01*
X82916848Y-78063075D01*
X83012086Y-78158313D01*
X83107324Y-78205932D01*
X81631134Y-77920217D02*
X82107324Y-77920217D01*
X82154943Y-78396408D01*
X82107324Y-78348789D01*
X82012086Y-78301170D01*
X81773991Y-78301170D01*
X81678753Y-78348789D01*
X81631134Y-78396408D01*
X81583515Y-78491646D01*
X81583515Y-78729741D01*
X81631134Y-78824979D01*
X81678753Y-78872598D01*
X81773991Y-78920217D01*
X82012086Y-78920217D01*
X82107324Y-78872598D01*
X82154943Y-78824979D01*
G04 #@! TO.C,R16*
X83488277Y-74043417D02*
X83821610Y-73567227D01*
X84059705Y-74043417D02*
X84059705Y-73043417D01*
X83678753Y-73043417D01*
X83583515Y-73091037D01*
X83535896Y-73138656D01*
X83488277Y-73233894D01*
X83488277Y-73376751D01*
X83535896Y-73471989D01*
X83583515Y-73519608D01*
X83678753Y-73567227D01*
X84059705Y-73567227D01*
X82535896Y-74043417D02*
X83107324Y-74043417D01*
X82821610Y-74043417D02*
X82821610Y-73043417D01*
X82916848Y-73186275D01*
X83012086Y-73281513D01*
X83107324Y-73329132D01*
X81678753Y-73043417D02*
X81869229Y-73043417D01*
X81964467Y-73091037D01*
X82012086Y-73138656D01*
X82107324Y-73281513D01*
X82154943Y-73471989D01*
X82154943Y-73852941D01*
X82107324Y-73948179D01*
X82059705Y-73995798D01*
X81964467Y-74043417D01*
X81773991Y-74043417D01*
X81678753Y-73995798D01*
X81631134Y-73948179D01*
X81583515Y-73852941D01*
X81583515Y-73614846D01*
X81631134Y-73519608D01*
X81678753Y-73471989D01*
X81773991Y-73424370D01*
X81964467Y-73424370D01*
X82059705Y-73471989D01*
X82107324Y-73519608D01*
X82154943Y-73614846D01*
G04 #@! TO.C,R17*
X83488277Y-69166617D02*
X83821610Y-68690427D01*
X84059705Y-69166617D02*
X84059705Y-68166617D01*
X83678753Y-68166617D01*
X83583515Y-68214237D01*
X83535896Y-68261856D01*
X83488277Y-68357094D01*
X83488277Y-68499951D01*
X83535896Y-68595189D01*
X83583515Y-68642808D01*
X83678753Y-68690427D01*
X84059705Y-68690427D01*
X82535896Y-69166617D02*
X83107324Y-69166617D01*
X82821610Y-69166617D02*
X82821610Y-68166617D01*
X82916848Y-68309475D01*
X83012086Y-68404713D01*
X83107324Y-68452332D01*
X82202562Y-68166617D02*
X81535896Y-68166617D01*
X81964467Y-69166617D01*
G04 #@! TO.C,R18*
X83488277Y-64289817D02*
X83821610Y-63813627D01*
X84059705Y-64289817D02*
X84059705Y-63289817D01*
X83678753Y-63289817D01*
X83583515Y-63337437D01*
X83535896Y-63385056D01*
X83488277Y-63480294D01*
X83488277Y-63623151D01*
X83535896Y-63718389D01*
X83583515Y-63766008D01*
X83678753Y-63813627D01*
X84059705Y-63813627D01*
X82535896Y-64289817D02*
X83107324Y-64289817D01*
X82821610Y-64289817D02*
X82821610Y-63289817D01*
X82916848Y-63432675D01*
X83012086Y-63527913D01*
X83107324Y-63575532D01*
X81964467Y-63718389D02*
X82059705Y-63670770D01*
X82107324Y-63623151D01*
X82154943Y-63527913D01*
X82154943Y-63480294D01*
X82107324Y-63385056D01*
X82059705Y-63337437D01*
X81964467Y-63289817D01*
X81773991Y-63289817D01*
X81678753Y-63337437D01*
X81631134Y-63385056D01*
X81583515Y-63480294D01*
X81583515Y-63527913D01*
X81631134Y-63623151D01*
X81678753Y-63670770D01*
X81773991Y-63718389D01*
X81964467Y-63718389D01*
X82059705Y-63766008D01*
X82107324Y-63813627D01*
X82154943Y-63908865D01*
X82154943Y-64099341D01*
X82107324Y-64194579D01*
X82059705Y-64242198D01*
X81964467Y-64289817D01*
X81773991Y-64289817D01*
X81678753Y-64242198D01*
X81631134Y-64194579D01*
X81583515Y-64099341D01*
X81583515Y-63908865D01*
X81631134Y-63813627D01*
X81678753Y-63766008D01*
X81773991Y-63718389D01*
G04 #@! TO.C,R19*
X83488277Y-59413017D02*
X83821610Y-58936827D01*
X84059705Y-59413017D02*
X84059705Y-58413017D01*
X83678753Y-58413017D01*
X83583515Y-58460637D01*
X83535896Y-58508256D01*
X83488277Y-58603494D01*
X83488277Y-58746351D01*
X83535896Y-58841589D01*
X83583515Y-58889208D01*
X83678753Y-58936827D01*
X84059705Y-58936827D01*
X82535896Y-59413017D02*
X83107324Y-59413017D01*
X82821610Y-59413017D02*
X82821610Y-58413017D01*
X82916848Y-58555875D01*
X83012086Y-58651113D01*
X83107324Y-58698732D01*
X82059705Y-59413017D02*
X81869229Y-59413017D01*
X81773991Y-59365398D01*
X81726372Y-59317779D01*
X81631134Y-59174922D01*
X81583515Y-58984446D01*
X81583515Y-58603494D01*
X81631134Y-58508256D01*
X81678753Y-58460637D01*
X81773991Y-58413017D01*
X81964467Y-58413017D01*
X82059705Y-58460637D01*
X82107324Y-58508256D01*
X82154943Y-58603494D01*
X82154943Y-58841589D01*
X82107324Y-58936827D01*
X82059705Y-58984446D01*
X81964467Y-59032065D01*
X81773991Y-59032065D01*
X81678753Y-58984446D01*
X81631134Y-58936827D01*
X81583515Y-58841589D01*
G04 #@! TO.C,R20*
X83488277Y-54536217D02*
X83821610Y-54060027D01*
X84059705Y-54536217D02*
X84059705Y-53536217D01*
X83678753Y-53536217D01*
X83583515Y-53583837D01*
X83535896Y-53631456D01*
X83488277Y-53726694D01*
X83488277Y-53869551D01*
X83535896Y-53964789D01*
X83583515Y-54012408D01*
X83678753Y-54060027D01*
X84059705Y-54060027D01*
X83107324Y-53631456D02*
X83059705Y-53583837D01*
X82964467Y-53536217D01*
X82726372Y-53536217D01*
X82631134Y-53583837D01*
X82583515Y-53631456D01*
X82535896Y-53726694D01*
X82535896Y-53821932D01*
X82583515Y-53964789D01*
X83154943Y-54536217D01*
X82535896Y-54536217D01*
X81916848Y-53536217D02*
X81821610Y-53536217D01*
X81726372Y-53583837D01*
X81678753Y-53631456D01*
X81631134Y-53726694D01*
X81583515Y-53917170D01*
X81583515Y-54155265D01*
X81631134Y-54345741D01*
X81678753Y-54440979D01*
X81726372Y-54488598D01*
X81821610Y-54536217D01*
X81916848Y-54536217D01*
X82012086Y-54488598D01*
X82059705Y-54440979D01*
X82107324Y-54345741D01*
X82154943Y-54155265D01*
X82154943Y-53917170D01*
X82107324Y-53726694D01*
X82059705Y-53631456D01*
X82012086Y-53583837D01*
X81916848Y-53536217D01*
G04 #@! TO.C,R21*
X154730357Y-70090380D02*
X155063690Y-69614190D01*
X155301785Y-70090380D02*
X155301785Y-69090380D01*
X154920833Y-69090380D01*
X154825595Y-69138000D01*
X154777976Y-69185619D01*
X154730357Y-69280857D01*
X154730357Y-69423714D01*
X154777976Y-69518952D01*
X154825595Y-69566571D01*
X154920833Y-69614190D01*
X155301785Y-69614190D01*
X154349404Y-69185619D02*
X154301785Y-69138000D01*
X154206547Y-69090380D01*
X153968452Y-69090380D01*
X153873214Y-69138000D01*
X153825595Y-69185619D01*
X153777976Y-69280857D01*
X153777976Y-69376095D01*
X153825595Y-69518952D01*
X154397023Y-70090380D01*
X153777976Y-70090380D01*
X152825595Y-70090380D02*
X153397023Y-70090380D01*
X153111309Y-70090380D02*
X153111309Y-69090380D01*
X153206547Y-69233238D01*
X153301785Y-69328476D01*
X153397023Y-69376095D01*
G04 #@! TO.C,U1*
X149986904Y-80533380D02*
X149986904Y-81342904D01*
X149939285Y-81438142D01*
X149891666Y-81485761D01*
X149796428Y-81533380D01*
X149605952Y-81533380D01*
X149510714Y-81485761D01*
X149463095Y-81438142D01*
X149415476Y-81342904D01*
X149415476Y-80533380D01*
X148415476Y-81533380D02*
X148986904Y-81533380D01*
X148701190Y-81533380D02*
X148701190Y-80533380D01*
X148796428Y-80676238D01*
X148891666Y-80771476D01*
X148986904Y-80819095D01*
G04 #@! TD*
M02*
