M48
;DRILL file {KiCad (5.0.2)-1} date 24.01.2019 14:04:32
;FORMAT={-:-/ absolute / inch / decimal}
FMAT,2
INCH,TZ
T1C0.0157
T2C0.0197
T3C0.0394
T4C0.0591
T5C0.1260
%
G90
G05
T1
X3.0945Y-2.5354
X3.0945Y-2.7943
X3.2362Y-3.8508
X3.2431Y-4.5079
X3.253Y-2.7185
X3.2589Y-2.5354
X3.314Y-4.8287
X3.3228Y-4.5758
X3.3504Y-4.9094
X3.3917Y-4.563
X3.4035Y-4.3287
X3.4055Y-3.8508
X3.409Y-2.634
X3.409Y-2.825
X3.41Y-2.06
X3.41Y-2.25
X3.41Y-2.442
X3.411Y-3.018
X3.4144Y-2.7185
X3.4294Y-3.7427
X3.4331Y-5.0364
X3.4459Y-2.1004
X3.4459Y-2.2018
X3.4459Y-3.1722
X3.4508Y-3.8002
X3.4902Y-3.2283
X3.4902Y-3.9764
X3.4941Y-4.7598
X3.556Y-3.5285
X3.5719Y-3.6211
X3.5827Y-4.5571
X3.6417Y-4.1693
X3.6624Y-2.9321
X3.6801Y-3.7953
X3.7018Y-2.5394
X3.7096Y-3.4754
X3.7116Y-3.9478
X3.7323Y-2.249
X3.7431Y-1.9567
X3.7443Y-2.1941
X3.747Y-2.9547
X3.7482Y-3.1002
X3.752Y-2.3524
X3.7657Y-2.7185
X3.7687Y-4.6014
X3.7982Y-3.9744
X3.8183Y-3.8701
X3.8396Y-3.7785
X3.8425Y-2.8848
X3.8445Y-2.2825
X3.8612Y-3.4724
X3.8632Y-4.4478
X3.8652Y-2.9429
X3.8661Y-3.5157
X3.8839Y-2.5738
X3.8848Y-3.8415
X3.9035Y-3.1033
X3.9035Y-3.2904
X3.9222Y-2.4567
X3.9262Y-5.2303
X3.9301Y-3.3514
X3.937Y-4.3209
X3.94Y-3.4528
X3.94Y-3.7067
X3.9409Y-3.5531
X3.9439Y-3.3917
X3.9449Y-2.3809
X3.997Y-2.7106
X4.0108Y-3.2126
X4.1122Y-2.5817
X4.122Y-4.9606
X4.1242Y-2.918
X4.1277Y-3.5216
X4.1545Y-2.002
X4.1614Y-2.9833
X4.1683Y-3.5797
X4.1831Y-2.0945
X4.1881Y-3.6309
X4.19Y-1.6624
X4.1978Y-3.4892
X4.2283Y-2.8917
X4.2293Y-3.3563
X4.25Y-2.9721
X4.2579Y-5.2303
X4.2638Y-2.1703
X4.2638Y-2.8406
X4.3022Y-2.811
X4.3307Y-2.8681
X4.3691Y-2.9134
X4.3859Y-3.7386
X4.3967Y-3.6486
X4.4724Y-3.7323
X4.5098Y-1.748
X4.5246Y-3.6959
X4.5295Y-2.2539
X4.5738Y-3.8799
X4.623Y-4.4163
X4.625Y-3.5138
X4.6516Y-3.3809
X4.6978Y-4.8159
X4.7972Y-4.8524
X4.8398Y-2.6811
X4.9301Y-2.3848
X5.1043Y-3.0738
X5.1378Y-3.3455
X5.1683Y-2.6506
X5.185Y-1.8701
X5.3425Y-3.5817
X5.3573Y-1.7844
X5.3799Y-4.9154
X5.3927Y-4.1575
X5.4921Y-3.2894
X5.5207Y-2.7057
X5.56Y-4.81
X5.5896Y-2.9281
X5.6978Y-5.0433
X5.76Y-3.26
X5.7667Y-2.3642
X5.81Y-4.1959
X5.885Y-4.9232
X5.9291Y-2.3652
X6.015Y-5.024
X6.0207Y-4.1614
X6.0531Y-4.0866
X6.1063Y-2.7756
X6.1152Y-4.125
X6.1545Y-3.2018
X6.1545Y-4.4252
X6.1722Y-4.187
X6.1772Y-4.0866
X6.1841Y-4.9232
X6.2333Y-2.7815
X6.4242Y-2.3691
X6.4528Y-3.0354
X6.4577Y-4.0177
X6.5699Y-4.7736
X6.5758Y-4.2228
X6.5856Y-4.0177
X6.6035Y-4.5972
T2
X6.6055Y-5.2
X6.6332Y-5.1332
X6.6332Y-5.2668
X6.7Y-5.1055
X6.7Y-5.2945
X6.7668Y-5.1332
X6.7668Y-5.2668
X6.7945Y-5.2
X6.6055Y-1.7
X6.6332Y-1.6332
X6.6332Y-1.7668
X6.7Y-1.6055
X6.7Y-1.7945
X6.7668Y-1.6332
X6.7668Y-1.7668
X6.7945Y-1.7
X3.1055Y-5.2
X3.1332Y-5.1332
X3.1332Y-5.2668
X3.2Y-5.1055
X3.2Y-5.2945
X3.2668Y-5.1332
X3.2668Y-5.2668
X3.2945Y-5.2
X3.1055Y-1.7
X3.1332Y-1.6332
X3.1332Y-1.7668
X3.2Y-1.6055
X3.2Y-1.7945
X3.2668Y-1.6332
X3.2668Y-1.7668
X3.2945Y-1.7
T3
X4.901Y-1.77
X4.901Y-1.87
X4.901Y-1.97
X4.901Y-2.07
X4.901Y-2.17
X5.001Y-1.77
X5.001Y-1.87
X5.001Y-1.97
X5.001Y-2.07
X5.001Y-2.17
X3.6898Y-4.7303
X3.6898Y-4.8303
X3.6898Y-4.9303
X3.6898Y-5.0303
X3.6898Y-5.1303
X3.7898Y-4.7303
X3.7898Y-4.8303
X3.7898Y-4.9303
X3.7898Y-5.0303
X3.7898Y-5.1303
X5.855Y-1.77
X5.855Y-1.87
X5.855Y-1.97
X5.855Y-2.07
X5.855Y-2.17
X5.955Y-1.77
X5.955Y-1.87
X5.955Y-1.97
X5.955Y-2.07
X5.955Y-2.17
X5.7972Y-4.3749
X5.7972Y-4.4749
X5.7972Y-4.5749
X5.7972Y-4.6749
X5.7972Y-4.7749
X5.8972Y-4.3749
X5.8972Y-4.4749
X5.8972Y-4.5749
X5.8972Y-4.6749
X5.8972Y-4.7749
X3.945Y-1.77
X3.945Y-1.87
X3.945Y-1.97
X3.945Y-2.07
X3.945Y-2.17
X4.045Y-1.77
X4.045Y-1.87
X4.045Y-1.97
X4.045Y-2.07
X4.045Y-2.17
X3.24Y-3.3
X3.24Y-3.4
X3.24Y-3.5
X3.24Y-3.6
X3.34Y-3.3
X3.34Y-3.4
X3.34Y-3.5
X3.34Y-3.6
X6.7Y-3.885
X6.7Y-3.985
X6.7Y-4.085
X4.3909Y-4.7295
X4.3909Y-4.8295
X4.3909Y-4.9295
X4.3909Y-5.0295
X4.3909Y-5.1295
X4.4909Y-4.7295
X4.4909Y-4.8295
X4.4909Y-4.9295
X4.4909Y-5.0295
X4.4909Y-5.1295
X6.3072Y-4.3749
X6.3072Y-4.4749
X6.3072Y-4.5749
X6.3072Y-4.6749
X6.3072Y-4.7749
X6.4072Y-4.3749
X6.4072Y-4.4749
X6.4072Y-4.5749
X6.4072Y-4.6749
X6.4072Y-4.7749
X5.11Y-4.82
X5.11Y-4.92
X5.11Y-5.02
X5.11Y-5.12
X5.21Y-4.82
X5.21Y-4.92
X5.21Y-5.02
X5.21Y-5.12
T4
X4.55Y-3.045
X4.85Y-3.845
X5.05Y-3.845
X5.35Y-3.045
T5
X3.2Y-1.7
X6.7Y-5.2
X6.7Y-1.7
X3.2Y-5.2
T3
X6.5Y-3.4894G85X6.5Y-3.4106
G05
X6.6575Y-3.265G85X6.5787Y-3.265
G05
X6.7362Y-3.4894G85X6.7362Y-3.4106
G05
T0
M30
